<svg width="40" height="40" viewBox="0 0 40 40" fill="none" xmlns="http://www.w3.org/2000/svg">
<path d="M39.9988 20.0994C39.9988 31.0993 30.999 40.099 19.9993 39.999C8.99953 39.999 -0.000244141 30.8992 -0.000244141 19.8995C-0.000244141 8.89978 9.09952 0 20.0992 0C31.099 0 39.9988 9.09976 39.9988 20.0994ZM29.999 15.5996C29.1991 15.5996 28.499 15.5996 27.799 15.5996C27.1991 15.5996 26.9991 15.3996 26.9991 14.7996C26.9991 13.8996 26.9991 12.9997 26.9991 12.0997C26.9991 11.4997 27.1991 11.2997 27.799 11.2997C28.599 11.2997 29.499 11.3997 30.299 11.2997C31.099 11.1997 31.299 11.5997 31.299 12.3997C31.299 14.2997 31.299 16.0996 31.299 17.9995C31.299 19.0996 31.1989 19.1995 30.099 19.1995C28.499 19.1995 26.8991 19.1995 25.2991 19.1995C25.2991 19.7995 25.2991 20.3995 25.2991 20.8995C27.4991 20.8995 29.599 20.8995 31.6989 20.8995C32.499 20.8995 32.999 20.2995 32.999 19.4995C32.999 16.6996 32.999 13.7997 32.999 10.9997C32.999 10.0997 32.499 9.59976 31.599 9.59976C29.899 9.59976 28.1991 9.59976 26.4991 9.59976C25.6991 9.59976 25.1991 10.0997 25.1991 10.8997C25.1991 12.5997 25.1991 14.3996 25.1991 16.0996C25.1991 16.7996 25.5992 17.2996 26.1991 17.3996C27.3991 17.4995 28.6991 17.3996 29.899 17.3996C29.999 16.7996 29.999 16.2996 29.999 15.5996ZM6.99958 20.8995C9.19952 20.8995 11.2995 20.8995 13.3994 20.8995C14.2995 20.8995 14.7993 20.3995 14.7993 19.4995C14.7993 16.6996 14.7993 13.7997 14.7993 10.9997C14.7993 10.0997 14.2995 9.59976 13.3994 9.59976C11.6995 9.59976 10.0995 9.59976 8.39955 9.59976C7.49957 9.59976 6.99958 10.0997 6.99958 10.9997C6.99958 12.6997 6.99958 14.3996 6.99958 16.0996C6.99958 16.7996 7.49957 17.3996 8.19955 17.3996C9.29952 17.4995 10.4995 17.3996 11.6995 17.3996C11.6995 16.7996 11.6995 16.2996 11.6995 15.6996C10.9995 15.6996 10.2995 15.6996 9.59952 15.6996C8.99953 15.6996 8.69953 15.4997 8.79953 14.8996C8.79953 13.9997 8.79953 12.9997 8.79953 12.0997C8.79953 11.5997 8.99953 11.2997 9.59952 11.2997C10.3995 11.2997 11.2995 11.2997 12.0995 11.2997C12.8994 11.2997 13.1994 11.4997 13.0994 12.2997C13.0994 13.9997 13.0994 15.5996 13.0994 17.2996C13.0994 19.2995 13.2995 19.0996 11.2995 19.0996C9.8995 19.0996 8.49953 19.0996 7.09958 19.0996C6.99958 19.7995 6.99958 20.2995 6.99958 20.8995ZM25.5992 30.3993C25.5992 28.8993 25.5992 27.3993 25.5992 25.8993C25.5992 24.3995 25.5992 24.2994 27.1991 24.3994C27.299 24.3994 27.3991 24.3995 27.599 24.4994C27.599 26.4994 27.599 28.3993 27.599 30.3993C28.1991 30.3993 28.6991 30.3993 29.299 30.3993C29.299 28.8993 29.299 27.3993 29.299 25.9994C29.299 24.3995 29.299 24.2994 30.999 24.4994C31.099 24.4994 31.1989 24.5994 31.299 24.5994C31.299 26.4994 31.299 28.4992 31.299 30.3993C31.8989 30.3993 32.3989 30.3993 32.999 30.3993C32.999 27.7992 32.999 25.2994 32.999 22.6995C30.399 22.6995 27.799 22.6995 25.1991 22.6995C24.4991 22.6995 23.9991 23.1993 23.9991 23.8995C23.8992 26.0993 23.9991 28.1993 23.9991 30.4992C24.4991 30.3993 24.9991 30.3993 25.5992 30.3993ZM22.5992 26.5993C22.5992 25.7994 22.5992 24.9994 22.5992 24.0994C22.5992 23.0994 22.0992 22.5994 21.0992 22.5994C19.4993 22.5994 17.8994 22.5994 16.2993 22.5994C15.2993 22.5994 14.7993 23.1993 14.7993 24.0994C14.7993 25.6993 14.7993 27.2993 14.7993 28.8993C14.7993 29.8993 15.2993 30.3993 16.2993 30.3993C17.8994 30.3993 19.5992 30.3993 21.1992 30.3993C22.0992 30.3993 22.5992 29.8993 22.5992 28.9992C22.5992 28.1993 22.5992 27.3993 22.5992 26.5993ZM23.8992 13.4997C23.8992 12.6997 23.8992 11.7997 23.8992 10.9997C23.8992 10.0997 23.3992 9.59976 22.4991 9.59976C20.7992 9.59976 19.0993 9.59976 17.3994 9.59976C16.4993 9.59976 15.9993 10.1997 15.9993 10.9997C15.9993 12.5997 15.9993 14.2997 15.9993 15.8996C15.9993 16.7996 16.4993 17.3996 17.3994 17.3996C19.0993 17.3996 20.6992 17.3996 22.3992 17.3996C23.2992 17.3996 23.7992 16.7996 23.7992 15.8996C23.8992 15.0996 23.8992 14.2997 23.8992 13.4997ZM13.3994 28.6993C11.9995 28.6993 10.6995 28.6993 9.49952 28.6993C8.89953 28.6993 8.69953 28.4992 8.69953 27.8993C8.69953 27.1993 8.69953 26.4994 8.69953 25.7994C8.69953 24.3993 8.69953 24.3994 10.0995 24.3994C11.1995 24.3994 12.2994 24.3994 13.3994 24.3994C13.3994 23.6993 13.3994 23.1993 13.3994 22.5994C11.7995 22.5994 10.2995 22.5994 8.79953 22.5994C8.59953 22.5994 8.49953 22.5994 8.29955 22.5994C7.49957 22.6995 6.99958 23.1993 6.99958 23.9994C6.99958 25.5994 6.99958 27.2993 6.99958 28.8993C6.99958 29.7992 7.49957 30.2992 8.49953 30.2992C9.8995 30.2992 11.2995 30.2992 12.6994 30.2992C12.8994 30.2992 13.1994 30.2992 13.3994 30.1992C13.3994 29.7992 13.3994 29.2992 13.3994 28.6993Z" fill="#F4D400"/>
<path d="M20.899 26.4998C20.899 28.9996 21.1991 28.5997 18.6992 28.5997C16.2993 28.5997 16.4992 28.9996 16.4992 26.4998C16.4992 23.9998 16.1992 24.2998 18.6992 24.2998C21.1991 24.3997 20.7991 24.0998 20.899 26.4998Z" fill="#F4D400"/>
<path d="M19.9992 11.2996C22.4991 11.2996 22.199 10.8996 22.199 13.4995C22.199 15.8994 22.4991 15.5995 20.0991 15.5995C17.4992 15.5995 17.8992 15.8994 17.8992 13.3996C17.7992 10.9996 17.4992 11.3996 19.9992 11.2996Z" fill="#F4D400"/>
</svg>
