<svg width="44" height="39" viewBox="0 0 44 39" fill="none" xmlns="http://www.w3.org/2000/svg">
<path d="M43.2071 21.4676C43.2071 21.5738 43.2071 21.7865 43.2071 21.8927C43.099 22.2115 42.883 22.5304 42.7749 22.8492C42.451 23.1681 42.1269 23.5931 41.8028 23.912C39.7504 25.8249 37.3741 27.2065 34.6736 28.1629C34.5656 28.1629 34.4576 28.2692 34.3495 28.3755C33.8094 29.1194 33.3774 29.9696 32.8373 30.7135C31.9732 31.9889 31.0009 33.2642 29.9208 34.3269C28.1925 36.0273 26.3562 37.5152 24.1959 38.578C23.8718 38.578 23.6557 38.578 23.3317 38.578C23.1156 38.4716 22.7917 38.4716 22.5755 38.3654C21.4954 37.9403 20.6312 37.3026 19.8751 36.5587C19.119 35.8148 18.3628 34.9646 17.7148 34.2207C17.3907 33.7955 16.9586 33.4767 16.4185 33.3705C15.8784 33.2642 15.3383 33.1578 14.7983 32.9453C13.9341 32.7328 13.07 32.4139 12.2058 32.2014C11.6657 31.9889 11.3417 31.6701 11.2336 31.1387C11.2336 30.926 11.1256 30.8198 11.0176 30.6073C10.3695 28.8006 9.82941 26.994 8.96526 25.2935C7.66904 22.4241 6.04877 19.7672 4.21246 17.2166C3.02427 15.6225 1.83607 14.0283 0.539846 12.4342C0.32381 12.2217 0.107773 11.9028 -0.000244141 11.6903V11.584C0.107773 11.584 0.107773 11.584 0.215792 11.4777C1.18795 10.9463 2.16011 10.5213 3.02427 10.0961C4.21246 9.56477 5.29265 9.03339 6.26481 8.28946C8.10112 6.90789 9.93744 5.42004 11.5577 3.71964C12.7459 2.55061 13.8261 1.2753 14.9063 0C14.9063 0 15.0143 -1.14971e-08 15.0143 0.106276C17.7148 2.01923 20.4152 3.82591 23.1156 5.73887C23.2237 5.84514 23.3317 5.84514 23.4397 5.73887C24.4119 4.99494 25.384 4.35729 26.3562 3.61337C27.3283 2.86943 28.4086 2.1255 29.3807 1.48785C29.4888 1.48785 29.4888 1.59414 29.5967 1.59414C33.2693 4.03846 36.942 6.37652 40.6146 8.82084C40.7227 8.92712 40.7227 9.03339 40.7227 9.13968C40.3986 9.98988 39.9664 10.8401 39.6425 11.6903C39.4264 12.2217 39.3184 12.753 39.3184 13.2844C39.3184 14.5598 39.6425 15.835 40.1826 17.0041C40.6146 17.9605 41.2627 18.7045 41.8028 19.5547C42.3429 20.0861 42.883 20.7236 43.2071 21.4676ZM21.4954 28.0567C21.4954 27.9504 21.3873 27.9504 21.3873 27.9504C20.6312 27.1002 19.9832 26.0374 19.551 24.9747C18.795 23.2743 18.3628 21.5738 18.0387 19.7672C17.9308 19.0233 17.8227 18.1731 17.7148 17.4291C17.8227 17.5354 17.8227 17.5354 17.8227 17.6416C18.3628 19.4484 19.119 21.255 19.9832 22.9554C20.8472 24.5497 21.8194 26.0374 23.0077 27.3128C23.1156 27.419 23.2237 27.5253 23.3317 27.419C24.5198 27.1002 25.7081 26.6751 26.8963 26.3563C27.1123 26.2499 27.3283 26.1437 27.6524 26.0374C26.5722 24.7622 25.6001 23.4868 25.0599 21.999C24.5198 20.5111 24.1959 18.917 24.1959 17.3229C24.1959 17.4291 24.3038 17.4291 24.3038 17.5354C24.5198 18.0668 24.736 18.7045 24.952 19.2359C25.9241 21.5738 27.4364 23.4868 29.1647 25.2935C29.1647 25.2935 29.3807 25.3997 29.3807 25.2935C30.0289 25.081 30.6769 24.7622 31.2171 24.5497C31.6491 24.337 32.1892 24.0181 32.6213 23.8056C32.6213 23.6994 32.6213 23.6994 32.6213 23.6994C31.4331 22.2115 30.7849 20.5111 30.5689 18.7045C30.4609 17.8543 30.3529 17.1103 30.2449 16.26C30.2449 16.0475 30.2449 15.835 30.2449 15.7287C30.2449 15.7287 30.2449 15.7287 30.3529 15.7287C30.893 18.4918 32.0811 21.0425 33.8094 23.2743C34.1335 23.0617 34.4576 22.9554 34.6736 22.7429C35.7537 22.2115 36.834 21.5738 37.698 20.83C38.2383 20.2986 38.3462 20.0861 38.0221 19.342C37.9142 18.917 37.698 18.5982 37.482 18.1731C36.942 16.7916 36.2938 15.41 36.1859 13.9221C36.0778 12.8593 36.1859 11.9028 36.6179 10.9463C36.726 10.8401 36.6179 10.7338 36.51 10.6275C35.4298 9.77732 34.4576 8.92712 33.3774 8.07692C32.9453 7.65181 32.4052 7.33299 31.8651 6.90789C30.893 7.97065 30.0289 9.03339 29.0566 10.0961C28.9487 9.98988 28.8406 9.98988 28.7325 9.8836C27.6524 9.24595 26.4642 8.6083 25.384 8.07692C25.2761 7.97065 25.168 7.97065 25.0599 8.07692C24.4119 8.6083 23.7638 9.13968 23.2237 9.67104C22.6836 10.0962 22.1435 10.6275 21.6034 11.0526C19.335 9.24595 17.0667 7.43927 14.9063 5.73887C14.7983 5.84514 14.7983 5.95142 14.6902 5.95142C13.9341 6.90789 13.286 7.86437 12.5299 8.82084C11.6657 9.8836 10.8016 11.0526 9.93744 12.0091C9.18131 12.9656 7.99311 13.3907 6.91292 13.8158C6.69688 13.8158 6.58887 13.8158 6.48085 13.9221C6.58887 14.0283 6.58887 14.1346 6.58887 14.1346C7.45301 15.3036 8.31715 16.4727 9.18131 17.5354C11.1256 19.9797 12.8539 22.5304 14.0422 25.3997C14.4742 26.2499 14.9063 27.1001 15.5543 27.8442C16.0944 28.3755 16.6345 28.6944 17.3907 28.8006C17.8227 28.8006 18.2549 28.8006 18.6869 28.6944C19.6591 28.5881 20.5233 28.2692 21.4954 28.0567ZM19.227 30.6073C20.5233 31.5637 21.6034 32.4139 22.7917 33.2642C22.8996 33.3705 23.1156 33.4767 23.3317 33.4767C23.7638 33.4767 24.1959 33.2642 24.5198 33.0516C25.7081 32.2014 27.0044 31.2449 28.0845 30.1822C28.7325 29.5445 29.2726 28.9069 29.4888 28.0567C29.4888 27.9504 29.5967 27.7378 29.5967 27.5253C26.2482 28.6944 22.7917 29.9696 19.227 30.6073Z" fill="#F4D400"/>
</svg>
