<svg width="40" height="40" viewBox="0 0 40 40" fill="none" xmlns="http://www.w3.org/2000/svg">
<path d="M21.5132 14.7996C21.5132 11.9996 23.8146 9.69958 26.6164 9.69958C29.418 9.69958 31.6194 11.9996 31.6194 14.7996C31.6194 17.5995 29.3181 19.8995 26.5162 19.7996C23.7146 19.8995 21.5132 17.5995 21.5132 14.7996ZM26.6164 10.9996C24.5151 10.9996 22.8141 12.6996 22.8141 14.7996C22.8141 16.8996 24.5151 18.5996 26.5162 18.5996C28.6176 18.5996 30.3186 16.8996 30.3186 14.7996C30.3186 12.6996 28.7176 10.9996 26.6164 10.9996Z" fill="#F4D400"/>
<path d="M10.106 29.4994C11.0065 29.8994 11.707 30.1994 12.5075 30.4994C14.4086 31.2993 16.3098 30.1994 16.8101 28.2994C17.1103 26.8995 16.4099 25.2994 15.009 24.6994C14.2085 24.2995 13.308 23.9995 12.5075 23.6994C13.9083 22.9994 16.61 23.3994 17.7106 25.6995C18.8114 27.8995 17.9108 30.4994 15.7095 31.5994C13.6082 32.4993 11.0065 31.4994 10.106 29.4994Z" fill="#F4D400"/>
<path d="M39.6242 16.4C39.1239 13.8999 38.3235 11.6999 37.0226 9.59996C33.6205 3.79998 27.2166 0 20.0122 0C9.40566 0 0.80037 8.09996 -0.00012207 18.3999C3.50203 19.8 6.90412 21.2998 10.4063 22.7C10.6064 22.7999 10.8065 22.7 11.0066 22.7C11.9072 22.1999 12.9078 21.8999 13.9084 21.8999C14.1085 21.8999 14.3087 21.7999 14.4087 21.5999C15.9097 19.3999 17.4106 17.2999 18.8115 15.0999C18.9115 14.8999 19.0116 14.7 19.0116 14.5C19.1117 10.5999 22.3136 7.29996 26.1159 7.09997C30.1184 6.89997 33.5205 9.79995 34.0209 13.6999C34.6212 18.1 31.219 22.0999 26.7163 22.2999C26.4161 22.2999 26.216 22.3999 26.0159 22.5999C23.9146 24.0999 21.9134 25.4999 19.9121 26.9999C19.712 27.1999 19.6119 27.2998 19.6119 27.5998C19.5119 30.3999 17.4106 32.7999 14.7089 33.0998C11.8071 33.3998 9.20553 31.6998 8.40505 28.8999C8.40505 28.7998 8.20492 28.5999 8.10486 28.4998C5.70339 27.4999 3.20185 26.4999 0.700309 25.3998C3.10178 33.8998 10.8065 39.9999 20.0122 39.9999C28.1172 39.9999 35.1215 35.1999 38.3235 28.2998C38.3235 28.2998 38.3235 28.2998 38.3235 28.1999C39.9244 24.4999 40.4247 20.3999 39.6242 16.4Z" fill="#F4D400"/>
</svg>
