<svg width="41" height="39" viewBox="0 0 41 39" fill="none" xmlns="http://www.w3.org/2000/svg">
<path d="M22.5292 38.578C20.9217 38.578 19.3141 38.578 17.7065 38.578C16.8022 38.3887 15.898 38.1997 15.0942 38.0106C4.84587 35.3631 -1.78542 25.3404 0.425012 15.6013C2.13307 8.03706 6.95583 2.93117 14.8933 0.661875C15.9985 0.378215 17.2042 0.189107 18.3094 0C19.5151 0 20.6202 0 21.8259 0C23.1321 0.28366 24.5387 0.472769 25.7444 0.850982C35.5909 3.68759 41.8203 13.6157 39.7103 23.0711C37.9018 31.0137 32.7776 36.1195 24.4383 38.2942C23.8354 38.3887 23.1321 38.4833 22.5292 38.578ZM4.54444 22.7874C4.64492 22.7874 4.64491 22.882 4.74539 22.882C7.86008 15.696 12.7833 10.4955 21.5246 9.45537C20.8213 8.60438 20.1178 7.84796 19.5151 7.09153C19.5151 6.99698 19.6156 6.99698 19.6156 6.90241C22.1274 7.65884 24.7397 8.41527 27.151 9.1717C25.3426 10.8737 23.534 12.5756 21.8259 14.1831C21.8259 13.3321 21.8259 12.3865 21.8259 11.1573C20.8213 11.6301 19.716 12.0083 18.9122 12.5756C17.2042 13.7103 16.0989 15.3177 15.1947 17.0196C13.8885 19.6671 13.1852 22.5038 12.9843 25.4349C12.8837 26.475 12.9843 27.6097 12.9843 28.6498C17.3046 28.6498 23.534 24.3949 23.735 21.18C22.9312 21.3691 22.027 21.4636 21.0222 21.6528C22.6298 19.7617 24.0364 17.9652 25.644 16.0741C26.9501 18.1542 28.1558 20.2345 29.3615 22.3146C29.2611 22.3146 29.2611 22.4092 29.1606 22.4092C28.2563 22.031 27.3521 21.6528 26.3473 21.2746C27.4525 25.624 27.151 29.7844 25.5435 33.9448C26.0459 33.7557 26.3473 33.6611 26.6487 33.4719C33.5815 30.4463 37.2989 23.2601 35.6914 15.9796C33.8829 7.65884 25.2421 2.36384 16.5008 4.25491C8.46293 6.05143 3.03734 13.7103 4.3435 21.4636C4.3435 21.8419 4.44398 22.3146 4.54444 22.7874Z" fill="#F4D400"/>
</svg>
