<svg width="350" height="350" viewBox="0 0 350 350" fill="none" xmlns="http://www.w3.org/2000/svg">
<circle cx="175" cy="175" r="175" fill="#F4D400"/>
<path d="M173.134 319.375C252.805 319.375 317.445 254.736 317.509 175C317.573 95.2639 253.039 30.625 173.367 30.625C93.6951 30.625 29.0561 95.2639 28.9916 175C28.9272 254.736 93.4618 319.375 173.134 319.375Z" fill="#020E30"/>
<path d="M163.371 256.256C165.011 256.256 166.504 256.587 167.851 257.25C169.197 257.912 170.262 258.857 171.045 260.084C171.829 261.286 172.22 262.685 172.22 264.28C172.22 265.998 171.792 267.507 170.935 268.808C170.078 270.109 168.903 271.115 167.41 271.826C165.941 272.514 164.301 272.857 162.49 272.857C158.891 272.857 156.076 271.753 154.044 269.544C152.012 267.336 150.997 264.182 150.997 260.084C150.997 257.164 151.547 254.661 152.649 252.575C153.75 250.489 155.28 248.906 157.239 247.826C159.222 246.746 161.511 246.206 164.105 246.206C165.476 246.206 166.786 246.366 168.034 246.685C169.307 246.979 170.384 247.409 171.266 247.973L169.062 252.354C167.79 251.495 166.186 251.065 164.252 251.065C162.074 251.065 160.348 251.703 159.075 252.98C157.802 254.256 157.116 256.108 157.019 258.538C158.536 257.016 160.654 256.256 163.371 256.256ZM162.159 268.403C163.432 268.403 164.46 268.06 165.244 267.372C166.051 266.685 166.455 265.753 166.455 264.575C166.455 263.397 166.051 262.464 165.244 261.777C164.46 261.066 163.408 260.71 162.086 260.71C160.788 260.71 159.724 261.078 158.891 261.814C158.059 262.526 157.643 263.446 157.643 264.575C157.643 265.704 158.047 266.624 158.854 267.336C159.662 268.047 160.764 268.403 162.159 268.403Z" fill="#F4D400"/>
<path d="M185.392 272.857C183.263 272.857 181.365 272.33 179.701 271.274C178.036 270.219 176.727 268.698 175.772 266.71C174.842 264.698 174.376 262.305 174.376 259.532C174.376 256.759 174.842 254.378 175.772 252.391C176.727 250.378 178.036 248.845 179.701 247.789C181.365 246.734 183.263 246.206 185.392 246.206C187.522 246.206 189.419 246.734 191.084 247.789C192.748 248.845 194.046 250.378 194.976 252.391C195.931 254.378 196.408 256.759 196.408 259.532C196.408 262.305 195.931 264.698 194.976 266.71C194.046 268.698 192.748 270.219 191.084 271.274C189.419 272.33 187.522 272.857 185.392 272.857ZM185.392 267.814C186.959 267.814 188.183 267.139 189.064 265.79C189.97 264.44 190.423 262.354 190.423 259.532C190.423 256.71 189.97 254.624 189.064 253.274C188.183 251.924 186.959 251.249 185.392 251.249C183.85 251.249 182.626 251.924 181.72 253.274C180.839 254.624 180.398 256.71 180.398 259.532C180.398 262.354 180.839 264.44 181.72 265.79C182.626 267.139 183.85 267.814 185.392 267.814Z" fill="#F4D400"/>
<path d="M154.256 281.6V288.349H163.118V289.919H154.256V297.208H152.445V280.03H164.195V281.6H154.256Z" fill="#F4D400"/>
<path d="M174.349 280.03C176.536 280.03 178.25 280.553 179.49 281.6C180.73 282.647 181.351 284.087 181.351 285.919C181.351 287.752 180.73 289.191 179.49 290.238C178.25 291.269 176.536 291.784 174.349 291.784H169.747V297.208H167.936V280.03H174.349ZM174.3 290.189C175.998 290.189 177.295 289.821 178.193 289.085C179.09 288.332 179.539 287.277 179.539 285.919C179.539 284.529 179.09 283.465 178.193 282.729C177.295 281.977 175.998 281.6 174.3 281.6H169.747V290.189H174.3Z" fill="#F4D400"/>
<path d="M190.231 297.355C188.958 297.355 187.734 297.151 186.559 296.742C185.4 296.333 184.503 295.793 183.866 295.122L184.576 293.723C185.196 294.345 186.021 294.852 187.049 295.245C188.077 295.621 189.138 295.809 190.231 295.809C191.765 295.809 192.916 295.531 193.683 294.975C194.45 294.402 194.833 293.666 194.833 292.766C194.833 292.079 194.621 291.531 194.197 291.122C193.789 290.713 193.283 290.402 192.679 290.189C192.075 289.96 191.235 289.715 190.158 289.453C188.868 289.126 187.84 288.815 187.073 288.521C186.306 288.21 185.645 287.744 185.09 287.122C184.552 286.5 184.283 285.658 184.283 284.594C184.283 283.727 184.511 282.942 184.968 282.238C185.425 281.518 186.127 280.946 187.073 280.52C188.02 280.095 189.195 279.882 190.598 279.882C191.577 279.882 192.532 280.022 193.462 280.3C194.409 280.561 195.225 280.929 195.91 281.404L195.298 282.852C194.58 282.377 193.813 282.026 192.997 281.797C192.181 281.551 191.382 281.428 190.598 281.428C189.097 281.428 187.963 281.723 187.196 282.312C186.445 282.885 186.07 283.629 186.07 284.545C186.07 285.232 186.274 285.788 186.682 286.214C187.106 286.623 187.628 286.942 188.248 287.171C188.885 287.384 189.733 287.621 190.794 287.883C192.051 288.193 193.063 288.504 193.83 288.815C194.613 289.11 195.274 289.568 195.812 290.189C196.351 290.795 196.62 291.621 196.62 292.668C196.62 293.535 196.384 294.328 195.91 295.048C195.453 295.752 194.743 296.316 193.781 296.742C192.818 297.151 191.635 297.355 190.231 297.355Z" fill="#F4D400"/>
<mask id="mask0" mask-type="alpha" maskUnits="userSpaceOnUse" x="43" y="45" width="260" height="260">
<path fill-rule="evenodd" clip-rule="evenodd" d="M302.647 175C302.589 246.521 244.61 304.5 173.147 304.5C101.683 304.5 43.7979 246.521 43.8557 175C43.9135 103.479 101.893 45.5 173.356 45.5C244.819 45.5 302.705 103.479 302.647 175ZM173.677 268.841C225.268 268.841 267.091 226.827 267.091 175C267.091 123.173 225.268 81.1596 173.677 81.1596C122.085 81.1596 80.2625 123.173 80.2625 175C80.2625 226.827 122.085 268.841 173.677 268.841Z" fill="#020E30"/>
</mask>
<g mask="url(#mask0)">
<path opacity="0.05" d="M95.8752 174.689C95.8752 196.599 104.644 216.362 118.975 230.539L79.4062 269.42C55.2374 245.146 40.0517 211.636 40.0517 174.689C40.0517 174.474 40.0517 174.259 40.0517 174.044H95.8752C95.8752 174.044 95.8752 174.259 95.8752 174.689Z" fill="#229FFF"/>
<path d="M253.233 174.752C253.233 195.33 244.892 213.891 231.26 227.206L268.898 263.722C291.888 240.925 306.333 209.452 306.333 174.752C306.333 174.55 306.333 174.348 306.333 174.147H253.233C253.233 174.147 253.233 174.348 253.233 174.752Z" fill="#229FFF"/>
<path opacity="0.15" d="M95.875 173.829H40.0515C40.2654 137.741 54.5956 105.305 77.9088 81.2458L117.477 120.127C104.216 134.304 96.0889 153.207 95.875 173.829Z" fill="#229FFF"/>
<path opacity="0.3" d="M170.306 95.6383C149.56 96.7123 130.738 105.949 117.477 120.341L77.9088 81.4608C101.436 57.1872 133.946 42.1505 169.878 41.2913L170.306 95.6383Z" fill="#229FFF"/>
<path opacity="0.5" d="M174.584 95.6383C173.087 95.6383 171.804 95.6383 170.307 95.8531L169.879 41.2913C170.948 41.2913 172.018 41.2913 172.873 41.2913C210.73 41.2913 244.952 57.402 269.334 82.9645C260.993 91.5569 242.813 110.89 232.76 121.845C218.43 105.52 197.684 95.6383 174.584 95.6383Z" fill="#229FFF"/>
<path opacity="0.75" d="M253.292 174.044C253.078 153.852 245.592 135.593 232.973 121.63L269.547 82.7494C292.005 106.593 305.907 138.6 305.907 174.044C295.855 174.259 271.472 174.259 253.292 174.044Z" fill="#229FFF"/>
</g>
<path opacity="0.1" d="M175.325 201.875C190.112 201.875 202.116 189.851 202.136 175.018C202.155 160.185 190.183 148.161 175.395 148.161C160.608 148.161 148.604 160.185 148.584 175.018C148.565 189.851 160.537 201.875 175.325 201.875Z" fill="#229FFF"/>
<path d="M166.599 177.57C168.077 182.763 173.74 185.978 178.911 184.494L276.608 156.601C278.978 155.925 278.264 152.395 275.817 152.693L174.971 164.958C168.816 165.7 164.876 171.635 166.599 177.57Z" fill="#F4D400"/>
</svg>
