<svg width="106" height="60" viewBox="0 0 106 60" fill="none" xmlns="http://www.w3.org/2000/svg">
<rect x="0.428467" width="105" height="59.9999" fill="#F4D400"/>
<path d="M31.7803 8.1571V15.9208H31.3408C27.6494 15.9208 24.6123 16.8094 22.2295 18.5868C19.8662 20.3446 18.4112 22.7958 17.8643 25.9403C20.0908 23.7528 22.9033 22.659 26.3018 22.659C29.9932 22.659 32.9326 24.0067 35.1201 26.702C37.3076 29.3973 38.4014 32.9325 38.4014 37.3075C38.4014 40.0223 37.7568 42.5125 36.4678 44.7782C35.1982 47.0438 33.4111 48.8211 31.1065 50.1102C28.8213 51.3797 26.2822 52.0145 23.4893 52.0145C20.4619 52.0145 17.7569 51.3309 15.374 49.9637C12.9912 48.577 11.1358 46.6043 9.80765 44.0457C8.47952 41.4872 7.79593 38.5379 7.75687 35.1981V31.243C7.75687 26.8485 8.69437 22.9032 10.5694 19.4071C12.4639 15.8915 15.1592 13.1376 18.6553 11.1454C22.1514 9.1532 26.0283 8.1571 30.2861 8.1571H31.7803ZM22.874 30.2176C21.5654 30.2176 20.4717 30.5204 19.5928 31.1258C18.7139 31.7313 18.0596 32.4735 17.6299 33.3524V36.3114C17.6299 41.702 19.4951 44.3973 23.2256 44.3973C24.7295 44.3973 25.9795 43.7235 26.9756 42.3758C27.9912 41.0282 28.499 39.3387 28.499 37.3075C28.499 35.2176 27.9815 33.5184 26.9463 32.2098C25.9307 30.8817 24.5733 30.2176 22.874 30.2176Z" fill="#011A43"/>
<path d="M72.2978 33.9969C72.2978 39.7586 70.999 44.202 68.4013 47.327C65.8232 50.452 62.1806 52.0145 57.4736 52.0145C52.7275 52.0145 49.0557 50.4422 46.458 47.2977C43.8604 44.1532 42.5615 39.7196 42.5615 33.9969V26.204C42.5615 20.4422 43.8506 15.9989 46.4287 12.8739C49.0264 9.7489 52.6885 8.1864 57.415 8.1864C62.1416 8.1864 65.8037 9.75867 68.4013 12.9032C70.999 16.0477 72.2978 20.4911 72.2978 26.2333V33.9969ZM62.4248 24.9442C62.4248 21.8778 62.0244 19.5926 61.2236 18.0887C60.4228 16.5653 59.1533 15.8036 57.415 15.8036C55.7158 15.8036 54.4756 16.5067 53.6943 17.913C52.9326 19.3192 52.5225 21.4481 52.4639 24.2997V35.1981C52.4639 38.3817 52.8643 40.7157 53.665 42.2C54.4658 43.6649 55.7353 44.3973 57.4736 44.3973C59.1533 44.3973 60.3935 43.6844 61.1943 42.2586C61.9951 40.8133 62.4053 38.5575 62.4248 35.4911V24.9442Z" fill="#011A43"/>
<path d="M88.9374 38.6656L88.9374 45.295L95.7855 45.295L95.7855 48.7479L79.0278 48.7479L79.0278 37.8369L81.8246 37.8369L81.8246 45.295L86.1521 45.295L86.1521 38.6656L88.9374 38.6656Z" fill="#011A43"/>
<path d="M89.8812 32.3814L95.7855 32.3814L95.7855 35.8342L79.0278 35.8342L79.0278 29.2968C79.0278 28.0385 79.2579 26.9336 79.7183 25.9821C80.1787 25.023 80.8347 24.2864 81.6864 23.7723C82.5305 23.2582 83.4934 23.0012 84.5753 23.0012C86.2173 23.0012 87.5141 23.5651 88.4655 24.6931C89.4093 25.8133 89.8812 27.3671 89.8812 29.3544L89.8812 32.3814ZM87.0844 32.3814L87.0844 29.2968C87.0844 28.3838 86.8695 27.6894 86.4399 27.2136C86.0102 26.7302 85.3963 26.4885 84.5983 26.4885C83.7773 26.4885 83.1136 26.7302 82.6072 27.2136C82.1008 27.697 81.8399 28.3646 81.8246 29.2163L81.8246 32.3814L87.0844 32.3814Z" fill="#011A43"/>
<path d="M91.3889 11.929C90.7367 11.929 90.238 12.1592 89.8927 12.6196C89.5397 13.08 89.1714 13.9087 88.7878 15.1057C88.3965 16.3026 88.0128 17.2503 87.6368 17.9485C86.6087 19.8514 85.2237 20.8029 83.4819 20.8029C82.5765 20.8029 81.7708 20.5496 81.0649 20.0432C80.3513 19.5291 79.795 18.7964 79.3961 17.8449C78.9971 16.8858 78.7976 15.8116 78.7976 14.6223C78.7976 13.4253 79.0162 12.3587 79.4536 11.4226C79.8833 10.4865 80.4933 9.76143 81.2836 9.24734C82.0739 8.72557 82.9717 8.46469 83.9768 8.46469L83.9768 11.9175C83.2095 11.9175 82.6149 12.1592 82.1929 12.6426C81.7632 13.126 81.5483 13.8051 81.5483 14.6798C81.5483 15.5238 81.7286 16.1799 82.0893 16.6479C82.4422 17.116 82.9103 17.35 83.4934 17.35C84.0382 17.35 84.4948 17.0776 84.8631 16.5328C85.2314 15.9804 85.5766 15.1709 85.8989 14.1043C86.4897 12.1401 87.2225 10.709 88.0972 9.8113C88.9719 8.91356 90.0615 8.46469 91.3659 8.46469C92.8161 8.46469 93.9555 9.01331 94.7842 10.1105C95.6052 11.2078 96.0157 12.6848 96.0157 14.5417C96.0157 15.8308 95.7817 17.0047 95.3137 18.0636C94.8379 19.1225 94.1896 19.932 93.3686 20.4921C92.5475 21.0446 91.5961 21.3208 90.5142 21.3208L90.5142 17.8564C92.3634 17.8564 93.288 16.7515 93.288 14.5417C93.288 13.7207 93.123 13.08 92.7931 12.6196C92.4555 12.1592 91.9874 11.929 91.3889 11.929Z" fill="#011A43"/>
</svg>
