<svg width="1366" height="382" viewBox="0 0 1366 382" fill="none" xmlns="http://www.w3.org/2000/svg">
<g clip-path="url(#clip0)">
<rect width="1366" height="382" fill="white"/>
<circle cx="683" cy="-299" r="1394" fill="#229FFF"/>
<rect width="1366" height="700" fill="#001E82"/>
<rect opacity="0.5" x="503" y="-172" width="1190" height="1128" fill="url(#paint0_radial)"/>
<circle cx="1273.5" cy="403.5" r="297.5" stroke="white" stroke-width="2"/>
<circle cx="1336" cy="358" r="250" fill="#FFC516"/>
<circle r="25.1724" transform="matrix(1 0 0 -1 1342.06 174.627)" fill="#001E82"/>
<path d="M978.309 592.51C979.909 590.81 981.412 589.694 983.497 589.742C984.66 589.742 985.824 589.742 986.988 589.888C987.763 589.985 988.491 590.276 989.218 590.568C990.963 591.296 992.66 592.073 994.696 592.898C994.793 592.121 994.939 591.636 994.939 591.15C994.939 590.907 994.745 590.665 994.599 590.47C991.497 586.635 988.878 582.411 985.145 579.158C982.188 576.536 979.812 573.429 977 570.467C977.873 570.079 978.358 570.321 978.794 570.71C981.606 573.089 984.369 575.468 987.133 577.896C987.763 578.43 988.345 579.158 989.024 579.595C991.206 580.954 992.709 582.945 994.26 584.887C995.133 586.004 996.248 586.926 997.508 588.189C997.751 587.023 997.411 586.441 997.072 585.858C994.987 582.459 993.339 578.769 990.769 575.662C989.363 573.963 988.297 571.924 987.133 570.03C986.794 569.448 986.6 568.768 986.6 567.942C987.23 568.476 987.86 569.011 988.491 569.545C992.66 573.332 995.909 577.847 998.624 582.799C999.642 584.644 1000.85 586.344 1002.55 587.654C1003.81 588.674 1004.93 589.888 1006.04 591.005C1007.4 590.179 1007.79 589.062 1007.74 587.703C1007.69 585.13 1007.74 582.557 1006.57 580.177C1006.53 580.08 1006.48 579.935 1006.43 579.789C1006.33 578.964 1005.46 577.798 1006.57 577.361C1007.59 576.973 1008.13 578.187 1008.51 578.964C1009.87 581.731 1010.99 584.547 1010.45 587.849C1009.97 590.762 1010.07 593.723 1010.45 596.637C1010.6 597.802 1010.31 599.064 1010.26 600.375C1014.91 600.424 1019.67 600.715 1024.47 600.229C1027.81 599.89 1031.16 599.89 1034.5 600.084C1038.14 600.278 1041.58 599.453 1044.78 597.948C1047.01 596.879 1049.09 595.471 1051.28 594.258C1052.54 593.578 1053.85 592.947 1055.11 592.364C1055.06 588.626 1053.56 585.275 1051.91 582.022C1051.62 581.391 1051.08 580.857 1050.6 580.323C1050.02 579.692 1049.43 579.061 1048.8 578.478C1045.89 575.565 1044.29 571.924 1043.03 568.088C1041.34 562.844 1040.22 557.552 1040.42 552.017C1040.46 550.804 1040.66 549.493 1041.24 548.424C1042.89 545.317 1044.15 542.113 1044.93 538.666C1044.97 538.374 1045.17 538.083 1045.31 537.694C1045.89 537.889 1046.38 538.034 1046.96 538.277C1047.64 536.821 1048.37 535.364 1049.19 533.568C1049.58 534.49 1049.82 535.073 1050.06 535.752C1051.03 535.51 1051.62 534.878 1052.05 534.053C1053.07 532.062 1053.7 530.072 1052.97 527.79C1052.63 526.77 1052.63 525.605 1052.49 524.343C1055.79 524.537 1056.8 527.11 1058.31 529.101C1058.89 528.518 1058.74 527.256 1059.91 527.256C1060.05 527.256 1060.2 526.722 1060.29 526.382C1061.46 522.498 1060.1 518.711 1056.71 516.477C1055.69 515.798 1054.52 515.263 1053.46 514.681C1053.17 514.535 1052.92 514.341 1052.68 513.807C1053.12 513.807 1053.6 513.71 1054.04 513.807C1058.5 515.166 1061.65 517.982 1063.49 522.304C1064.51 524.683 1065.68 527.013 1066.79 529.392C1066.94 529.392 1067.03 529.344 1067.18 529.344C1067.47 528.275 1067.76 527.159 1068.05 526.091C1068.2 526.091 1068.29 526.091 1068.44 526.091C1068.59 526.867 1068.78 527.693 1068.83 528.47C1068.88 529.538 1068.97 530.606 1068.83 531.625C1068.49 534.005 1069.8 535.364 1071.69 535.947C1074.16 536.772 1076.78 537.306 1079.35 537.597C1080.85 537.792 1082.45 537.209 1084 537.063C1084.68 537.015 1085.46 537.063 1086.14 537.16C1087.64 537.403 1088.75 536.918 1089.09 535.413C1089.48 533.81 1090.4 532.791 1091.66 531.868C1093.7 530.315 1095.49 528.518 1096.75 526.188C1098.01 523.809 1099.32 521.43 1101.36 519.585C1101.7 519.293 1102.04 518.953 1102.43 518.711C1104.41 517.545 1104.8 517.643 1107.27 519.973C1105.97 526.333 1102.96 532.257 1101.6 538.86C1101.99 539.005 1102.38 539.2 1102.81 539.248C1104.85 539.345 1106.89 539.394 1108.92 539.394C1111.06 539.394 1113.14 539.394 1114.79 541.384C1115.42 539.734 1115.61 538.326 1115.47 536.675C1113.38 536.141 1111.35 535.558 1109.17 534.976C1109.26 533.907 1109.36 532.985 1109.46 531.965C1108.39 531.528 1108.39 530.557 1108.44 529.538C1108.58 527.693 1108.73 525.848 1109.02 524.051C1109.17 523.275 1109.7 522.546 1110.09 521.672C1109.94 521.43 1109.8 521.041 1109.5 520.798C1106.74 518.371 1106.84 514.778 1105.82 511.671C1105.63 511.088 1105.82 510.36 1105.92 509.729C1106.11 508.418 1106.45 507.107 1106.64 505.747C1106.69 505.456 1106.5 505.116 1106.35 504.825C1105.82 503.999 1106.26 503.465 1107.03 502.98C1106.64 502.349 1106.35 501.766 1106.01 501.232C1104.07 498.27 1102.14 495.26 1100.2 492.298C1099.91 491.861 1099.52 491.522 1099.08 491.23C1097.68 490.259 1096.66 489.094 1095.98 487.54C1095.3 485.987 1094.62 484.433 1093.89 482.879C1092.63 480.112 1092.05 477.296 1092.88 474.286C1093.41 472.392 1093.7 470.45 1094.09 468.508C1094.57 465.643 1095.64 464.867 1098.79 465.109C1098.98 465.546 1099.18 466.032 1099.47 466.712C1101.6 466.712 1103.78 466.712 1106.16 466.712C1106.16 466.372 1106.26 465.983 1106.21 465.643C1105.77 462.633 1105.24 459.671 1104.9 456.71C1104.75 455.642 1104.8 454.476 1105.14 453.457C1106.16 450.01 1107.27 446.562 1108.44 443.164C1108.78 442.144 1109.46 441.173 1110.09 440.299C1110.96 439.134 1111.98 438.114 1112.8 436.949C1113.34 436.221 1113.77 435.395 1114.06 434.522C1114.26 433.939 1114.3 432.919 1113.97 432.677C1112.75 431.657 1112.56 430.2 1112.03 428.89C1111.69 428.064 1111.1 427.336 1110.57 426.51C1112.7 423.209 1114.74 419.907 1116.92 416.752C1117.94 415.295 1118.67 413.984 1117.31 412.333C1119.15 410.391 1120.8 408.449 1122.69 406.701C1123.95 405.536 1125.65 405.148 1127.3 405.585C1129.33 406.119 1130.79 405.487 1132.2 404.031C1133.7 402.477 1135.35 401.069 1136.95 399.613C1137.63 399.03 1138.06 398.35 1138.11 397.428C1138.45 393.107 1138.26 388.883 1136.85 384.756C1135.01 384.804 1134.72 384.416 1135.15 382.717C1135.3 382.183 1135.25 381.6 1135.15 381.066C1135.01 380.289 1134.86 379.464 1134.52 378.784C1133.55 376.89 1134.28 375.142 1135.01 373.443C1135.88 371.307 1137.92 370.821 1139.9 370.239C1140.1 370.19 1140.29 370.239 1140.49 370.19C1140.58 370.19 1140.68 370.093 1140.87 369.996C1140.05 368.297 1138.59 367.374 1136.9 366.743C1135.49 366.257 1135.4 366.015 1135.83 364.607C1136.27 363.393 1136.9 362.422 1138.16 361.888C1139.47 361.354 1140.68 360.625 1141.99 359.946C1143.06 361.548 1143.83 363.102 1144.95 364.364C1146.06 365.626 1147.47 366.646 1148.92 367.908C1148.34 365.578 1147.76 363.441 1147.23 361.257C1147.18 361.111 1147.18 360.965 1147.08 360.917C1145.24 359.606 1145.58 357.567 1145.33 355.722C1145.09 353.974 1144.8 352.226 1144.46 350.478C1144.41 350.09 1144.27 349.507 1144.03 349.458C1142.43 348.973 1142.81 347.565 1142.62 346.545C1142.18 344.021 1141.79 341.496 1141.46 338.971C1141.31 337.757 1140.53 337.126 1139.52 336.689C1136.46 335.378 1134.38 333.194 1133.07 330.135C1132.63 329.067 1132.63 328.096 1133.02 327.076C1133.46 325.911 1134.04 324.843 1134.57 323.726C1134.81 323.24 1135.25 322.803 1135.25 322.318C1135.4 320.085 1136.95 319.405 1138.93 318.919C1138.4 317.948 1137.92 316.977 1137.33 315.861C1136.61 316.686 1136.03 317.414 1135.35 318.094C1134.72 318.725 1133.94 319.211 1133.26 319.793C1132.78 320.23 1132.24 320.667 1132 321.201C1130.74 323.969 1129.58 326.736 1128.46 329.552C1127.64 331.64 1126.18 333.242 1124.39 334.456C1123.61 334.99 1122.79 335.378 1122.06 335.913C1120.07 337.369 1117.94 337.369 1115.71 336.689C1112.07 335.573 1112.12 335.524 1109.99 332.465C1108.97 330.96 1107.81 329.504 1106.64 328.096C1103.4 324.114 1101.26 319.502 1099.91 314.598C1098.31 308.918 1097.04 303.14 1095.59 297.362C1095.35 296.488 1095.11 295.614 1094.77 294.498C1092.54 296.44 1090.55 295.372 1088.56 294.352C1087.49 294.595 1086.77 296.051 1085.36 295.323C1085.65 293.478 1087.64 294.303 1088.56 293.187C1088.27 292.313 1088.03 291.39 1087.69 290.468C1087.59 290.128 1087.3 289.788 1087.01 289.642C1085.51 288.914 1085.46 288.769 1086.77 287.361C1086.48 286.487 1086.23 285.516 1085.94 284.545C1085.17 284.156 1083.76 284.545 1083.91 282.894C1084.25 282.602 1084.63 282.311 1085.07 281.971C1084.83 281.146 1084.68 280.369 1084.39 279.641C1084.25 279.301 1084 278.961 1083.71 278.718C1082.21 277.65 1082.16 277.65 1083.28 276.194C1083.08 275.465 1082.79 274.737 1082.6 273.96C1082.31 272.746 1082.65 272.261 1083.86 272.164C1084.39 272.115 1084.92 272.115 1085.41 272.018C1085.51 272.018 1085.65 271.921 1085.85 271.824C1085.75 271.484 1085.7 271.144 1085.6 270.61C1083.23 271.533 1082.35 270.125 1081.34 268.328C1079.4 264.881 1077.26 261.579 1075.23 258.181C1075.03 257.841 1074.79 257.501 1074.5 257.258C1071.45 254.734 1070.72 251.335 1070.91 247.596C1070.96 246.577 1070.72 245.509 1070.62 244.489C1070.52 243.324 1070.18 242.11 1070.43 240.993C1070.62 239.877 1070.52 238.954 1070.23 237.935C1069.8 236.43 1069.17 234.924 1068.97 233.419C1068.88 232.497 1069.46 231.477 1069.89 230.555C1070.43 229.438 1071.15 228.418 1071.78 227.302C1070.28 225.651 1069.17 223.612 1067.47 222.592C1065 221.136 1063.4 218.951 1061.85 216.815C1060.2 214.63 1058.45 212.542 1056.8 210.357C1056.03 209.338 1055.69 207.978 1055.11 206.619C1056.42 205.453 1057.68 204.337 1058.94 203.22C1060.88 204.24 1062.52 205.356 1063.88 206.958C1065.09 208.415 1066.55 209.726 1067.95 210.988C1065.97 205.987 1061.75 202.734 1058.55 198.705C1057.58 197.491 1056.46 196.374 1055.4 195.16C1054.38 193.995 1054.33 193.412 1055.49 192.296C1057.09 190.742 1058.74 189.237 1060.44 187.829C1061.94 186.615 1062.43 186.712 1063.69 188.266C1067.03 192.296 1070.43 196.326 1073.68 200.453C1074.55 201.521 1075.28 201.909 1076.63 201.472C1078.33 200.938 1080.12 200.744 1081.43 199.142C1084.1 200.987 1087.45 201.618 1089.24 204.579C1088.51 205.745 1087.4 205.793 1086.43 206.133C1085.36 206.522 1084.92 207.25 1084.34 208.221C1082.79 210.94 1083.66 212.736 1085.51 214.921C1098.6 230.603 1111.59 246.383 1124.58 262.114C1125.75 263.522 1127.15 264.735 1128.56 266.192C1129.48 265.609 1130.35 265.075 1131.32 264.444C1133.46 266.92 1135.59 269.396 1137.82 272.018C1139.9 271.241 1141.94 270.464 1144.07 269.639C1144.17 269.154 1144.12 268.668 1144.32 268.28C1144.51 267.843 1144.75 267.309 1145.14 267.066C1146.26 266.338 1146.26 266.386 1146.79 264.93C1149.21 264.444 1151.69 263.861 1154.21 263.424C1155.52 263.182 1156.39 262.648 1156.73 261.337C1156.78 261.094 1156.92 260.851 1157.07 260.608C1158.72 257.113 1158.72 257.161 1162.4 256.045C1164.53 255.413 1166.62 254.588 1168.7 253.811C1168.95 253.714 1169.14 253.568 1169.38 253.423C1169.38 252.452 1169.38 251.481 1169.38 250.315C1167.64 251.626 1165.99 250.947 1164.68 250.073C1163.81 249.49 1163.22 248.179 1162.89 247.111C1161.92 243.809 1161.38 240.459 1162.01 237.012C1162.55 234.148 1165.12 232.108 1167.98 232.303C1168.36 230.749 1168.32 229.244 1167.68 227.69C1167.35 226.913 1167.54 225.894 1167.64 225.02C1167.73 224.097 1167.73 223.369 1166.96 222.689C1166.62 222.398 1166.42 221.912 1166.33 221.524C1165.79 218.902 1165.94 216.28 1166.86 213.756C1167.05 213.27 1167.59 212.785 1168.07 212.542C1171.32 210.988 1174.67 209.58 1178.21 208.901C1183.44 207.832 1188.58 208.561 1193.38 210.794C1196.1 212.056 1198.67 213.707 1201.33 215.164C1202.3 215.698 1202.84 216.426 1202.69 217.543C1202.4 219.291 1202.21 221.039 1201.72 222.738C1201.48 223.563 1201.33 224.194 1201.87 224.923C1203.13 226.719 1203.37 228.661 1202.79 230.749C1202.59 231.477 1202.21 232.205 1201.87 232.885C1201.57 233.468 1201.19 233.953 1200.9 234.487C1202.01 235.41 1203.03 236.284 1204.05 237.061C1205.16 237.935 1205.7 239.197 1205.79 240.459C1205.89 242.547 1205.89 244.683 1205.07 246.674C1204.97 246.965 1204.73 247.305 1204.77 247.596C1205.21 250.655 1204 253.568 1203.81 256.287C1202.16 257.307 1200.65 258.278 1198.76 259.492C1200.8 259.977 1202.4 260.463 1203.61 261.677C1204.73 262.793 1205.99 263.764 1207.1 264.881C1208.85 266.677 1211.08 267.746 1213.31 268.619C1217.57 270.319 1221.7 272.358 1225.62 274.737C1227.32 275.757 1229.21 276.388 1231 277.116C1235.27 278.864 1239.54 280.563 1243.76 282.311C1244.58 282.651 1245.36 283.185 1246.03 283.573C1247.78 283.185 1249.43 282.797 1251.17 282.408C1250.88 281.34 1250.35 280.515 1249.33 279.884C1247.68 278.815 1246.71 277.213 1246.03 275.368C1245.5 273.912 1244.87 272.455 1244.19 271.047C1243.76 270.173 1243.56 269.445 1243.8 268.425C1244 267.746 1243.8 266.872 1243.51 266.192C1243.03 265.075 1242.35 264.056 1241.62 262.842C1240.7 263.23 1240.07 262.599 1239.54 261.677C1238.86 260.463 1238.08 259.346 1237.26 258.084C1236.14 259.055 1235.9 260.269 1235.51 261.434C1235.13 262.502 1234.93 263.667 1234.4 264.735C1233.14 260.414 1234.35 256.287 1235.76 252.355C1237.21 248.276 1240.51 245.606 1244.34 243.712C1245.11 239.197 1250.69 232.254 1254.86 230.895C1254.71 231.574 1254.71 232.108 1254.52 232.594C1253.74 234.39 1252.87 236.187 1252.05 237.983C1251.71 238.711 1251.37 239.44 1252.34 240.119C1253.06 239.537 1253.79 238.906 1254.57 238.274C1254.95 237.935 1255.34 237.546 1255.78 237.255C1257.43 236.09 1259.08 234.973 1260.48 233.419C1261.89 231.866 1263.92 231.283 1265.86 230.7C1267.56 230.166 1269.26 229.778 1271 229.292C1271.29 229.195 1271.63 229.244 1271.97 229.244C1272.17 230.263 1271.68 230.895 1271 231.332C1269.74 232.205 1269.5 233.516 1268.92 234.924C1270.76 235.604 1272.6 234.73 1274.3 235.653C1273.86 237.255 1272.31 237.643 1271.39 238.809C1272.36 239.44 1273.33 240.071 1274.3 240.702C1275.95 241.819 1276.72 243.324 1276.77 245.363C1276.82 247.111 1277.01 248.859 1277.16 250.752C1276.82 250.752 1276.34 250.801 1275.8 250.849C1276.24 253.034 1276.68 255.219 1277.16 257.55C1278.57 258.035 1279.49 259.297 1279.63 260.948C1279.83 262.648 1281.18 263.424 1282.45 264.541C1280.85 266.192 1279.88 268.134 1279.05 270.173C1278.86 270.659 1278.28 271.047 1277.84 271.435C1276.38 272.649 1276.14 274.203 1276.58 275.902C1277.26 278.427 1278.13 280.952 1278.76 283.476C1279.29 285.516 1279.63 287.603 1280.07 289.691C1281.52 289.691 1282.64 287.7 1284.19 289.157C1286.47 287.458 1289.14 287.215 1291.71 286.875C1292.92 286.729 1294.32 287.506 1295.58 288.04C1296.02 288.234 1296.31 288.914 1296.55 289.4C1296.8 290.031 1296.94 290.759 1297.14 291.633C1297.77 291.682 1298.4 291.827 1299.03 291.73C1301.69 291.293 1303.87 292.41 1306.1 293.575C1309.11 295.177 1311.58 297.459 1314.01 299.741C1317.69 303.286 1321.23 307.024 1324.92 310.568C1326.18 311.782 1327.78 312.656 1329.23 313.627C1336.07 318.045 1343.05 322.318 1349.79 326.833C1352.45 328.63 1354.78 330.863 1356.77 333.436C1358.03 335.087 1359.44 336.641 1360.79 338.292C1359.97 341.205 1359.15 344.021 1358.27 346.837C1358.08 347.516 1357.69 348.148 1357.21 348.682C1355.32 350.867 1353.47 353.051 1351.49 355.188C1350.66 356.062 1349.64 356.838 1348.62 357.518C1344.07 360.48 1339.27 363.15 1335.29 366.937C1333.35 368.782 1331.56 370.821 1329.76 372.861C1329.18 373.54 1328.94 374.463 1328.41 375.482C1330.35 377.376 1332.29 379.269 1334.27 381.163C1337.33 380.435 1339.8 381.309 1341.55 383.882C1343.34 386.504 1345.09 389.125 1346.69 391.796C1347.36 392.961 1347.8 394.321 1348.14 395.631C1348.43 396.797 1348.04 397.865 1346.73 398.253C1346.73 398.884 1346.93 399.564 1346.69 400.05C1346.39 400.584 1345.72 400.875 1345.13 401.312C1345.42 402.38 1345.13 403.303 1344.16 404.128C1343.15 405.002 1342.37 406.167 1341.4 407.284C1342.47 408.303 1343.49 409.275 1344.5 410.246C1347.56 413.159 1349.06 416.946 1350.37 420.83C1350.9 422.335 1350.37 423.16 1348.82 423.694C1348.24 423.889 1347.61 423.986 1346.64 424.229C1352.02 432.579 1357.55 440.542 1362.88 448.796C1362.35 449.524 1361.81 450.252 1361.23 451.078C1363.12 454.137 1365.06 457.195 1367 460.303C1366.08 461.079 1365.3 461.808 1364.53 462.439C1363.65 463.167 1363.07 463.993 1363.9 465.109C1363.36 465.643 1362.93 466.177 1362.44 466.614C1361.57 467.391 1360.99 468.168 1361.18 469.479C1361.28 470.013 1360.89 470.79 1360.5 471.227C1359.44 472.441 1358.27 473.606 1357.01 474.723C1355.36 476.179 1355.07 476.131 1353.42 474.334C1352.7 474.771 1351.92 475.208 1350.9 475.791C1349.79 473.703 1348.67 471.664 1347.56 469.576C1347.12 468.702 1346.44 468.071 1345.67 467.44C1344.7 466.663 1344.12 465.401 1343.39 464.332C1343.29 464.235 1343.34 463.896 1343.44 463.798C1344.36 463.022 1343.58 462.342 1343.24 461.711C1339.07 453.894 1334.86 446.077 1330.69 438.26C1330.54 438.017 1330.49 437.726 1330.3 437.58C1330.01 437.289 1329.52 436.901 1329.23 436.949C1328.8 437.046 1328.31 437.435 1328.16 437.823C1327.58 439.571 1327.2 441.367 1326.56 443.115C1324.53 448.747 1322.15 454.234 1318.66 459.137C1318.27 459.671 1317.84 460.254 1317.3 460.497C1315.75 461.274 1314.93 462.585 1314.44 464.09C1312.89 468.896 1311.39 473.752 1309.89 478.607C1309.01 481.374 1309.21 484.239 1309.5 487.006C1309.79 489.725 1310.61 492.396 1311.49 495.017C1312.41 497.639 1313.81 500.018 1314.78 502.591C1316.58 507.398 1318.23 512.253 1319.97 517.06C1320.07 517.303 1320.07 517.594 1320.17 517.837C1321.67 522.109 1320.99 526.188 1319.24 530.217C1318.18 532.742 1317.35 535.413 1316.38 537.986C1315.61 539.976 1316.43 541.724 1317.06 543.521C1317.21 543.958 1318.08 544.249 1318.66 544.395C1321.77 545.026 1324.67 546.191 1327.49 547.599C1328.84 548.279 1329.76 549.347 1330.4 550.658C1330.78 551.58 1331.17 552.406 1332.19 552.843C1333.21 553.328 1333.59 554.251 1333.45 555.416C1333.3 557.309 1333.06 559.154 1332.14 560.902C1330.88 563.33 1329.76 565.855 1328.55 568.428C1327 567.991 1326.37 568.962 1325.64 569.982C1322.78 573.914 1322.78 578.138 1324.29 582.557C1324.38 582.848 1324.53 583.333 1324.72 583.382C1326.18 583.867 1326.23 585.227 1326.66 586.489C1325.79 586.781 1325.45 587.412 1325.6 588.286C1325.74 589.597 1324.87 591.053 1326.32 592.121C1326.18 593.335 1326.08 594.549 1325.93 595.908C1325.21 595.86 1324.67 595.811 1323.95 595.763C1323.22 597.025 1322.44 598.287 1321.67 599.647C1322.01 600.132 1322.4 600.666 1322.88 601.395C1321.72 602.269 1320.6 603.191 1319.39 603.919C1318.86 604.211 1317.98 604.114 1317.3 604.065C1316.38 604.016 1315.51 603.822 1314.4 603.677C1314.44 604.259 1314.44 604.599 1314.49 604.988C1314.64 605.91 1314.25 606.638 1313.43 606.881C1312.41 607.172 1312.21 607.852 1311.97 608.726C1311.58 610.328 1311.24 611.979 1310.52 613.436C1308.67 617.126 1306.64 620.767 1303.1 623.195C1302.27 623.729 1301.6 624.457 1300.82 625.088C1299.61 626.156 1298.11 626.302 1296.6 626.593C1293.21 627.224 1289.81 627.176 1286.47 626.059C1284.43 625.379 1282.45 624.603 1280.89 622.903C1280.17 622.126 1278.95 621.835 1277.98 621.35C1277.21 621.01 1276.43 620.67 1275.8 620.427C1276.24 617.999 1276.68 615.717 1277.01 613.436C1277.21 612.319 1277.6 611.299 1278.42 610.474C1278.81 610.085 1279.15 609.697 1279.39 609.26C1280.21 607.658 1281.57 606.881 1283.17 606.347C1284.77 605.861 1285.94 604.793 1286.71 603.385C1288.41 600.181 1290.06 596.976 1291.71 593.772C1291.9 593.432 1292.09 593.044 1292.09 592.655C1292.19 589.985 1292.24 587.315 1292.24 584.596C1292.29 581.1 1292.34 577.653 1292.19 574.157C1292.09 571.924 1291.61 569.739 1291.27 567.554C1291.22 567.214 1291.08 566.923 1291.08 566.583C1291.12 563.281 1290.11 560.223 1289.28 557.115C1288.7 554.93 1288.02 552.794 1287.63 550.609C1287.34 549.007 1286.52 548.23 1285.11 547.696C1281.86 546.482 1278.61 545.269 1275.32 544.055C1272.65 543.084 1270.03 542.064 1267.37 541.093C1265.96 540.559 1265.28 539.539 1265.43 538.083C1265.52 537.306 1265.67 536.529 1265.82 535.752C1265.86 535.413 1266.01 535.121 1266.11 534.927C1270.28 533.47 1274.35 533.665 1278.47 535.073C1278.57 534.976 1278.61 534.83 1278.71 534.733C1277.89 533.47 1277.21 532.062 1276.14 530.994C1273.82 528.615 1271.29 526.382 1268.82 524.148C1268.34 523.712 1267.56 523.372 1266.88 523.372C1262.71 523.372 1259.08 521.818 1255.78 519.39C1254.18 518.177 1252.48 517.06 1251.42 515.166C1250.54 513.661 1250.06 512.156 1249.86 510.408C1249.04 503.514 1247.97 496.62 1247.05 489.725C1246.57 486.035 1246.03 482.297 1245.65 478.607C1245.4 476.616 1244.97 474.771 1243.37 473.363C1242.79 472.878 1242.4 472.149 1242.06 471.421C1240.17 467.197 1238.96 462.73 1238.37 458.166C1238.08 455.982 1238.33 453.7 1238.33 451.709C1237.21 450.884 1236.39 450.301 1235.37 449.573C1236.14 447.097 1236.63 444.62 1237.65 442.387C1238.37 440.785 1239.54 439.183 1241.77 439.28C1242.35 439.328 1242.93 439.134 1243.61 439.037C1244.05 437.532 1243.8 435.978 1243.56 434.424C1243.13 431.851 1243.17 429.326 1243.56 426.753C1243.76 425.539 1243.71 424.52 1242.49 423.889C1240.46 422.821 1240.6 420.878 1240.99 419.228C1241.72 416.412 1242.98 413.838 1245.55 411.896C1245.31 407.867 1244.97 403.74 1243.08 399.953C1242.2 398.156 1241.62 396.36 1241.62 394.321C1241.62 392.767 1241.96 391.505 1242.79 390.291C1243.17 389.757 1243.46 389.174 1243.95 388.446C1243.13 387.475 1242.3 386.504 1241.43 385.533C1240.85 384.901 1240.41 384.27 1240.36 383.299C1240.31 380.289 1240.22 377.279 1239.97 374.269C1239.68 371.064 1239.39 367.86 1238.76 364.704C1238.03 360.965 1237.11 357.275 1236 353.634C1235.03 350.43 1233.77 347.322 1232.56 344.166C1231.59 341.642 1231.54 341.69 1232.41 339.02C1231.2 337.321 1229.99 335.573 1228.58 333.631C1227.46 335.912 1227.13 338.146 1226.69 340.379C1226.16 343.244 1225.57 346.06 1225.19 348.924C1224.85 351.595 1224.8 354.314 1224.6 356.984C1224.46 359.266 1224.41 361.596 1224.17 363.878C1224.02 365.141 1223.34 366.403 1223.1 367.665C1222.86 368.782 1222.71 369.996 1222.76 371.161C1222.91 373.395 1223.2 375.579 1223.44 377.91C1222.18 378.298 1222.18 379.172 1222.42 380.24C1224.65 389.902 1227.51 399.273 1232.9 407.721C1233.09 408.061 1233.28 408.401 1233.48 408.74C1233.86 409.469 1233.57 410.051 1232.94 410.44C1232.41 410.78 1231.73 411.12 1231.1 411.12C1229.5 411.071 1228.19 411.848 1226.83 412.479C1226.25 412.77 1225.77 413.207 1225.33 413.693C1224.02 415.052 1222.76 416.217 1220.58 415.732C1219.47 415.489 1218.3 415.683 1216.9 415.683C1217.72 417.868 1218.54 419.859 1219.22 421.898C1219.85 423.743 1220.43 425.637 1220.82 427.579C1221.07 428.744 1221.55 429.278 1222.67 429.521C1224.6 429.958 1226.5 430.54 1227.95 431.948C1228.24 432.24 1228.58 432.677 1228.58 433.065C1228.58 435.104 1228.29 437.143 1228.39 439.183C1228.48 441.076 1227.85 442.387 1225.82 442.824C1225.67 445.591 1225.48 448.262 1225.38 450.932C1225.28 452.971 1225.23 455.01 1225.23 457.05C1225.23 458.021 1224.94 458.603 1223.97 458.943C1221.6 459.769 1219.51 461.031 1218.06 463.216C1216.6 465.401 1214.91 467.391 1213.31 469.528C1212.92 470.062 1212.68 470.693 1212.39 471.275C1211.17 473.557 1211.47 475.888 1212.29 478.17C1212.68 479.286 1212.73 480.355 1212.34 481.423C1211.71 483.219 1211.13 485.064 1210.3 486.763C1209.72 488.026 1209.67 489.045 1210.35 490.259C1212.29 493.901 1214.13 497.639 1216.12 501.281C1216.99 502.834 1217.28 504.291 1217.14 506.136C1216.9 509.097 1216.07 511.768 1214.96 514.438C1214.76 514.875 1214.57 515.506 1214.67 515.943C1215.15 517.448 1215.15 519.002 1215.25 520.507C1215.25 520.896 1215.3 521.332 1215.1 521.624C1214.18 523.08 1214.28 524.78 1214.08 526.382C1213.99 527.11 1214.37 527.887 1214.67 528.615C1215.34 530.654 1216.12 532.694 1216.75 534.442C1215.05 537.743 1212.24 538.083 1209.19 538.18C1208.27 541.676 1207.34 545.074 1206.42 548.473C1206.13 549.59 1205.84 550.755 1205.6 551.92C1205.45 552.503 1205.21 553.085 1205.26 553.668C1205.45 556.144 1205.21 558.62 1205.99 561.048C1206.42 562.407 1206.08 564.01 1205.84 565.515C1205.7 566.534 1204.92 567.263 1203.71 567.068C1203.42 567.02 1203.08 567.117 1202.84 567.166C1201.09 570.37 1201.67 573.477 1202.59 576.633C1202.69 577.022 1203.17 577.507 1203.51 577.507C1204.53 577.653 1204.92 578.333 1205.31 579.109C1207.34 582.993 1209.91 586.635 1211.27 590.859C1211.66 592.073 1211.9 593.384 1212.34 594.597C1212.53 595.18 1212.82 595.811 1213.26 596.297C1214.62 597.802 1215.83 599.404 1216.56 601.346C1216.8 602.074 1217.43 602.657 1217.87 603.337C1218.79 604.793 1219.42 606.347 1219.37 608.143C1219.32 609.454 1219.27 610.765 1219.42 612.076C1219.56 613.581 1219.17 614.601 1217.72 615.232C1217.09 615.475 1216.51 616.057 1216.12 616.591C1214.23 619.31 1211.47 620.67 1208.41 621.35C1202.88 622.515 1197.41 621.787 1192.02 620.281C1189.99 619.699 1188.53 618.194 1187.27 616.543C1185.82 614.649 1184.41 612.756 1183.1 610.814C1182.04 609.212 1180.53 608.338 1178.74 608.046C1174.86 607.415 1170.98 606.735 1167.05 606.396C1160.56 605.813 1154.59 607.415 1148.58 609.454C1146.93 609.988 1145.09 609.94 1143.35 610.086C1141.99 610.183 1141.99 610.134 1140.73 610.911C1144.7 611.93 1148.39 612.999 1151.59 615.183C1154.74 617.368 1158.18 619.116 1160.85 621.932C1160.8 622.078 1160.75 622.223 1160.7 622.418C1159.88 622.321 1159.05 622.369 1158.33 622.175C1156.24 621.641 1154.16 621.107 1152.07 620.476C1151.01 620.184 1150.04 620.233 1148.97 620.379C1147.52 620.621 1145.96 620.767 1144.51 620.524C1141.07 619.893 1137.63 619.796 1134.13 620.233C1131.9 620.524 1129.53 620.33 1127.3 619.99C1124.83 619.602 1122.45 618.825 1120.03 618.145C1117.84 617.562 1115.95 616.3 1114.21 614.941C1111.06 612.465 1107.47 611.493 1103.59 611.299C1098.31 611.057 1093.12 611.639 1087.88 612.465C1085.02 612.95 1082.16 613.241 1079.3 613.727C1078.33 613.873 1077.41 614.212 1076.49 614.504C1075.03 614.989 1073.53 615.329 1072.08 614.552C1069.41 613.047 1066.35 612.707 1063.54 611.591C1059.62 610.037 1057.77 606.978 1057.05 603.094C1056.85 602.074 1056.71 601.006 1056.51 599.987C1056.37 599.258 1055.93 598.87 1055.11 598.967C1054.52 599.064 1053.89 598.967 1053.36 599.161C1050.16 600.229 1046.96 601.395 1043.76 602.463C1041.63 603.143 1039.5 603.677 1037.36 604.259C1036.49 604.502 1035.52 604.696 1034.84 605.23C1032.51 607.027 1029.85 607.027 1027.18 606.735C1024.08 606.396 1020.97 605.813 1017.82 605.522C1015.93 605.376 1014.04 605.57 1012.15 605.667C1011.62 605.667 1011.13 605.861 1010.6 605.959C1008.95 606.153 1007.4 606.056 1005.94 605.036C1002.79 602.803 999.496 600.715 996.345 598.53C994.939 597.559 993.581 596.539 992.321 595.423C990.381 593.772 988.006 592.995 985.63 592.218C984.273 591.733 982.915 591.83 981.557 592.218C981.073 592.461 979.957 592.801 978.309 592.51ZM1135.78 592.655C1138.45 593.918 1141.12 594.84 1144.07 594.986C1146.64 595.083 1149.16 595.083 1151.73 595.18C1154.89 595.277 1157.7 594.792 1160.36 593.092C1162.74 591.587 1165.16 590.131 1167.88 589.257C1171.85 587.946 1175.93 587.363 1180.1 587.509C1182.52 587.606 1184.95 587.752 1187.37 587.849C1187.76 587.849 1188.19 587.654 1188.58 587.557C1188.53 586.538 1187.61 585.81 1188.34 584.79C1188.92 584.013 1189.26 583.091 1189.5 582.168C1190.42 578.527 1191.3 574.885 1192.12 571.244C1192.41 569.884 1192.51 568.428 1192.65 567.068C1190.62 566.389 1190.47 566.195 1190.42 564.35C1190.42 563.573 1190.38 562.747 1190.42 561.97C1190.47 561.582 1190.52 560.999 1190.76 560.902C1192.22 560.126 1192.07 559.252 1191.05 558.183C1190.76 557.892 1190.81 557.309 1190.71 556.873C1190.52 555.659 1190.33 554.396 1190.13 553.183C1190.04 552.648 1189.84 552.017 1190.04 551.677C1190.57 550.706 1190.28 549.735 1190.18 548.764C1189.89 546.531 1189.36 544.346 1189.11 542.161C1188.87 540.074 1188.1 538.083 1188.44 535.947C1188.48 535.655 1187.9 535.121 1187.47 534.927C1185.96 534.247 1184.46 533.616 1182.91 533.131C1181.55 532.694 1180.82 531.917 1180.73 530.509C1180.68 529.975 1180.53 529.489 1180.48 528.955C1180.29 526.43 1181.79 524.585 1183.1 522.74C1183.78 521.818 1183.98 520.944 1183.88 519.827C1183.78 518.808 1183.78 517.74 1184.07 516.769C1184.31 515.846 1184.36 515.166 1183.83 514.39C1182.52 512.447 1181.26 510.408 1179.95 508.369C1180.53 507.01 1181.11 505.602 1181.7 504.194C1183.54 500.067 1184.9 495.891 1185.24 491.376C1185.38 489.677 1185.67 488.026 1186.59 486.521C1187.22 485.453 1187.66 484.287 1188.24 483.074C1188 482.782 1187.81 482.442 1187.51 482.2C1186.16 481.083 1185.38 479.626 1184.75 477.976C1184.31 476.81 1184.41 475.888 1185.04 474.82C1185.87 473.46 1186.59 472.004 1187.32 470.596C1186.59 469.916 1186.06 469.333 1185.43 468.799C1184.65 468.168 1184.36 467.343 1184.31 466.372C1184.22 463.264 1184.07 460.206 1183.88 457.147C1183.68 454.137 1183.78 451.078 1183.2 448.116C1182.13 442.97 1180.68 437.92 1179.37 432.822C1179.27 432.434 1179.18 432.045 1178.93 431.754C1177.43 429.861 1175.88 428.016 1174.47 426.316C1171.52 426.268 1169.53 427.724 1167.59 429.375C1160.99 434.861 1154.11 439.911 1146.35 443.601C1142.76 445.3 1139.61 447.339 1137.77 451.029C1136.85 452.826 1135.15 453.311 1133.5 453.311C1132.2 453.311 1131.76 453.894 1131.37 454.865C1131.56 455.108 1131.71 455.35 1131.95 455.496C1133.84 456.661 1134.47 458.361 1134.38 460.497C1134.33 461.128 1134.62 461.808 1134.91 462.342C1136.17 464.721 1137.43 467.1 1138.74 469.479C1140.44 472.538 1141.7 475.742 1142.96 478.947C1141.89 480.16 1140.92 481.326 1139.9 482.442C1139.42 482.976 1139.23 483.462 1139.27 484.19C1139.37 485.695 1139.32 487.2 1139.37 488.706C1139.42 490.308 1139.42 491.861 1138.16 493.027C1138.4 493.609 1138.64 494.095 1138.79 494.58C1138.93 495.114 1138.98 495.746 1139.08 496.28C1141.02 496.911 1141.12 497.057 1140.87 499.047C1140.68 500.552 1140.29 502.009 1140.15 503.514C1140 504.873 1139.32 505.796 1138.06 506.087C1135.49 506.621 1134.33 508.175 1134.18 510.7C1134.18 511.137 1133.99 511.574 1133.89 512.156C1134.96 512.593 1135.3 513.419 1135.01 514.487C1134.33 517.011 1134.52 519.73 1133.02 522.012C1132.87 522.255 1132.87 522.643 1132.87 522.983C1132.78 525.411 1132.63 527.838 1132.68 530.266C1132.73 531.82 1132.44 532.985 1130.55 533.228C1130.35 535.947 1130.11 538.568 1129.96 541.142C1129.77 544.832 1129.72 548.473 1128.8 552.114C1128.61 552.794 1128.61 553.62 1128.9 554.202C1130.01 556.775 1129.43 559.252 1128.36 561.631C1127.49 563.524 1126.47 565.369 1125.55 567.263C1125.41 567.603 1125.21 567.991 1125.17 568.331C1125.02 569.496 1124.97 570.613 1124.87 571.778C1125.8 572.021 1126.81 572.118 1127.64 572.603C1132.68 575.274 1136.61 580.42 1136.22 586.975C1136.17 588.868 1135.98 590.713 1135.78 592.655ZM1341.01 340.039C1339.7 339.651 1338.49 339.505 1337.47 339.02C1334.32 337.466 1331.12 335.864 1328.12 334.019C1324.33 331.737 1320.8 329.164 1317.06 326.785C1314.69 325.28 1312.21 323.872 1309.84 322.367C1308.72 321.687 1307.51 321.541 1306.54 322.367C1304.46 324.017 1302.27 325.668 1300.48 327.659C1298.74 329.601 1297.43 331.931 1296.07 334.213C1294.66 336.592 1294.57 339.311 1294.57 341.981C1294.57 342.758 1294.47 343.487 1294.32 344.263C1294.18 344.943 1293.89 345.623 1293.6 346.303C1292.77 348.439 1291.85 350.527 1291.03 352.711C1290.64 353.731 1290.25 354.799 1290.15 355.867C1289.91 358.052 1290.74 359.169 1292.82 359.849C1293.64 360.091 1294.42 360.431 1295.24 360.674C1296.99 361.111 1298.3 361.985 1298.93 363.83C1299.27 364.898 1300.14 365.384 1301.4 365.432C1302.71 365.529 1304.02 365.772 1305.23 366.257C1306.4 366.743 1307.8 366.889 1308.67 368.005C1309.94 369.608 1311.29 371.113 1312.46 372.812C1313.28 373.977 1314.25 375.288 1314.44 376.599C1314.78 378.59 1316.19 379.706 1317.16 381.211C1317.01 379.949 1316.87 378.687 1316.38 377.57C1315.61 375.531 1315.61 373.637 1316.58 371.695C1317.21 370.433 1317.79 369.073 1318.61 367.908C1319.68 366.452 1320.99 365.141 1322.2 363.733C1325.55 359.703 1328.7 355.43 1332.29 351.595C1335.58 348.002 1338.25 343.972 1341.01 340.039ZM1285.21 436.561C1285.06 436.561 1284.92 436.561 1284.72 436.561C1284.29 439.377 1283.61 442.193 1283.46 445.057C1283.17 450.155 1282.4 455.253 1281.48 460.254C1280.6 465.158 1279.39 470.013 1278.42 474.917C1277.89 477.539 1277.31 480.209 1277.16 482.879C1277.06 485.016 1276.68 487.006 1275.75 488.948C1275.32 489.871 1274.98 490.939 1274.49 491.813C1273.43 493.706 1273.57 495.697 1273.77 497.785C1275.22 498.367 1276.63 498.659 1278.08 498.416C1282.11 497.688 1285.89 498.367 1289.57 500.018C1290.06 500.261 1290.59 500.358 1291.17 500.504C1289.91 494.823 1288.84 489.288 1287.49 483.802C1286.42 479.432 1285.55 475.111 1285.21 470.644C1285.11 469.722 1285.11 468.799 1285.26 467.925C1285.84 463.653 1286.57 459.38 1286.52 455.01C1286.52 453.845 1286.66 452.631 1286.47 451.515C1285.55 446.514 1285.16 441.562 1285.21 436.561ZM1116.63 280.029C1117.46 279.01 1117.55 278.281 1116.78 277.359C1112.17 272.309 1107.66 267.211 1103.11 262.114C1102.86 261.822 1102.52 261.677 1102.23 261.434C1101.6 261.871 1101.12 262.259 1100.58 262.648C1099.91 262.356 1099.32 262.065 1098.69 261.774C1098.64 261.822 1098.6 261.919 1098.55 261.968C1099.57 263.327 1100.58 264.687 1101.36 265.658C1102.14 265.755 1102.72 265.658 1102.86 265.852C1103.59 266.872 1104.27 267.94 1104.75 269.056C1105.43 270.513 1105.87 272.115 1106.5 273.62C1108.15 277.65 1111.1 281.292 1110.62 286.05C1111.59 287.555 1110.96 288.914 1110.23 290.371C1112.22 293.235 1114.16 296.1 1116.24 299.11C1116.58 298.625 1116.73 298.43 1116.83 298.188C1117.5 296.246 1118.38 294.401 1119.93 293.041C1120.17 292.847 1120.37 292.458 1120.37 292.216C1120.12 290.079 1120.61 288.04 1121.19 286.05C1121.48 285.079 1121.09 284.447 1120.46 283.768C1119.15 282.602 1117.99 281.389 1116.63 280.029ZM1168.12 596.2C1169.53 596.734 1170.79 597.316 1172.15 597.705C1173.02 597.948 1173.99 598.142 1174.86 598.045C1178.59 597.705 1181.99 596.491 1185.14 594.452C1186.59 593.481 1187.22 592.073 1187.9 590.519C1182.57 590.471 1170.88 592.947 1168.12 596.2ZM1123.18 273.378C1119.3 266.677 1113.67 261.628 1108.83 255.705C1108.29 256.142 1107.95 256.481 1107.47 256.87C1109.65 259.346 1111.74 261.725 1113.77 264.056C1116.39 267.066 1119.06 270.076 1121.67 273.086C1122.06 273.523 1122.3 274.057 1123.18 273.378ZM1345.33 422.092C1346.88 421.364 1346.44 420.247 1346.3 419.47C1345.81 416.217 1344.31 413.45 1342.03 411.362C1340.87 411.654 1339.95 411.896 1338.83 412.188C1341.06 415.586 1343.19 418.791 1345.33 422.092ZM1094.09 543.035C1095.98 538.86 1098.4 535.218 1099.66 530.606C1097.72 532.062 1096.32 533.373 1095.35 535.121C1094.91 535.898 1094.28 536.626 1093.55 537.16C1092.34 538.083 1091.66 539.248 1091.18 540.656C1092.1 541.433 1092.97 542.113 1094.09 543.035ZM1202.64 252.646C1201.43 253.083 1200.46 253.423 1199.44 253.763C1198.08 254.248 1197.41 253.18 1196.44 252.209C1196.34 253.568 1196.24 254.588 1196.19 255.608C1196.19 255.947 1196.24 256.239 1196.24 256.53C1197.84 257.307 1197.94 257.355 1198.76 256.724C1199.93 255.802 1201.09 254.831 1202.21 253.811C1202.5 253.568 1202.54 253.034 1202.64 252.646ZM1072.8 216.669C1073.24 217.931 1076.29 221.573 1078.43 223.369C1078.72 223.078 1079.01 222.786 1079.3 222.447C1078.18 221.136 1077.36 219.922 1076.29 218.999C1075.28 218.028 1074.02 217.397 1072.8 216.669ZM1228.1 321.832C1228.24 321.832 1228.34 321.784 1228.48 321.784C1229.31 317.997 1230.13 314.161 1230.96 310.374C1229.65 313.627 1228.73 316.977 1227.85 320.376C1227.76 320.813 1228.05 321.347 1228.1 321.832ZM1107.08 277.068C1106.94 277.116 1106.79 277.213 1106.6 277.262C1107.27 279.447 1108.05 281.583 1109.65 283.379C1108.83 281.292 1107.95 279.155 1107.08 277.068ZM1337.96 410.246C1339.12 410.391 1340.09 410.488 1341.01 410.585C1341.06 410.488 1341.11 410.44 1341.16 410.343C1340.14 409.711 1339.07 409.08 1337.76 408.255C1337.86 409.129 1337.91 409.663 1337.96 410.246ZM1281.77 290.662C1281.81 290.808 1281.81 291.002 1281.86 291.148C1282.35 291.05 1282.83 291.002 1283.32 290.905C1283.27 290.711 1283.27 290.565 1283.22 290.371C1282.74 290.468 1282.25 290.565 1281.77 290.662Z" fill="#001E82"/>
<circle r="37.5" transform="matrix(1 0 0 -1 107.5 156.5)" fill="#FFC516"/>
<circle r="17.9628" transform="matrix(1 0 0 -1 210.963 221.963)" fill="#001E82"/>
<circle r="21" transform="matrix(1 0 0 -1 845 371)" fill="#001E82"/>
<circle r="14.5" transform="matrix(1 0 0 -1 859.5 381.5)" fill="#FFC516"/>
</g>
<defs>
<radialGradient id="paint0_radial" cx="0" cy="0" r="1" gradientUnits="userSpaceOnUse" gradientTransform="translate(1098 392) rotate(90) scale(564 595)">
<stop stop-color="#5371D7"/>
<stop offset="1" stop-color="#001E82"/>
</radialGradient>
<clipPath id="clip0">
<rect width="1366" height="382" fill="white"/>
</clipPath>
</defs>
</svg>
