<svg width="593" height="390" viewBox="0 0 593 390" fill="none" xmlns="http://www.w3.org/2000/svg">
<mask id="mask0" mask-type="alpha" maskUnits="userSpaceOnUse" x="0" y="0" width="593" height="390">
<rect width="593" height="390" fill="#229FFF"/>
</mask>
<g mask="url(#mask0)">
<ellipse cx="491.5" cy="390" rx="385.5" ry="386" fill="#F4D400"/>
<path d="M147.017 469.54C148.082 469.031 149.886 468.846 149.331 466.579C149.285 466.348 149.609 465.885 149.84 465.654C152.2 463.571 153.403 461.351 151.83 458.112C151.414 457.233 151.645 455.752 152.061 454.781C152.894 452.884 152.617 450.292 155.301 449.598C154.607 447.193 153.912 444.925 153.172 442.381C154.792 442.936 155.856 443.306 156.504 443.491C156.874 440.16 157.059 437.106 157.568 434.099C157.707 433.219 158.91 432.525 159.697 431.785C160.021 431.461 160.484 431.323 160.9 431.091C159.743 429.379 161.825 429.055 162.242 428.037C163.862 424.012 167.008 420.496 166.129 415.684C165.944 414.758 167.055 413.648 166.916 412.723C166.314 409.299 167.564 405.967 168.304 402.914C169.091 399.768 168.535 397.038 168.397 394.123C168.397 393.66 168.813 393.151 168.906 392.689C169.044 391.856 169.507 390.745 169.137 390.283C168.073 388.848 168.443 387.784 169.553 386.674C169.739 386.489 169.739 386.118 169.739 385.795C169.692 383.62 169.415 381.445 169.553 379.271C169.6 378.299 170.525 377.42 171.173 376.31C170.386 376.217 169.739 376.171 169.183 376.124C168.489 374.042 171.59 371.729 168.443 369.739C171.219 368.583 170.572 366.408 170.525 364.187C170.479 361.828 170.988 359.468 171.266 357.293C172.885 356.877 174.088 356.553 175.708 356.137C173.302 354.378 174.459 353.083 175.662 351.649C176.541 352.019 177.281 353.731 178.485 351.834C178.716 351.464 180.752 351.88 181.678 352.389C183.621 353.453 185.287 354.147 187.184 352.296C188.434 351.093 189.359 352.574 190.377 353.129C190.84 353.407 191.349 354.147 191.673 354.055C193.015 353.731 194.218 352.944 195.56 352.805C197.319 352.574 197.735 351.602 198.105 350.122C199.123 346.281 200.419 342.487 201.437 338.647C201.576 338.046 200.789 337.259 200.743 336.519C200.651 334.946 200.743 333.373 200.836 331.846C200.882 331.337 201.206 330.828 201.16 330.319C201.113 329.671 200.789 329.07 200.558 328.468C200.003 328.792 199.447 329.162 199.031 329.394C198.846 327.82 198.614 326.016 198.429 324.211C198.198 324.119 197.92 324.073 197.689 323.98C197.319 324.674 196.949 325.322 196.578 326.016C196.208 326.71 195.838 327.45 195.375 328.422C195.051 327.82 194.681 327.497 194.727 327.219C195.051 324.026 195.236 320.741 195.792 317.595C196.486 313.847 197.55 310.192 198.429 306.491C200.928 295.988 203.473 285.485 205.926 274.936C206.713 271.558 207.453 268.134 208.193 264.757C208.332 264.063 208.193 263.322 207.962 262.582C201.761 268.551 197.782 276.046 192.691 283.357C191.719 280.303 192.09 277.99 193.015 275.815C195.051 271.003 197.319 266.237 199.494 261.472C199.771 260.917 200.142 260.408 200.327 259.852C200.465 259.39 200.373 258.881 200.419 258.372C199.956 258.372 199.447 258.279 198.985 258.326C197.087 258.603 195.19 258.973 193.293 259.251C193.247 259.02 193.154 258.788 193.108 258.557C194.959 257.446 196.856 256.336 198.707 255.133C202.594 252.635 205.926 249.627 208.055 245.463C208.286 245 208.61 244.352 209.026 244.167C211.988 242.918 213.608 240.605 214.718 237.69C215.135 236.626 215.875 235.608 216.662 234.729C218.976 231.999 219.207 228.668 219.716 225.336C219.809 224.827 220.04 224.365 220.364 223.347C220.549 224.596 220.642 225.336 220.78 226.308C222.122 224.781 223.279 223.393 224.621 221.774C223.742 219.969 222.261 217.887 224.251 215.481C226.056 215.944 227.028 214.88 227.444 213.168C227.907 211.317 229.017 210.392 231.1 210.577C230.637 208.541 230.267 206.505 229.712 204.562C229.064 202.063 230.313 200.259 231.609 198.362C232.257 197.39 232.627 196.187 232.905 195.031C233.784 191.051 233.46 187.026 232.951 183.047C232.858 182.307 232.719 181.474 232.396 180.826C230.868 177.772 229.295 174.811 227.629 171.573C226.981 173.562 226.241 175.737 225.547 177.958C224.76 180.502 224.39 183.325 222.03 184.99C220.086 186.378 219.855 188.414 219.346 190.496C218.837 192.44 217.449 194.151 216.477 196.002C216.153 196.557 215.875 197.159 215.644 197.668C213.33 197.714 211.063 197.529 209.258 199.75C207.916 201.416 205.648 201.693 203.566 201.924C202.733 202.017 201.9 202.387 201.067 202.526C199.031 202.804 196.902 203.544 195.051 203.127C193.293 202.711 191.997 202.989 190.655 203.868C189.498 204.654 188.48 205.58 187.323 206.32C185.611 207.384 186.768 208.911 186.722 210.16C186.675 210.808 187.138 211.456 187.323 212.104C187.601 212.196 187.832 212.289 188.11 212.427C186.305 213.677 184.5 214.88 182.788 216.083C181.724 214.695 180.984 213.677 180.197 212.659C179.364 211.641 178.3 211.595 177.189 212.242C173.302 214.417 169.368 216.545 165.574 218.859C164.926 219.275 164.741 220.571 164.556 221.496C164.139 223.393 163.121 224.087 161.224 223.532C160.715 223.393 160.067 223.162 159.697 223.393C156.689 224.92 153.82 224.688 150.812 222.56C147.064 228.76 141.603 232.184 134.107 233.248C135.726 236.256 137.207 239.078 138.734 241.9C145.398 254.208 152.108 266.515 158.818 278.776C164.417 289.048 170.016 299.273 175.662 309.544C177.837 313.524 177.837 313.524 173.579 315.374C173.163 315.559 172.747 315.744 172.099 316.022C170.063 312.367 168.026 308.804 166.037 305.149C158.401 291.269 150.812 277.434 143.176 263.554C138.41 254.809 133.644 246.018 128.924 237.273C128.044 235.654 127.304 234.544 125.037 235.284C123.139 235.932 121.334 235.376 120.178 233.248C119.807 232.508 118.697 231.86 117.864 231.721C113.884 231.12 113.884 231.212 114.347 227.141C114.393 226.909 114.301 226.678 114.301 226.4C112.959 225.29 109.719 226.123 110.09 223.208C110.321 221.403 111.663 219.738 112.496 218.072C110.923 217.841 109.303 217.795 107.822 217.286C107.128 217.054 106.202 215.666 106.388 215.25C107.359 212.936 107.683 210.207 110.275 208.818C111.848 207.986 112.311 207.06 111.2 205.163C106.202 196.881 101.39 188.507 96.5308 180.132C95.7442 178.79 95.0038 178.652 93.5692 179.207C88.8954 181.104 88.8028 181.104 85.6561 177.217C76.0308 165.511 66.313 153.898 56.9653 141.961C53.217 137.149 50.3017 131.643 46.9699 126.507C42.3886 119.428 37.7148 112.349 33.226 105.224C31.5601 102.633 30.4032 99.7179 28.6911 97.2194C24.9427 91.8061 22.2125 85.8374 18.7418 80.2853C15.5951 75.242 13.2813 69.7361 10.6899 64.369C8.97771 60.8989 7.26552 57.3825 5.83098 53.8198C4.8592 50.8586 4.11879 47.7124 3.14701 44.6587C1.43482 39.3841 2.08267 33.9245 2.31405 28.6036C2.49915 24.3007 3.79487 19.9977 4.58155 15.741C4.81293 15.741 5.0443 15.741 5.32195 15.741C6.01609 17.5455 6.66394 19.3962 7.40435 21.2007C9.39419 26.2439 11.384 31.2409 13.3739 36.2841C15.3637 41.3737 19.1583 45.1214 22.8141 48.9616C24.1098 50.3497 24.4337 51.5064 24.2486 53.6347C23.971 57.1049 24.5725 60.8989 25.7294 64.1839C27.673 69.551 30.2181 74.7331 32.9021 79.8226C34.059 81.9972 36.1414 83.7091 37.9924 85.421C40.3062 87.5494 42.9439 89.3538 45.1651 91.5747C46.7385 93.1941 47.9416 92.315 49.1448 91.5747C50.3017 90.8807 51.2272 89.9091 52.2453 89.03C53.9112 87.5956 54.9755 88.2897 55.901 89.9091C57.8446 93.4717 59.7419 97.0806 61.7317 100.597C62.7498 102.401 64.0918 104.021 65.0635 105.872C67.5161 110.545 69.6911 115.357 72.19 119.983C81.3988 136.871 90.6539 153.713 99.909 170.601C105.184 180.225 110.506 189.848 115.735 199.565C116.753 201.508 117.864 201.138 119.252 200.213C119.622 199.935 119.946 199.611 120.316 199.333C122.676 197.668 124.99 196.789 127.535 199.01C129.294 200.536 131.376 200.722 133.597 199.935C134.338 199.657 135.356 200.074 136.42 200.213C136.328 198.917 136.374 197.39 136.096 195.956C135.726 194.013 137.716 191.884 139.752 192.116C140.4 192.162 141.325 192.069 141.696 191.607C144.287 188.507 147.11 185.499 149.192 182.029C150.303 180.178 149.979 177.541 150.303 174.95C151.599 174.349 153.265 173.608 155.023 172.822C152.941 172.035 150.997 171.295 149.053 170.555C149.1 170.37 149.146 170.184 149.192 169.999C151.46 169.629 153.727 168.889 155.995 168.982C159.789 169.074 161.826 166.853 163.815 164.17C164.787 162.828 165.759 161.44 166.916 160.237C168.026 159.08 168.998 158.155 168.674 156.211C168.535 155.517 170.201 154.083 171.312 153.667C175.153 152.232 175.43 152.047 175.153 149.086C179.179 148.346 182.094 146.356 183.899 142.377C184.871 140.249 185.38 138.306 185.842 136.038C186.398 133.124 188.388 130.533 189.544 127.71C189.915 126.739 189.868 125.536 189.683 124.471C189.544 123.592 188.712 122.806 188.619 121.973C188.526 121.325 189.221 119.937 189.406 119.983C192.784 120.446 192.645 117.346 193.709 115.634C194.542 114.292 194.589 112.442 195.514 111.146C196.902 109.157 196.162 107.63 195.329 105.872C194.079 103.096 191.997 100.273 192.043 97.4508C192.09 92.4075 188.573 88.8912 187.74 84.3569C187.601 83.7091 186.351 83.0614 185.472 82.7837C178.114 80.4241 171.081 77.3704 165.157 72.2809C163.677 71.0316 162.473 69.4585 161.316 67.7928C169.461 72.4197 177.143 78.0644 187.138 77.0002C171.728 71.7719 157.892 64.8317 152.154 48.1751C152.293 47.99 152.478 47.8049 152.617 47.6199C156.596 50.8586 160.391 54.3288 164.556 57.2899C168.674 60.2511 173.07 62.8884 178.762 63.5824C178.068 62.1944 177.513 61.0377 176.911 59.881C177.004 59.7422 177.143 59.6496 177.235 59.5108C178.253 60.4362 179.318 61.3153 180.336 62.2406C182.279 63.9063 184.362 65.063 187.092 65.2018C192.228 65.4794 197.226 65.0167 202.178 63.2585C202.178 61.8705 202.178 60.575 202.178 59.0481C202.872 59.4645 203.335 59.7421 203.844 60.0198C204.214 59.2795 204.538 58.5854 204.954 57.7989C205.232 57.9377 205.51 58.0302 205.602 58.169C206.944 60.7601 208.795 61.6392 211.942 61.6392C214.394 61.6392 216.893 63.7675 219.346 65.0167C222.863 66.8212 225.038 65.9421 225.824 62.1481C226.333 59.6959 227.12 57.6601 229.249 55.9019C230.359 54.9765 230.545 52.7556 230.776 51.0437C231.007 49.193 230.73 47.296 230.868 45.399C231.054 43.4557 231.47 41.5587 231.794 39.6155C232.21 37.0244 232.396 34.2946 233.182 31.7961C234.247 28.3723 235.635 24.9484 237.254 21.7559C238.226 19.8589 243.64 20.2291 245.491 21.941C247.944 24.3007 250.536 26.3365 251.6 29.9454C252.34 32.4901 257.569 32.5364 259.096 29.9454C261.271 26.1977 263.215 22.2186 264.65 18.1007C268.953 5.56203 277.283 -0.0827017 290.703 2.69339C294.312 3.43369 297.69 5.7471 299.541 9.17095C302.41 14.4918 304.585 20.1365 304.493 26.2902C304.493 27.9096 304.122 29.6678 303.521 31.1946C301.253 36.7006 304.169 41.1423 310.092 41.4199C311.527 41.4662 312.961 42.299 314.997 42.993C313.285 44.5662 311.943 45.6766 310.74 46.8796C310.277 47.3423 309.861 47.99 309.814 48.5452C309.768 48.8228 310.694 49.1467 311.156 49.4706C313.378 50.9975 314.303 49.8407 315.136 47.8049C316.339 44.9826 320.041 43.0856 323.095 43.4557C325.039 43.6871 326.335 44.89 326.751 46.787C327.26 49.193 327.677 51.5989 328.047 54.0512C328.371 56.272 328.88 55.9482 330.962 55.6705C334.387 55.2079 337.117 53.1721 340.31 52.3855C343.549 51.5989 347.159 54.4676 347.529 57.7526C347.853 60.4824 348.223 63.2123 348.547 65.6645C351.832 67.9316 354.979 70.1062 358.08 72.2809C359.468 73.2988 360.717 74.548 362.152 75.4734C363.54 76.3525 365.113 76.9539 366.641 77.6017C369.278 78.7121 370.158 80.0539 370.158 83.1076C370.158 84.2181 370.158 85.421 370.62 86.3927C371.685 88.7061 370.158 90.6031 369.648 92.5463C369.047 94.8135 367.381 96.7568 366.132 98.8388C365.946 99.1627 365.761 99.4403 365.623 99.7642C365.53 99.9493 365.669 100.319 365.576 100.458C363.957 102.355 362.337 104.206 360.671 106.057C360.347 105.964 360.023 105.872 359.699 105.825C360.301 107.167 360.532 108.833 361.55 109.712C363.91 111.794 363.818 114.339 363.586 117.022C363.494 118.457 363.355 119.891 363.216 121.418C364.142 121.557 364.79 121.649 365.437 121.788C365.299 121.927 365.113 122.065 364.975 122.204C365.391 123.037 365.761 123.916 366.27 124.703C366.548 125.165 367.335 125.443 367.474 125.906C368.306 129.098 369.093 132.337 369.695 135.576C369.88 136.547 369.51 137.704 369.278 138.722C368.492 142.331 368.538 145.338 373.628 146.588C377.515 147.559 380.847 152.51 380.847 156.397C380.847 157.738 381.773 159.126 382.467 160.376C383.022 161.301 383.948 162.041 384.734 162.874C386.632 164.91 388.529 166.992 390.519 168.982C391.028 169.49 391.861 169.953 392.555 169.999C396.303 170.231 399.08 172.359 400.144 175.968C400.884 178.374 401.579 180.826 402.504 183.14C403.059 184.481 404.077 185.731 405.049 186.841C405.281 187.119 406.53 186.934 406.9 186.517C408.612 184.805 410.186 185.222 411.25 186.934C413.147 190.034 416.433 191.931 417.914 195.493C418.654 197.298 420.69 198.593 422.217 200.028C424.531 202.248 427.261 203.868 430.177 205.256C433.879 207.014 437.72 206.135 441.561 206.181C441.977 206.181 442.44 205.441 442.764 204.932C450.029 193.457 457.34 181.983 464.559 170.462C477.054 150.613 489.502 130.718 501.996 110.822C506.948 102.91 511.945 94.9986 516.897 87.0867C518.285 84.8658 519.211 84.6345 521.201 86.4389C522.311 87.4106 524.764 87.6882 523.375 90.0941C526.754 92.824 526.754 92.7777 530.224 90.1404C533.926 87.318 537.952 84.8195 541.377 81.7196C546.698 76.8151 549.938 70.4764 551.927 63.5824C552.992 59.9272 554.658 56.1795 554.426 52.5706C554.149 48.6378 555.861 46.602 558.406 44.6124C564.283 40.0319 567.661 33.8782 570.16 26.9842C571.918 22.1261 574.001 17.3142 575.991 12.5485C576.315 11.8082 576.962 11.253 578.027 10.6515C578.628 14.9545 579.508 19.2574 579.739 23.6066C580.248 32.3051 580.341 41.0498 576.87 49.3318C575.62 52.293 574.278 55.2079 572.89 58.1228C572.566 58.8168 571.733 59.3257 571.317 60.0198C570.021 62.1018 568.725 64.1839 567.476 66.3122C563.404 73.1137 559.517 80.0539 555.306 86.7628C551.002 93.6105 546.56 100.366 541.839 106.89C537.906 112.395 533.417 117.531 529.299 122.898C526.522 126.507 523.977 130.301 521.201 133.91C517.406 138.815 513.473 143.627 509.585 148.438C506.578 152.186 503.523 155.841 500.515 159.589C495.842 165.326 491.307 171.11 486.54 176.755C484.689 178.929 482.422 180.734 480.201 182.538C479.691 182.955 478.442 183.001 477.794 182.677C475.434 181.659 473.167 180.456 470.945 179.161C469.927 178.559 469.141 178.281 468.447 179.438C466.086 183.278 463.865 187.211 461.366 190.913C459.608 193.55 457.433 195.91 455.443 198.408C454.425 199.704 453.453 200.999 452.62 202.341C449.844 206.736 447.067 211.132 444.337 215.527C442.44 218.581 442.764 219.645 445.91 221.45C449.612 223.532 450.631 226.585 448.039 229.917C444.291 234.729 439.941 239.17 436.054 243.89C434.388 245.926 433.971 249.118 430.593 249.396C430.547 249.396 430.547 249.535 430.501 249.581C428.279 253.051 428.233 253.236 424.207 252.311C421.847 251.755 420.783 252.496 419.58 254.393C413.24 264.711 406.761 274.982 400.329 285.254C395.794 292.471 391.167 299.689 386.539 306.907C386.4 307.092 386.308 307.324 386.215 307.509C383.855 311.395 383.346 311.488 379.644 308.943C378.487 308.156 378.348 307.462 379.089 306.306C381.958 301.771 384.781 297.237 387.65 292.703C396.766 278.267 405.928 263.878 415.091 249.442C415.878 248.193 416.572 246.944 417.266 245.648C417.451 245.324 417.636 244.63 417.497 244.491C416.433 243.52 415.23 242.687 414.119 241.761C413.656 241.391 412.777 240.882 412.823 240.558C413.055 238.847 411.944 238.06 410.88 237.181C409.445 236.024 408.057 234.729 406.53 233.711C404.957 232.647 403.291 232.97 401.671 233.85C400.653 234.359 399.589 234.729 398.108 235.33C399.45 237.967 400.653 240.373 402.088 243.196C401.162 242.964 400.005 243.011 399.404 242.409C396.812 239.957 394.267 237.412 391.861 234.775C388.807 231.49 385.845 228.02 382.791 224.735C381.171 222.977 379.135 221.589 377.654 219.738C376.729 218.581 376.497 216.823 375.896 215.342C375.572 214.509 375.34 213.399 374.739 212.983C372.98 211.826 371.546 209.929 368.862 210.715C368.029 210.947 366.826 209.836 365.715 209.512C364.604 209.189 363.309 209.281 362.337 208.772C360.764 207.986 359.375 206.829 357.895 205.857C357.478 205.58 357.2 204.978 356.784 204.932C354.378 204.701 353.683 203.313 354.192 201.045C352.018 200.583 349.935 200.166 347.853 199.75C345.493 199.287 344.197 197.529 343.78 195.539C343.271 193.134 343.271 190.496 343.549 188.044C343.78 185.869 344.66 183.741 345.215 181.844C342.948 179.299 340.911 176.847 338.69 174.626C336.654 172.544 335.729 170.184 335.914 167.362C336.052 165.419 335.682 163.892 333.461 163.29C332.767 163.105 332.304 162.226 331.286 161.255C331.008 165.326 330.962 168.75 330.407 172.081C330.037 174.256 328.926 176.292 328.232 178.466C327.538 180.549 325.779 182.399 326.705 184.898C326.751 185.037 326.612 185.36 326.474 185.499C323.28 189.062 324.576 193.087 325.409 196.974C325.594 197.807 326.427 198.454 326.936 199.195C328.648 201.601 330.962 203.544 330.638 207.153C330.314 210.808 330.916 214.556 330.916 218.303C330.916 219.275 330.083 220.2 330.083 221.172C330.083 222.745 329.99 224.735 330.87 225.753C331.934 226.956 331.471 227.696 331.055 228.575C330.176 230.518 331.471 231.444 332.674 232.554C333.97 233.757 335.22 235.053 336.145 236.487C337.163 238.106 336.515 239.633 335.451 241.253C335.081 241.808 336.238 243.566 337.024 244.584C337.996 245.926 339.246 247.082 340.449 248.285C341.93 249.812 343.734 251.154 344.984 252.866C348.223 257.308 351.277 261.888 354.331 266.469C354.84 267.255 354.748 268.412 355.118 269.291C356.321 271.882 357.663 274.381 358.913 276.972C360.578 280.395 362.383 283.727 363.771 287.243C366.039 292.888 368.075 298.579 370.019 304.362C370.713 306.491 371.037 308.804 371.176 311.071C371.361 313.847 371.407 316.67 371.037 319.446C370.435 323.98 372.009 328.005 373.351 332.17C374.693 336.334 375.664 340.59 377.423 344.57C378.718 347.484 378.765 350.399 379.366 353.36C379.69 355.026 381.032 355.674 382.837 355.998C384.503 356.275 386.076 357.525 387.326 355.119C387.372 355.581 387.465 356.09 387.372 356.553C387.048 358.126 387.326 359.237 389.223 359.468C389.639 359.514 390.287 359.746 390.426 360.069C391.259 362.013 392.879 362.707 394.776 363.077C395.007 363.123 395.285 364.095 395.146 364.511C394.545 366.501 394.915 368.166 396.257 369.739C396.72 370.248 396.766 371.081 396.997 371.822C397.275 372.608 397.506 373.441 397.738 374.227C397.321 375.014 396.997 376.356 396.164 377.235C394.961 378.484 395.702 379.456 396.025 380.659C396.257 381.492 395.655 382.509 395.655 383.435C395.655 384.545 395.887 385.702 395.933 386.165C395.331 387.645 394.915 388.617 394.637 389.589C394.36 390.468 394.267 391.393 394.128 392.318C393.203 391.994 392.277 391.671 390.796 391.115C391.491 393.197 392.231 395.141 392.832 397.13C393.018 397.824 393.064 398.657 392.879 399.351C392.416 400.832 391.305 402.173 391.167 403.654C390.796 408.327 390.565 413.047 390.704 417.72C390.796 421.143 391.398 424.521 392 427.899C392.416 430.166 393.156 432.387 393.851 434.608C394.036 435.163 394.591 435.811 395.146 435.996C396.905 436.736 397.46 437.846 396.951 439.234C398.478 440.993 399.866 442.519 401.208 444.093C401.44 444.37 401.347 444.972 401.255 445.434C400.699 448.164 402.735 452.698 405.095 453.901C405.419 454.086 405.836 454.364 405.975 454.688C406.576 456.122 407.224 457.094 409.121 456.909C410.139 456.816 411.25 457.742 412.361 458.112C414.443 458.852 414.906 457.233 415.507 455.845C416.063 454.549 416.526 453.207 417.035 451.866C417.266 451.866 417.497 451.866 417.729 451.866C417.867 453.439 418.469 455.151 418.099 456.585C416.803 461.489 418.886 465.283 421.292 469.216C423.282 472.455 424.901 475.971 426.614 479.349C427.076 480.274 427.261 480.968 428.835 481.015C430.825 481.061 430.963 482.449 429.39 484.022C429.066 484.346 428.789 484.716 428.372 485.132C429.714 486.752 429.02 487.723 427.632 489.065C425.179 491.379 423.374 494.432 419.95 495.45C417.775 496.098 415.507 496.653 413.24 496.792C404.309 497.347 395.655 497.116 387.557 491.934C377.33 485.364 367.797 478.007 359.468 469.17C358.172 467.782 357.478 465.839 356.46 464.08C356.46 464.034 356.46 463.803 356.506 463.757C358.265 462.692 359.653 461.443 359.283 459.037C359.005 457.233 359.468 455.382 358.08 453.624C356.969 452.236 356.506 450.339 355.627 448.349C355.905 448.025 357.709 448.21 356.969 446.591C356.876 446.452 357.617 445.619 358.033 445.573C359.838 445.434 359.931 444.602 359.746 442.982C359.237 439.281 359.237 435.487 358.681 431.785C358.404 430.12 356.784 428.593 356.645 426.927C356.46 424.475 354.609 424.105 353.221 422.994C352.804 422.67 352.758 421.791 352.527 421.051C350.583 421.051 347.853 421.791 347.483 419.061C347.251 417.396 344.012 415.73 346.511 414.25C346.696 412.445 346.835 411.057 346.974 409.715C347.159 409.762 347.297 409.808 347.483 409.808C346.603 406.847 345.817 403.839 344.752 400.878C343.734 398.102 342.485 395.465 341.513 393.29C339.523 392.874 338.089 392.55 336.654 392.226C336.145 392.781 335.358 393.521 334.294 394.678C334.016 392.827 333.785 391.532 333.554 390.098C333.137 390.236 332.628 390.375 331.98 390.514C332.212 387.506 329.667 387.506 327.26 386.535C328.278 385.933 328.834 385.471 329.481 385.239C332.165 384.268 332.952 383.065 333.369 380.242C333.878 376.68 334.711 372.793 337.533 370.572C340.958 367.889 341.097 364.095 341.837 360.671C342.3 358.728 340.449 356.183 339.431 353.962C338.598 352.111 336.099 351.186 336.469 348.641C336.515 348.364 336.284 348.04 336.145 347.808C334.248 344.94 332.35 342.117 330.407 339.295C330.268 339.064 329.713 339.11 329.343 339.017C329.713 344.893 330.222 350.677 330.361 356.46C330.499 362.522 330.314 368.583 330.222 374.644C330.176 377.559 328.232 379.456 326.057 380.936C319.902 385.147 314.072 389.912 306.668 391.902C304.632 392.457 302.503 393.012 300.42 393.105C294.22 393.429 287.972 393.151 282.049 391.208C280.429 390.653 278.44 389.218 277.931 387.692C275.894 381.677 273.951 375.616 272.84 369.369C270.897 358.543 269.647 347.577 268.074 336.658C268.074 336.565 268.074 336.473 268.028 336.426C267.565 335.455 267.148 334.437 266.686 333.465C265.806 334.159 264.881 334.761 264.14 335.594C262.012 337.953 260.207 340.59 257.893 342.765C255.95 344.616 254.376 346.975 251.554 347.947C250.721 348.225 250.304 349.752 249.656 350.723C248.083 349.474 245.815 349.983 244.242 352.065C241.697 355.304 239.429 358.635 237.069 361.874C236.375 362.799 235.635 363.725 234.802 364.465C232.396 366.639 229.897 368.768 227.49 370.942C226.842 371.544 226.241 372.377 226.01 373.163C225.13 376.171 226.75 377.836 230.73 378.253C231.285 378.299 231.84 378.345 232.905 378.438C232.072 379.502 231.516 380.196 231.007 380.936C229.85 382.509 229.017 384.083 230.498 385.933C230.683 386.118 230.822 386.535 230.776 386.72C230.406 387.506 229.758 388.201 229.526 389.033C229.249 389.959 229.341 391.023 229.249 391.994C229.017 391.809 228.786 391.578 228.555 391.393C227.213 391.902 225.871 392.365 224.436 392.874C224.621 393.984 224.76 394.956 224.945 396.112C223.788 395.974 222.724 395.835 221.382 395.65C221.382 396.991 221.382 398.148 221.382 399.49C219.068 398.703 217.541 399.166 216.754 401.341C216.662 401.665 216.292 401.85 216.014 402.127C215.551 401.665 215.089 401.202 214.302 400.415C213.885 401.665 213.469 402.729 213.145 403.793C212.173 406.615 210.415 408.882 208.286 410.918C206.62 412.491 204.491 413.741 204.769 416.794C204.862 417.951 202.918 419.154 202.131 420.496C200.789 422.855 199.17 425.03 197.782 427.297C196.532 429.379 195.838 432.109 196.949 434.839C197.411 435.949 197.504 437.43 196.162 438.494C195.745 438.818 195.607 439.743 195.607 440.391C195.607 441.918 195.792 443.445 195.375 445.11C195.93 445.619 196.486 446.082 197.134 446.637C197.272 447.701 194.774 448.766 197.365 449.83C195.56 451.172 195.236 452.421 195.514 454.503C195.93 457.325 195.19 460.333 195.051 463.248C195.005 464.682 195.421 466.116 195.283 467.551C195.098 468.939 194.727 470.558 193.894 471.622C192.275 473.612 190.1 475.231 188.388 477.174C184.315 481.709 178.855 483.097 173.209 483.097C168.212 483.097 162.982 482.541 158.262 481.015C154.375 479.812 151.043 476.85 147.526 474.63C147.295 474.491 147.295 473.843 147.249 473.427C147.11 472.177 147.11 471.021 147.017 469.54ZM519.072 107.213C519.118 104.345 517.175 102.957 515.416 103.975C514.305 104.622 513.287 105.687 512.593 106.797C507.734 114.478 502.968 122.158 498.155 129.885C492.371 139.138 486.587 148.392 480.848 157.692C480.478 158.294 479.969 159.589 480.108 159.682C481.496 160.653 482.977 161.625 484.597 162.18C485.198 162.365 486.401 161.486 486.957 160.792C496.443 149.41 505.698 137.843 513.102 125.027C516.295 119.243 518.285 112.951 519.072 107.213ZM86.6742 159.728C85.8412 158.016 85.1008 156.397 84.2679 154.87C76.0771 140.11 67.8864 125.304 59.603 110.591C58.4462 108.509 58.1222 105.363 54.0037 106.103C54.0037 107.306 53.7261 108.74 54.05 110.036C54.883 113.46 55.5308 117.022 56.9653 120.215C59.0015 124.749 61.4541 129.098 63.9992 133.355C69.3672 142.331 74.9202 151.214 80.3344 160.144C81.3062 161.717 82.6019 161.81 84.129 161.162C84.9157 160.885 85.6098 160.376 86.6742 159.728ZM211.942 271.003C212.081 271.049 212.219 271.096 212.358 271.096C212.358 271.188 212.358 271.234 212.358 271.327C212.636 272.437 212.914 273.501 213.145 274.612C213.608 273.779 214.117 272.993 214.533 272.113C217.31 266.33 220.225 260.546 222.77 254.67C223.927 252.033 226.426 249.812 225.362 246.342C224.806 244.445 224.112 242.918 222.215 242.502C220.133 241.993 219.392 243.705 218.929 245.232C217.449 250.044 216.06 254.902 214.718 259.76C213.793 263.508 212.867 267.255 211.942 271.003Z" fill="#020E30"/>
</g>
</svg>
