<svg width="142" height="19" viewBox="0 0 142 19" fill="none" xmlns="http://www.w3.org/2000/svg">
<path d="M26.1142 8.443H20.6504C20.4154 8.443 20.1804 8.61889 20.0629 8.85342L19.7104 9.61563H25.8792C26.2317 9.61563 26.4667 9.90879 26.4079 10.2606L25.2917 16.241C25.2329 16.5928 24.8804 16.886 24.5279 16.886H18.5353C18.1828 16.886 17.9478 16.5928 18.0066 16.241L20.6504 1.81759C20.8854 0.820847 20.2391 0 19.2404 0H13.2478C12.249 0 11.309 0.820847 11.1328 1.81759L9.89902 8.443H3.20146C2.2027 8.443 1.26269 9.26384 1.08644 10.2606L0.0289325 16.241C-0.147319 17.2378 0.498937 18.0586 1.4977 18.0586H7.49025C8.48901 18.0586 9.42902 17.2378 9.60527 16.241L12.249 1.81759C12.3078 1.4658 12.6603 1.17264 13.0128 1.17264H19.0054C19.3579 1.17264 19.5929 1.4658 19.5341 1.81759L18.3003 8.443H12.249C12.014 8.443 11.779 8.61889 11.6615 8.85342L11.309 9.61563H18.1241L16.8903 16.241C16.7141 17.2378 17.3603 18.0586 18.3591 18.0586H24.3516C25.3504 18.0586 26.2904 17.2378 26.4667 16.241L27.5829 10.202C27.7592 9.20521 27.1129 8.443 26.1142 8.443ZM8.43026 16.241C8.37151 16.5928 8.019 16.886 7.6665 16.886H1.67395C1.32144 16.886 1.08644 16.5928 1.14519 16.241L2.26145 10.2606C2.3202 9.90879 2.67271 9.61563 3.02521 9.61563H9.66402L8.43026 16.241Z" fill="white"/>
<path d="M15.9503 3.26198C15.8915 2.96882 15.4803 2.91019 15.304 3.14471L12.954 6.604C12.7778 6.83853 12.954 7.13168 13.2478 7.13168H16.7141C16.9491 7.13168 17.1253 6.89716 17.0666 6.66263L15.9503 3.26198ZM15.8915 11.5291H12.4253C12.1903 11.5291 12.014 11.7636 12.0728 11.9981L13.1303 15.4574C13.189 15.7506 13.6003 15.8092 13.7765 15.5747L16.1266 12.174C16.3028 11.8222 16.1266 11.5291 15.8915 11.5291ZM7.19647 11.5877L3.43644 13.288C3.20144 13.4053 3.14269 13.7571 3.43644 13.933L6.55022 15.6333C6.78522 15.7506 7.02022 15.6333 7.07897 15.3988L7.72523 11.9395C7.72523 11.6463 7.43147 11.4704 7.19647 11.5877ZM24.1754 13.1708L21.0616 11.4704C20.8266 11.3532 20.5916 11.4704 20.5328 11.705L19.9453 15.1056C19.8866 15.3988 20.1803 15.6333 20.4153 15.4574L24.1754 13.7571C24.4104 13.6398 24.4691 13.288 24.1754 13.1708Z" fill="white"/>
<path d="M37.3355 5.10098H39.9205L40.0968 4.39739C40.4493 2.99023 40.3318 1.87622 39.803 1.11401C39.333 0.351792 38.393 0 37.1005 0C35.7492 0 34.633 0.351792 33.8105 1.11401C32.988 1.87622 32.3417 2.9316 32.048 4.33876C31.813 5.33551 31.813 6.27362 32.1067 7.09446C32.4005 7.91531 32.9292 8.79479 33.8692 9.79153C34.5742 10.5537 35.0442 11.2573 35.2792 11.785C35.4555 12.3713 35.5142 13.0163 35.338 13.7199C35.2205 14.3648 34.9855 14.7752 34.6917 15.0684C34.398 15.3616 33.9867 15.4788 33.5167 15.4788C32.5767 15.4788 32.2242 14.8925 32.4592 13.7785L32.753 12.6059H30.1679L29.9329 13.6026C29.5804 15.0098 29.6979 16.1238 30.2267 16.886C30.7554 17.6482 31.6367 18 32.988 18C34.3392 18 35.4555 17.5896 36.3368 16.8274C37.218 16.0651 37.8055 14.9511 38.158 13.544C38.393 12.43 38.393 11.4919 38.158 10.671C37.923 9.85016 37.3355 8.97068 36.3955 7.97394C35.6905 7.21173 35.2205 6.50814 34.9855 5.98046C34.7505 5.45277 34.7505 4.86645 34.868 4.2215C35.103 3.10749 35.6905 2.52117 36.6305 2.52117C37.1005 2.52117 37.3943 2.63844 37.5705 2.9316C37.7468 3.22476 37.7468 3.63518 37.6293 4.2215L37.3355 5.10098Z" fill="white"/>
<path d="M49.0269 2.52117L49.5556 0H41.0368L40.508 2.52117H43.3868L39.9205 17.5309H42.6818L46.1481 2.52117H49.0269Z" fill="white"/>
<path d="M45.2668 17.4723H47.7931L49.0856 14.0717H52.2582V14.013L51.9644 17.4723H54.7257L55.9007 0H52.1407L45.2668 17.4723ZM53.1982 2.99023L52.4344 11.6678H49.9669L53.1982 2.99023Z" fill="white"/>
<path d="M64.1258 0H60.0132L56.0182 17.4723H58.7795L60.4832 9.96743H61.4232C62.0695 9.96743 62.4807 10.1433 62.657 10.4365C62.8332 10.7296 62.8332 11.316 62.657 12.1368L61.8932 15.3616C61.717 16.0065 61.6582 16.4756 61.6582 16.7101C61.6582 16.9446 61.6582 17.2378 61.6582 17.5309H64.4783C64.4195 17.2378 64.4195 16.9446 64.4195 16.5928C64.4783 16.2997 64.537 15.8892 64.6545 15.3616L65.3595 12.3127C65.5945 11.2573 65.6533 10.4365 65.5358 9.85016C65.4183 9.20521 65.007 8.85342 64.4195 8.61889V8.56026C65.712 8.0912 66.5933 6.91857 67.0045 5.10098L67.2395 4.0456C67.5333 2.69707 67.4745 1.64169 66.9458 0.996742C66.4758 0.351791 65.5358 0 64.1258 0ZM64.4783 4.33876L64.1845 5.6873C64.0083 6.33225 63.7733 6.8013 63.4208 7.09446C63.0683 7.38762 62.657 7.50489 62.0695 7.50489H61.0707L62.2457 2.52117H63.4795C63.9495 2.52117 64.302 2.63844 64.4195 2.9316C64.5958 3.22476 64.5958 3.69381 64.4783 4.33876Z" fill="white"/>
<path d="M72.3508 0H81.5159C82.9259 0 83.8659 0.351791 84.3947 0.996742C84.9234 1.64169 84.9822 2.63844 84.6884 4.0456L84.5122 4.74919C84.3359 5.62866 83.9834 6.39088 83.5722 6.9772C83.1609 7.56352 82.6322 7.97394 81.9271 8.20847V8.2671C83.2197 8.73616 83.5722 9.96743 83.1609 11.9023L82.8084 13.4267C82.5147 14.7752 81.9271 15.8306 81.0459 16.5342C80.1646 17.2378 79.0484 17.5896 77.6971 17.5896H68.3558L72.3508 0ZM77.0509 7.15309C77.5796 7.15309 78.0496 7.03583 78.4021 6.74267C78.7546 6.44951 78.9896 5.98046 79.1659 5.3355L79.4009 4.33876C79.5184 3.69381 79.5184 3.22476 79.4009 2.99023C79.2246 2.69707 78.9309 2.5798 78.4609 2.5798H77.1096L76.0521 7.21173H77.0509V7.15309ZM75.7583 15.0098C76.2283 15.0098 76.6396 14.8925 76.9334 14.5993C77.2271 14.3648 77.4621 13.8958 77.5796 13.2508L77.9321 11.7264C78.1084 10.9055 78.1084 10.3778 77.8734 10.0847C77.6971 9.79153 77.2271 9.61563 76.6396 9.61563H75.4058L74.1721 15.0098H75.7583Z" fill="white"/>
<path d="M133.275 2.52117H130.396L130.984 0H141.97L141.441 2.52117H138.504L135.096 17.5309H129.868L133.275 2.52117Z" fill="white"/>
<path d="M99.3761 1.17264C98.8473 0.410423 97.9073 0 96.556 0H94.0298H91.5035C90.1522 0 89.036 0.410423 88.1547 1.17264C87.2734 1.93485 86.6272 3.04886 86.3334 4.39739L84.2184 13.6026C83.9246 15.0098 83.9834 16.0651 84.5709 16.8274C85.0997 17.5896 86.0397 18 87.3909 18H89.9172H92.4435C93.7948 18 94.911 17.5896 95.7923 16.8274C96.6735 16.0651 97.3198 14.9511 97.6135 13.6026L99.7286 4.39739C100.022 2.99023 99.9048 1.93485 99.3761 1.17264ZM90.446 15.4788C89.506 15.4788 89.1535 14.8925 89.3885 13.7785L91.621 4.2215C91.856 3.04886 92.5022 2.52117 93.4423 2.52117C94.3823 2.52117 94.7348 3.10749 94.4998 4.2215L92.326 13.7785C92.0322 14.9511 91.4447 15.4788 90.446 15.4788Z" fill="white"/>
<path d="M114.357 1.17264C113.829 0.410423 112.889 0 111.537 0H109.011H106.485C105.134 0 104.017 0.410423 103.136 1.17264C102.255 1.93485 101.609 3.04886 101.315 4.39739L99.1998 13.6026C98.906 15.0098 98.9648 16.0651 99.5523 16.8274C100.081 17.5896 101.021 18 102.372 18H104.899H107.425C108.776 18 109.892 17.5896 110.774 16.8274C111.655 16.0651 112.301 14.9511 112.595 13.6026L114.71 4.39739C115.004 2.99023 114.886 1.93485 114.357 1.17264ZM105.427 15.4788C104.487 15.4788 104.135 14.8925 104.37 13.7785L106.544 4.2215C106.779 3.04886 107.425 2.52117 108.365 2.52117C109.305 2.52117 109.657 3.10749 109.422 4.2215L107.249 13.7785C107.014 14.9511 106.426 15.4788 105.427 15.4788Z" fill="white"/>
<path d="M129.221 1.11401C128.693 0.351792 127.811 0 126.46 0H121.466C120.115 0 118.999 0.351792 118.176 1.11401C117.295 1.87622 116.707 2.9316 116.414 4.33876C116.179 5.33551 116.179 6.27362 116.472 7.09446C116.825 8.09121 117.53 8.97068 118.47 9.49837L120.82 10.7296C121.349 11.0228 121.76 11.4919 121.995 12.0195C122.23 12.5472 122.23 13.1336 122.112 13.7785C121.877 14.8925 121.29 15.4788 120.35 15.4788C119.88 15.4788 119.586 15.3616 119.41 15.0684C119.234 14.7752 119.234 14.3648 119.351 13.7785L119.586 12.899L119.762 12.0195L119.939 11.1401H114.827L114.592 12.0195L114.357 12.899L114.181 13.6026C113.829 15.0098 113.946 16.1238 114.475 16.886C115.004 17.6482 115.885 18 117.236 18H122.23C123.581 18 124.698 17.6482 125.52 16.886C126.401 16.1238 126.989 15.0684 127.283 13.6612C127.518 12.6645 127.518 11.7264 127.224 10.9055C126.871 9.85016 126.049 8.97068 125.05 8.443L122.876 7.27036C122.347 6.9772 121.936 6.50814 121.76 5.98046C121.525 5.45277 121.525 4.86645 121.642 4.2215C121.877 3.10749 122.465 2.52117 123.405 2.52117C123.875 2.52117 124.169 2.63844 124.345 2.9316C124.521 3.22476 124.521 3.63518 124.404 4.2215L124.169 5.10098L123.934 5.98046L123.699 6.85993H128.81L128.986 5.98046L129.163 5.10098L129.339 4.39739C129.809 2.99023 129.75 1.87622 129.221 1.11401Z" fill="white"/>
</svg>
