<svg width="36" height="31" viewBox="0 0 36 31" fill="none" xmlns="http://www.w3.org/2000/svg">
<path d="M30.036 4.53C29 2.15 26.9 0.75 24.45 0.75C21.3 0.75 18.5 3.2 18.5 6.35C16.47 6.49 15 8.45 15 10.2C15 12.65 17.1 14.75 19.55 14.75H30.75C33.55 14.75 36 12.3 36 9.5C36 6.378 33.326 3.872 30.036 4.53ZM25.5 12.65L22.294 9.15H24.52V6.364C24.52 5.65 24.52 5.65 25.234 5.65H25.766C26.48 5.65 26.48 5.65 26.48 6.364V9.15H28.706L25.5 12.65Z" fill="#FFC516"/>
<path d="M2.25843 25.6696H11.5039V28.1579H9.70417C9.38658 28.1579 9.17486 28.3998 9.17486 28.6763V30.2315C9.17486 30.5426 9.42187 30.7499 9.70417 30.7499H18.4203C18.7379 30.7499 18.9496 30.508 18.9496 30.2315V28.6763C18.9496 28.3653 18.7026 28.1579 18.4203 28.1579H16.6206V25.6696H25.866C27.1364 25.6696 28.1245 24.6673 28.1245 23.4577V17.7898H25.0191V22.6282H3.10534V8.66583H13.7976V5.62451H2.25843C0.988061 5.62451 0 6.62676 0 7.83638V23.4577C0 24.7019 1.02335 25.6696 2.25843 25.6696Z" fill="#FFC516"/>
</svg>
