<svg width="38" height="27" viewBox="0 0 38 27" fill="none" xmlns="http://www.w3.org/2000/svg">
<path d="M2.25843 21.6696H11.5039V24.1579H9.70417C9.38658 24.1579 9.17486 24.3998 9.17486 24.6763V26.2315C9.17486 26.5426 9.42187 26.7499 9.70417 26.7499H18.4203C18.7379 26.7499 18.9496 26.508 18.9496 26.2315V24.6763C18.9496 24.3653 18.7026 24.1579 18.4203 24.1579H16.6206V21.6696H25.866C27.1364 21.6696 28.1245 20.6673 28.1245 19.4577V13.7898H25.0191V18.6282H3.10534V4.66583H13.7976V1.62451H2.25843C0.988061 1.62451 0 2.62676 0 3.83638V19.4577C0 20.7019 1.02335 21.6696 2.25843 21.6696Z" fill="#FFC516"/>
<path d="M32.4825 0.750036H21.4875C20.0295 0.752689 18.6322 1.33469 17.6031 2.36801C16.574 3.40133 15.9974 4.80133 16 6.26001C16.0027 7.7187 16.5844 9.11658 17.6173 10.1462C18.6501 11.1757 20.0495 11.7526 21.5075 11.75C22.4599 11.7496 23.3963 11.5052 24.2274 11.04C25.0586 10.5748 25.7567 9.9043 26.2553 9.0925H27.7996C28.2947 9.90185 28.9887 10.5709 29.8154 11.0361C30.6421 11.5013 31.574 11.747 32.5225 11.75C33.9805 11.7447 35.3767 11.1601 36.4039 10.1249C37.4312 9.08975 38.0053 7.6887 38 6.23001C37.9947 4.77133 37.4104 3.3745 36.3757 2.3468C35.3409 1.3191 33.9405 0.744732 32.4825 0.750036ZM24.3812 6.39001C24.3805 6.49301 24.3392 6.59157 24.2661 6.66417C24.1931 6.73677 24.0943 6.77751 23.9914 6.77751H22.562V8.12501C22.562 8.22844 22.5209 8.32764 22.4478 8.40078C22.3747 8.47392 22.2756 8.515 22.1722 8.515H21.2976C21.1942 8.515 21.0951 8.47392 21.0219 8.40078C20.9488 8.32764 20.9078 8.22844 20.9078 8.12501V6.77751H19.5609C19.4579 6.77751 19.3592 6.73677 19.2861 6.66417C19.2131 6.59157 19.1717 6.49301 19.1711 6.39001V5.51252C19.1711 5.40908 19.2121 5.30989 19.2852 5.23675C19.3583 5.16361 19.4575 5.12252 19.5609 5.12252H20.9078V3.69252C20.9078 3.64143 20.9179 3.59083 20.9375 3.54366C20.9571 3.49648 20.9859 3.45365 21.0221 3.41763C21.0583 3.38162 21.1013 3.35313 21.1486 3.3338C21.1959 3.31448 21.2465 3.3047 21.2976 3.30503H22.1722C22.2233 3.3047 22.2739 3.31448 22.3212 3.3338C22.3685 3.35313 22.4115 3.38162 22.4477 3.41763C22.4839 3.45365 22.5127 3.49648 22.5323 3.54366C22.5519 3.59083 22.562 3.64143 22.562 3.69252V5.12252H23.9914C24.0947 5.12252 24.1939 5.16361 24.267 5.23675C24.3401 5.30989 24.3812 5.40908 24.3812 5.51252V6.39001ZM32.0402 2.89003C32.2665 2.89003 32.4878 2.95718 32.676 3.08299C32.8642 3.20881 33.0109 3.38763 33.0975 3.59685C33.1842 3.80607 33.2068 4.03629 33.1627 4.2584C33.1185 4.48051 33.0095 4.68453 32.8495 4.84466C32.6894 5.00479 32.4855 5.11384 32.2635 5.15802C32.0415 5.2022 31.8113 5.17952 31.6022 5.09286C31.3931 5.0062 31.2143 4.85944 31.0886 4.67115C30.9628 4.48285 30.8957 4.26148 30.8957 4.03502C30.8977 3.73265 31.0191 3.44334 31.2336 3.23023C31.448 3.01712 31.7379 2.89752 32.0402 2.89753V2.89003ZM29.0041 5.93002C29.0041 5.70377 29.0711 5.4826 29.1966 5.29441C29.3221 5.10623 29.5006 4.95947 29.7094 4.87266C29.9183 4.78586 30.1481 4.76289 30.37 4.80667C30.5919 4.85044 30.7958 4.959 30.956 5.11863C31.1163 5.27826 31.2257 5.48181 31.2704 5.70359C31.3151 5.92536 31.2932 6.15543 31.2073 6.36473C31.1215 6.57404 30.9756 6.75321 30.788 6.87962C30.6005 7.00603 30.3797 7.07402 30.1535 7.07501C30.0028 7.07567 29.8535 7.04654 29.714 6.98929C29.5746 6.93205 29.4478 6.84781 29.341 6.74142C29.2342 6.63503 29.1495 6.50859 29.0917 6.36934C29.0338 6.2301 29.0041 6.0808 29.0041 5.93002ZM32.0402 8.9625C31.8138 8.9625 31.5926 8.89535 31.4043 8.76954C31.2161 8.64372 31.0694 8.4649 30.9828 8.25568C30.8962 8.04646 30.8735 7.81624 30.9177 7.59413C30.9619 7.37202 31.0709 7.168 31.2309 7.00787C31.391 6.84774 31.5949 6.73869 31.8169 6.69451C32.0389 6.65033 32.269 6.67301 32.4782 6.75967C32.6873 6.84633 32.866 6.99309 32.9918 7.18138C33.1175 7.36967 33.1847 7.59105 33.1847 7.81751C33.1847 8.12118 33.0641 8.41241 32.8495 8.62714C32.6348 8.84187 32.3437 8.9625 32.0402 8.9625ZM33.9268 7.07501C33.7005 7.07501 33.4792 7.00786 33.291 6.88204C33.1028 6.75623 32.9561 6.57741 32.8695 6.36819C32.7828 6.15897 32.7602 5.92874 32.8043 5.70664C32.8485 5.48453 32.9575 5.28051 33.1176 5.12038C33.2776 4.96025 33.4815 4.8512 33.7035 4.80702C33.9256 4.76284 34.1557 4.78552 34.3648 4.87218C34.5739 4.95884 34.7527 5.1056 34.8784 5.29389C35.0042 5.48218 35.0713 5.70356 35.0713 5.93002C35.0713 6.23369 34.9507 6.52492 34.7361 6.73965C34.5215 6.95438 34.2304 7.07501 33.9268 7.07501Z" fill="#FFC516"/>
</svg>
