<svg width="34" height="32" viewBox="0 0 34 32" fill="none" xmlns="http://www.w3.org/2000/svg">
<path d="M2.25843 26.6696H11.5039V29.1579H9.70417C9.38658 29.1579 9.17486 29.3998 9.17486 29.6763V31.2315C9.17486 31.5426 9.42187 31.7499 9.70417 31.7499H18.4203C18.7379 31.7499 18.9496 31.508 18.9496 31.2315V29.6763C18.9496 29.3653 18.7026 29.1579 18.4203 29.1579H16.6206V26.6696H25.866C27.1364 26.6696 28.1245 25.6673 28.1245 24.4577V18.7898H25.0191V23.6282H3.10534V9.66583H13.7976V6.62451H2.25843C0.988061 6.62451 0 7.62676 0 8.83638V24.4577C0 25.7019 1.02335 26.6696 2.25843 26.6696Z" fill="#FFC516"/>
<path d="M19.62 11.8431L15.1031 14.8153C14.8914 14.9535 14.8914 15.2646 15.1031 15.4028L19.62 18.375C19.867 18.5478 20.1846 18.375 20.1846 18.064V16.4396H31.3709C32.1472 16.4396 32.7824 15.8175 32.7824 15.0572V7.45391C32.7824 7.28111 32.6059 7.17743 32.4648 7.28111L30.2769 8.73265C30.1005 8.83633 29.9946 9.04369 29.9946 9.2165V13.7094H20.1846V12.085C20.1846 11.8777 19.867 11.7048 19.62 11.8431Z" fill="#FFC516"/>
<path d="M28.76 1.12952V2.75386H17.5737C16.7974 2.75386 16.1622 3.37594 16.1622 4.13627V11.7396C16.1622 11.9124 16.3387 12.0161 16.4798 11.9124L18.6677 10.4608C18.8441 10.3572 18.95 10.1498 18.95 9.97698V5.48413H28.76V7.10847C28.76 7.38495 29.0776 7.55775 29.3246 7.41951L33.8415 4.44732C34.0532 4.30907 34.0532 3.99803 33.8415 3.85979L29.3246 0.818472C29.0776 0.64567 28.76 0.818472 28.76 1.12952Z" fill="#FFC516"/>
</svg>
