<svg width="24" height="25" viewBox="0 0 24 25" fill="none" xmlns="http://www.w3.org/2000/svg">
<path d="M12 0.5C5.38323 0.5 0 5.88323 0 12.5C0 19.1163 5.38323 24.5 12 24.5C18.6163 24.5 24 19.1163 24 12.5C24 5.88323 18.6173 0.5 12 0.5ZM14.9843 12.9225H13.032C13.032 16.0416 13.032 19.881 13.032 19.881H10.139C10.139 19.881 10.139 16.0788 10.139 12.9225H8.76388V10.4631H10.139V8.87235C10.139 7.73306 10.6804 5.95283 13.0586 5.95283L15.2023 5.96105V8.34838C15.2023 8.34838 13.8996 8.34838 13.6463 8.34838C13.3931 8.34838 13.0329 8.47503 13.0329 9.01833V10.4636H15.2371L14.9843 12.9225Z" fill="white"/>
</svg>
