<svg width="24" height="24" viewBox="0 0 24 24" fill="none" xmlns="http://www.w3.org/2000/svg">
<path d="M11.9996 14.4023C13.3236 14.4023 14.4029 13.3249 14.4029 12C14.4029 11.477 14.2318 10.9941 13.9485 10.5997C13.5121 9.9945 12.8025 9.59766 12.0011 9.59766C11.1992 9.59766 10.4901 9.99401 10.0526 10.5992C9.76841 10.9936 9.59875 11.4765 9.59827 11.9995C9.59682 13.3244 10.6752 14.4023 11.9996 14.4023Z" fill="white"/>
<path d="M17.2455 9.06118V6.7478L14.9316 6.75505L14.9394 9.06892L17.2455 9.06118Z" fill="white"/>
<path d="M12 0C5.38323 0 0 5.38323 0 12C0 18.6163 5.38323 24 12 24C18.6163 24 24 18.6163 24 12C24 5.38323 18.6173 0 12 0ZM18.8246 16.1874C18.8246 17.6428 17.6413 18.8256 16.1869 18.8256H7.8131C6.35817 18.8256 5.17538 17.6428 5.17538 16.1874V7.81358C5.17538 6.35866 6.35817 5.17586 7.8131 5.17586H16.1864C17.6413 5.17586 18.8246 6.35866 18.8246 7.81358V16.1874Z" fill="white"/>
<path d="M15.733 11.9997C15.733 14.0574 14.0587 15.7327 12 15.7327C9.94136 15.7327 8.26747 14.0574 8.26747 11.9997C8.26747 11.5047 8.36607 11.0315 8.54202 10.5994H6.50464V16.1871C6.50464 16.9092 7.09096 17.4941 7.81262 17.4941H16.1859C16.9066 17.4941 17.4939 16.9092 17.4939 16.1871V10.5994H15.4556C15.633 11.0315 15.733 11.5047 15.733 11.9997Z" fill="white"/>
</svg>
