<svg width="24" height="24" viewBox="0 0 24 24" fill="none" xmlns="http://www.w3.org/2000/svg">
<path d="M12 0C5.37271 0 0 5.37271 0 12C0 18.6273 5.37271 24 12 24C18.6273 24 24 18.6273 24 12C24 5.37271 18.6273 0 12 0ZM13.104 15.6338C12.2171 15.6338 11.3825 15.144 11.0956 14.5876C11.0956 14.5876 10.6189 16.5207 10.5175 16.8938C10.3473 17.5244 10.0189 18.1538 9.71451 18.6524C9.28035 19.2196 8.77961 18.7986 8.71961 18.2815C8.7 17.7055 8.72071 17.0236 8.86361 16.4029C9.0218 15.7222 9.92071 11.8309 9.92071 11.8309C9.92071 11.8309 9.6578 11.2953 9.6578 10.5033C9.6578 9.25965 10.3636 8.33129 11.2429 8.33129C11.9902 8.33129 12.3513 8.90514 12.3513 9.59129C12.3513 10.3582 11.8724 11.5058 11.6258 12.5684C11.4196 13.4586 12.0633 14.184 12.9229 14.184C14.4796 14.184 15.5291 12.1418 15.5291 9.72329C15.5291 7.88404 14.316 6.50839 12.1091 6.50839C9.61635 6.50839 8.0629 8.40655 8.0629 10.5262C8.0629 11.2571 8.27345 11.7731 8.6051 12.1713C8.75674 12.3546 8.77855 12.4287 8.7229 12.6393C8.68365 12.7942 8.5931 13.1651 8.556 13.3124C8.50145 13.5251 8.33235 13.6004 8.14471 13.5219C6.996 13.0429 6.46145 11.7589 6.46145 10.3168C6.46145 7.93314 8.43055 5.07494 12.3349 5.07494C15.4724 5.07494 17.5375 7.39314 17.5375 9.88149C17.5385 13.1749 15.7462 15.6338 13.104 15.6338Z" fill="white"/>
</svg>
