<svg width="24" height="24" viewBox="0 0 24 24" fill="none" xmlns="http://www.w3.org/2000/svg">
<path d="M14.5128 16.0944C13.9752 16.632 12.8232 16.8239 12.0024 16.8239C11.1791 16.8239 10.0296 16.632 9.492 16.0944C9.36475 15.9672 9.16077 15.9672 9.03369 16.0944C8.90643 16.2217 8.90643 16.4257 9.03369 16.5527C9.88568 17.4047 11.5225 17.4719 12.0024 17.4719C12.4823 17.4719 14.1167 17.4047 14.9713 16.5527C15.0959 16.4255 15.0959 16.2215 14.9713 16.0944C14.844 15.9672 14.64 15.9672 14.5128 16.0944Z" fill="white"/>
<path d="M10.5 13.2504C10.5 12.5616 9.93842 12 9.24957 12C8.56091 12 7.99915 12.5616 7.99915 13.2504C7.99915 13.9391 8.56091 14.5009 9.24957 14.5009C9.93842 14.5009 10.5 13.9393 10.5 13.2504Z" fill="white"/>
<path d="M12 0C5.3736 0 0 5.3736 0 12C0 18.6264 5.3736 24 12 24C18.6264 24 24 18.6264 24 12C24 5.3736 18.6264 0 12 0ZM18.9624 13.6007C18.9888 13.7736 19.0032 13.9488 19.0032 14.1264C19.0032 16.8192 15.8688 19.0009 12.0024 19.0009C8.13593 19.0009 5.00153 16.8192 5.00153 14.1264C5.00153 13.9464 5.01599 13.7688 5.04236 13.5959C4.4328 13.3224 4.008 12.7104 4.008 12C4.008 11.0352 4.79041 10.2504 5.75757 10.2504C6.22797 10.2504 6.65277 10.4352 6.96716 10.7377C8.18152 9.86169 9.86169 9.30231 11.7312 9.25433C11.7312 9.23035 12.6048 5.06873 12.6048 5.06873C12.6216 4.98724 12.6696 4.91748 12.7392 4.87207C12.8088 4.82648 12.8928 4.81201 12.9745 4.82886L15.8833 5.44794C16.0873 5.03522 16.5071 4.74957 16.9991 4.74957C17.6904 4.74957 18.2496 5.30878 18.2496 6C18.2496 6.69122 17.6904 7.25043 16.9991 7.25043C16.3295 7.25043 15.7872 6.72235 15.756 6.06006L13.1519 5.50562L12.3552 9.2569C14.1912 9.32153 15.8401 9.87836 17.0352 10.7424C17.3496 10.4377 17.7768 10.2504 18.2496 10.2504C19.2169 10.2504 19.9991 11.0328 19.9991 12C19.9991 12.7152 19.5696 13.3271 18.9624 13.6007Z" fill="white"/>
<path d="M14.7504 12C14.0616 12 13.5 12.5616 13.5 13.2504C13.5 13.9391 14.0616 14.5009 14.7504 14.5009C15.4391 14.5009 16.0009 13.9391 16.0009 13.2504C16.0009 12.5616 15.4393 12 14.7504 12Z" fill="white"/>
</svg>
