<svg width="35" height="40" viewBox="0 0 35 40" fill="none" xmlns="http://www.w3.org/2000/svg">
<path d="M31.4364 0H3.11329C0.803255 0 -0.000244141 0.803493 -0.000244141 3.11353V30.834C-0.000244141 31.1353 -0.000244141 31.3362 -0.000244141 31.537C0.100192 32.0392 0.100192 32.5414 0.501939 33.0436C0.501939 33.1441 1.00412 33.4453 1.00412 33.4453C1.30544 33.5458 1.40587 33.6463 1.70718 33.7467L15.6678 39.572C16.3709 39.8734 16.6722 40.0742 17.1744 39.9737C17.6766 39.9737 17.9779 39.8734 18.681 39.572L32.6416 33.7467C32.943 33.6463 33.1438 33.5458 33.3447 33.4453L33.8469 33.0436C34.3491 32.4411 34.3491 32.0392 34.3491 31.537C34.3491 31.3362 34.3491 31.0348 34.3491 30.834V3.11353C34.6504 0.803493 33.7465 0 31.4364 0ZM19.0827 5.32315H21.3928V20.6899H19.0827V5.32315ZM18.2793 26.013C18.3796 25.9127 18.3796 25.8122 18.4801 25.7118C18.5805 25.5109 18.7813 25.31 18.8818 25.1091C18.9823 25.0087 18.9823 24.9083 19.0827 24.8078C19.0827 24.7074 19.1832 24.7074 19.1832 24.607C19.1832 24.607 19.1832 24.607 19.2835 24.607H19.384C19.6854 24.607 19.8862 24.607 20.1876 24.607C20.2879 24.607 20.2879 24.607 20.3884 24.607H20.4888V24.7074V24.8078C20.4888 24.9083 20.4888 24.9083 20.4888 25.0087C20.4888 25.31 20.4888 25.5109 20.4888 25.8122C20.4888 26.1135 20.4888 26.3144 20.4888 26.6157C20.4888 26.9171 20.4888 27.1179 20.4888 27.4191C20.4888 27.7205 20.4888 27.9213 20.4888 28.2227C20.4888 28.524 20.4888 28.7249 20.4888 29.0262C20.4888 29.1266 20.4888 29.1266 20.4888 29.2271C20.4888 29.2271 20.4888 29.2271 20.3884 29.2271C20.0871 29.2271 19.8862 29.2271 19.5849 29.2271C19.4845 29.2271 19.4845 29.2271 19.384 29.2271H19.2835H19.1832V29.0262C19.1832 28.9257 19.1832 28.9257 19.1832 28.8254C19.1832 28.524 19.1832 28.3232 19.1832 28.0218C19.1832 27.7205 19.1832 27.5196 19.1832 27.2183C19.1832 26.9171 19.1832 26.7161 19.1832 26.4149V26.3144C19.0827 26.4149 18.9823 26.5152 18.9823 26.7161C18.8818 26.8166 18.7815 26.9171 18.7815 27.1179C18.681 27.2183 18.5805 27.3188 18.5805 27.5196C18.4801 27.6201 18.3796 27.7205 18.3796 27.9213C18.2793 28.0218 18.1788 28.1223 18.1788 28.3232C18.1788 28.3232 18.1788 28.4235 18.0783 28.3232C18.0783 28.3232 18.0783 28.2227 17.9779 28.2227C17.9779 28.1223 17.8774 28.1223 17.8774 28.0218C17.6766 27.821 17.5761 27.5196 17.3752 27.3188C17.2749 27.2183 17.1744 27.1179 17.1744 26.9171C17.1744 26.8166 17.074 26.8166 17.074 26.7161C17.074 26.6157 16.9735 26.6157 16.9735 26.5152C16.9735 26.5152 16.9735 26.4149 16.8731 26.4149C16.8731 26.8166 16.8731 27.2183 16.8731 27.6201C16.8731 28.0218 16.8731 28.4235 16.8731 28.8254C16.8731 28.9257 16.8731 29.0262 16.8731 29.1266V29.2271C16.8731 29.2271 16.8731 29.2271 16.7727 29.2271H16.6722C16.4713 29.2271 16.2705 29.2271 16.0696 29.2271C15.9692 29.2271 15.8688 29.2271 15.7683 29.2271C15.7683 29.2271 15.7683 29.2271 15.6678 29.2271V29.1266C15.6678 28.9257 15.6678 28.7249 15.6678 28.524C15.6678 28.1223 15.6678 27.7205 15.6678 27.3188C15.6678 26.9171 15.6678 26.5152 15.6678 26.1135C15.6678 25.7118 15.6678 25.31 15.6678 24.9083V24.8078C15.6678 24.8078 15.6678 24.8078 15.6678 24.7074V24.607C15.7683 24.607 15.8688 24.607 15.9692 24.607C16.17 24.607 16.3709 24.607 16.5718 24.607C16.6722 24.607 16.7727 24.607 16.8731 24.607C16.8731 24.607 16.8731 24.607 16.9735 24.607C16.9735 24.607 16.9735 24.607 17.074 24.607L17.1744 24.7074C17.2749 24.8078 17.2749 24.9083 17.2749 24.9083C17.3752 25.0087 17.3752 25.1091 17.4757 25.1091C17.6766 25.4105 17.8774 25.7118 18.0783 26.1135C18.0783 26.2139 18.1788 26.3144 18.1788 26.3144C18.1788 26.2139 18.1788 26.1135 18.2793 26.013ZM11.4495 5.32315H15.1656C17.074 5.32315 17.9779 6.22707 17.9779 8.13536V12.2533C17.9779 14.1615 17.074 15.0655 15.1656 15.0655H13.86V20.6899H11.55V5.32315H11.4495ZM5.12203 5.32315H10.3447V7.43231H7.43206V11.7511H10.1439V13.8603H7.43206V18.4803H10.3447V20.5895H5.12203V5.32315ZM9.54124 28.524C9.34036 28.7249 9.13948 28.8254 8.93862 28.9257C8.83818 28.9257 8.73774 29.0262 8.6373 29.0262C8.53686 29.0262 8.43643 29.1266 8.336 29.1266C8.13512 29.2271 7.93424 29.2271 7.73338 29.2271C7.5325 29.2271 7.33163 29.2271 7.03032 29.2271C6.62857 29.1266 6.22683 29.0262 5.92551 28.7249C5.62421 28.4235 5.32289 28.1223 5.22247 27.7205C5.12203 27.5196 5.02159 27.3188 5.02159 27.1179C5.02159 27.0174 5.02159 26.9171 5.02159 26.8166C5.02159 26.7161 5.02159 26.6157 5.02159 26.5152C5.02159 26.3144 5.12203 26.1135 5.22247 25.9127C5.22247 25.8122 5.32289 25.7118 5.32289 25.6113C5.42333 25.5109 5.42333 25.4105 5.52377 25.31C5.62421 25.1091 5.82509 25.0087 6.02595 24.9083C6.22683 24.8078 6.4277 24.7074 6.62857 24.607C6.82944 24.5066 7.03032 24.5065 7.23119 24.4061C7.33163 24.4061 7.43206 24.4061 7.5325 24.4061C7.63294 24.4061 7.63294 24.4061 7.73338 24.4061C7.83381 24.4061 7.83381 24.4061 7.93424 24.4061C8.13512 24.4061 8.336 24.5066 8.53686 24.5066C8.73774 24.5066 8.93862 24.7074 9.13948 24.8078C9.23992 24.9083 9.34036 24.9083 9.4408 25.0087C9.4408 25.0087 9.4408 25.0087 9.54124 25.0087C9.54124 25.0087 9.64168 25.0087 9.54124 25.1091L9.4408 25.2096C9.34036 25.4105 9.13948 25.5109 9.03904 25.7118C8.93862 25.8122 8.93862 25.9127 8.83818 25.9127C8.6373 25.8122 8.53686 25.7118 8.336 25.6113C8.13512 25.5109 7.93424 25.5109 7.73338 25.5109C7.33163 25.5109 6.92988 25.7118 6.72901 26.1135C6.52813 26.5152 6.4277 26.9171 6.62857 27.3188C6.72901 27.7205 7.03032 28.0218 7.43206 28.1223C7.63294 28.2227 7.83381 28.2227 8.03468 28.1223C7.93425 28.1223 8.03468 28.1223 8.13512 28.1223C8.13512 28.1223 8.23556 28.1223 8.23556 28.0218C8.23556 28.0218 8.336 28.0218 8.336 27.9213V27.821V27.7205C8.336 27.6201 8.336 27.6201 8.336 27.5196C8.336 27.4191 8.336 27.4191 8.336 27.3188V27.2183C8.336 27.2183 8.336 27.2183 8.23556 27.2183C8.03468 27.2183 7.83381 27.2183 7.63294 27.2183C7.5325 27.2183 7.5325 27.2183 7.43206 27.2183H7.33163V27.1179C7.33163 27.0174 7.33163 26.9171 7.33163 26.8166C7.33163 26.7161 7.33163 26.6157 7.33163 26.5152C7.33163 26.4149 7.33163 26.4149 7.33163 26.3144V26.2139H7.43206C7.83381 26.2139 8.336 26.2139 8.73774 26.2139C8.93862 26.2139 9.13948 26.2139 9.34036 26.2139H9.4408V26.3144C9.4408 26.4149 9.4408 26.4149 9.4408 26.5152C9.4408 26.6157 9.4408 26.7161 9.4408 26.8166C9.4408 27.2183 9.4408 27.6201 9.4408 28.1223C9.54124 28.3232 9.54124 28.4235 9.54124 28.524C9.54124 28.524 9.54124 28.4235 9.54124 28.524ZM10.0434 29.1266C10.1439 28.8254 10.3447 28.4235 10.4452 28.1223C10.5456 27.821 10.7465 27.4191 10.8469 27.1179C10.9473 26.9171 10.9473 26.8166 11.0478 26.6157C11.0478 26.5152 11.1482 26.4149 11.1482 26.3144C11.1482 26.2139 11.2487 26.1135 11.2487 26.013C11.3491 25.8122 11.3491 25.7118 11.4495 25.5109C11.55 25.31 11.55 25.2096 11.6504 25.0087C11.6504 24.9083 11.7508 24.8078 11.7508 24.8078C11.7508 24.7074 11.8513 24.607 11.8513 24.5066C11.8513 24.5066 11.8513 24.5065 11.8513 24.4061C11.8513 24.4061 11.8513 24.4061 11.9517 24.4061H12.0522C12.1526 24.4061 12.253 24.4061 12.3535 24.4061C12.5543 24.4061 12.7552 24.4061 12.8556 24.4061H12.9561C12.9561 24.4061 12.9561 24.4061 13.0565 24.4061C13.0565 24.4061 13.0565 24.4061 13.0565 24.5066C13.0565 24.607 13.157 24.7074 13.157 24.8078C13.2573 25.0087 13.2573 25.1091 13.3578 25.31C13.4583 25.5109 13.4583 25.6113 13.5587 25.8122C13.7595 26.1135 13.86 26.5152 13.9604 26.8166C14.0609 27.1179 14.2617 27.5196 14.3622 27.821C14.4626 28.0218 14.4626 28.1223 14.5631 28.3232C14.5631 28.4235 14.6636 28.524 14.6636 28.6244C14.6636 28.7249 14.7639 28.8254 14.7639 28.9257C14.7639 29.0262 14.8644 29.1266 14.8644 29.1266C14.8644 29.1266 14.8644 29.1266 14.7639 29.1266C14.3622 29.1266 13.9604 29.1266 13.5587 29.1266C13.5587 29.1266 13.5587 29.1266 13.4583 29.1266C13.4583 29.1266 13.4583 29.1266 13.4583 29.0262C13.4583 29.0262 13.4583 28.9257 13.3578 28.9257C13.3578 28.8254 13.2573 28.7249 13.2573 28.6244C13.2573 28.524 13.157 28.4235 13.157 28.3232V28.2227H13.0565C12.9561 28.2227 12.9561 28.2227 12.8556 28.2227C12.4539 28.2227 12.0522 28.2227 11.6504 28.2227C11.55 28.2227 11.4495 28.2227 11.3491 28.2227H11.2487V28.3232C11.2487 28.4235 11.2487 28.4235 11.1482 28.4235C11.0478 28.6244 10.9473 28.8254 10.9473 28.9257C10.9473 28.9257 10.9473 28.9257 10.9473 29.0262C10.9473 29.0262 10.9473 29.0262 10.8469 29.0262H10.7465C10.646 29.0262 10.5456 29.0262 10.4452 29.0262C10.2443 29.0262 10.0434 29.0262 9.84254 29.0262C10.1439 29.1266 10.0434 29.1266 10.0434 29.1266ZM17.1744 36.9607L10.646 34.7511H24.1045L17.1744 36.9607ZM25.2094 29.1266C25.2094 29.1266 25.1089 29.1266 25.2094 29.1266C24.7072 29.1266 24.3055 29.1266 23.9036 29.1266C23.5019 29.1266 23.1002 29.1266 22.598 29.1266C22.3972 29.1266 22.1962 29.1266 21.9953 29.1266C21.895 29.1266 21.7945 29.1266 21.694 29.1266C21.694 29.1266 21.694 29.1266 21.5936 29.1266C21.5936 29.1266 21.5936 29.1266 21.4932 29.1266C21.4932 29.0262 21.4932 29.0262 21.4932 28.9257C21.4932 28.524 21.4932 28.1223 21.4932 27.6201C21.4932 27.2183 21.4932 26.7161 21.4932 26.3144C21.4932 25.9127 21.4932 25.4105 21.4932 25.0087C21.4932 24.9083 21.4932 24.8078 21.4932 24.7074C21.4932 24.607 21.4932 24.607 21.4932 24.5066C21.4932 24.5066 21.4932 24.5065 21.4932 24.4061V24.3056C21.694 24.3056 21.895 24.3056 22.0958 24.3056C22.4975 24.3056 22.8992 24.3056 23.4014 24.3056C23.8033 24.3056 24.205 24.3056 24.7072 24.3056C24.8077 24.3056 24.908 24.3056 25.0085 24.3056H25.1089V24.4061V24.5066C25.1089 24.7074 25.1089 24.9083 25.1089 25.1091V25.2096V25.31C25.1089 25.31 25.1089 25.31 25.0085 25.31C24.908 25.31 24.8077 25.31 24.7072 25.31C24.5063 25.31 24.3055 25.31 24.1045 25.31C23.7028 25.31 23.3011 25.31 22.7989 25.31C22.6984 25.31 22.6984 25.31 22.598 25.31C22.598 25.31 22.598 25.31 22.598 25.4105C22.598 25.4105 22.598 25.4105 22.598 25.5109C22.598 25.6113 22.598 25.7118 22.598 25.8122C22.598 25.9127 22.598 25.9127 22.598 26.013V26.1135H22.6984H22.7989H22.8992C23.3011 26.1135 23.7028 26.1135 24.205 26.1135C24.3055 26.1135 24.4058 26.1135 24.5063 26.1135C24.6067 26.1135 24.6067 26.1135 24.7072 26.1135C24.7072 26.1135 24.7072 26.1135 24.8077 26.1135C24.8077 26.1135 24.8077 26.2139 24.8077 26.3144V26.4149C24.8077 26.5152 24.8077 26.6157 24.8077 26.7161C24.8077 26.8166 24.8077 26.9171 24.8077 27.0174H24.7072C24.6067 27.0174 24.6067 27.0174 24.5063 27.0174C24.3055 27.0174 24.1045 27.0174 23.9036 27.0174C23.7028 27.0174 23.5019 27.0174 23.3011 27.0174C23.2006 27.0174 23.1002 27.0174 22.9997 27.0174C22.8992 27.0174 22.8992 27.0174 22.7989 27.0174H22.6984H22.598V27.1179C22.598 27.2183 22.598 27.2183 22.598 27.3188C22.598 27.4191 22.598 27.5196 22.598 27.6201V27.7205V27.821H22.6984C22.7989 27.821 22.8992 27.821 22.9997 27.821C23.4014 27.821 23.8033 27.821 24.3055 27.821C24.5063 27.821 24.7072 27.821 24.908 27.821H25.0085C25.0085 27.821 25.0085 27.821 25.0085 27.9213V28.0218C25.0085 28.1223 25.0085 28.2227 25.0085 28.3232C25.0085 28.4235 25.0085 28.524 25.0085 28.6244C25.2094 28.9257 25.2094 29.0262 25.2094 29.1266ZM22.6984 17.9782V8.03493C22.6984 6.12663 23.6024 5.22271 25.5107 5.22271H26.6154C28.5237 5.22271 29.4276 6.12663 29.4276 8.03493V11.1485H27.1176V8.13536C27.1176 7.53274 26.8163 7.23143 26.2137 7.23143H25.8119C25.2094 7.23143 24.908 7.53274 24.908 8.13536V17.8777C24.908 18.4803 25.2094 18.7816 25.8119 18.7816H26.2137C26.8163 18.7816 27.1176 18.4803 27.1176 17.8777V14.3625H29.4276V17.9782C29.4276 19.8865 28.5237 20.7904 26.6154 20.7904H25.4102C23.6024 20.8907 22.6984 19.8865 22.6984 17.9782ZM29.6286 27.9213C29.6286 28.1223 29.5281 28.3232 29.4276 28.4235C29.3273 28.6244 29.2268 28.7249 29.0259 28.8254C28.7246 29.0262 28.3229 29.1266 27.9212 29.2271C27.5193 29.2271 27.1176 29.2271 26.7159 29.1266C26.3141 29.0262 26.0129 28.8254 25.7116 28.6244L25.6111 28.524C25.6111 28.524 25.6111 28.524 25.5107 28.524C25.5107 28.524 25.5107 28.524 25.5107 28.4235C25.6111 28.3232 25.6111 28.3232 25.7116 28.2227C25.8119 28.0218 26.0129 27.9213 26.1133 27.821L26.2137 27.7205C26.515 27.9213 26.8163 28.1223 27.2181 28.2227C27.419 28.2227 27.6198 28.3232 27.7202 28.3232C27.9212 28.3232 28.122 28.2227 28.2224 28.1223C28.2224 28.0218 28.2224 27.9213 28.2224 27.821C28.122 27.7205 28.122 27.7205 28.0215 27.6201C27.8207 27.5196 27.6198 27.5196 27.5193 27.4191C27.1176 27.3188 26.8163 27.2183 26.515 27.1179C26.2137 26.9171 25.9124 26.6157 25.9124 26.3144C25.8119 25.9127 25.9124 25.5109 26.1133 25.2096C26.2137 25.0087 26.4146 24.9083 26.515 24.8078C26.7159 24.7074 26.8163 24.607 27.0171 24.607C27.2181 24.607 27.419 24.5066 27.6198 24.5066C27.8207 24.5066 28.0215 24.5066 28.2224 24.5066C28.6242 24.607 28.9256 24.7074 29.2268 24.9083C29.3273 25.0087 29.4276 25.0087 29.4276 25.1091H29.5281C29.5281 25.1091 29.5281 25.1091 29.5281 25.2096L29.4276 25.31C29.3273 25.4105 29.3273 25.5109 29.2268 25.5109C29.1264 25.6113 29.1264 25.7118 29.0259 25.7118C28.9254 25.8122 28.9256 25.9127 28.8251 25.9127C28.5237 25.7118 28.122 25.5109 27.8207 25.5109C27.6198 25.5109 27.419 25.5109 27.3185 25.5109C27.1176 25.6113 27.0172 25.8122 27.1176 26.013C27.1176 26.1135 27.2181 26.1135 27.3185 26.2139C27.419 26.2139 27.5193 26.3144 27.6198 26.3144C27.8207 26.4149 28.0215 26.4149 28.122 26.4149C28.3229 26.5152 28.5237 26.5152 28.6242 26.6157C28.8251 26.7161 28.9254 26.8166 29.1264 26.9171C29.2268 27.0174 29.4276 27.2183 29.4276 27.3188C29.5281 27.5196 29.5281 27.7205 29.5281 27.821C29.6286 27.821 29.6286 27.821 29.6286 27.9213Z" fill="#F4D400"/>
<path d="M13.0561 27.3191C13.0561 27.3191 13.0561 27.2187 13.0561 27.3191C12.9557 27.1182 12.8553 26.9174 12.8553 26.7165C12.8553 26.616 12.7548 26.5156 12.7548 26.4152C12.7548 26.3148 12.6544 26.2143 12.6544 26.2143C12.6544 26.1138 12.5539 26.0135 12.5539 25.913C12.4535 26.1138 12.4535 26.3148 12.3531 26.4152C12.2526 26.616 12.2526 26.8169 12.1522 26.9174C12.1522 27.0178 12.0518 27.1182 12.0518 27.2187C12.3531 27.2187 12.6544 27.2187 12.8553 27.2187C12.9557 27.3191 13.0561 27.3191 13.0561 27.3191Z" fill="#F4D400"/>
<path d="M15.6679 12.1528V8.33619C15.6679 7.73357 15.3665 7.43225 14.7638 7.43225H13.7594V13.0567H14.7638C15.3665 13.0567 15.6679 12.7554 15.6679 12.1528Z" fill="#F4D400"/>
</svg>
