<svg width="31" height="39" viewBox="0 0 31 39" fill="none" xmlns="http://www.w3.org/2000/svg">
<path d="M17.1933 33.9253C15.6634 34.0223 14.2355 34.0223 12.7057 33.7315C10.5638 33.3438 8.52388 32.5683 6.68799 31.3083C3.93415 29.4667 1.99626 26.9464 0.874334 23.9416C0.466363 22.7784 0.160377 21.6153 0.0583826 20.3553C-0.247599 17.2535 0.670342 14.5395 2.20026 11.8254C4.8521 7.07586 8.82987 3.5864 13.5215 0.775437C13.8276 0.581577 14.2355 0.387719 14.5415 0.19386C14.7455 0.0969297 14.9494 0 15.2555 0C15.5615 0 15.6634 0.19386 15.5615 0.387719C15.4594 0.581577 15.3575 0.678508 15.2555 0.775437C14.4395 1.9386 14.1336 3.29561 13.8276 4.65262C14.7455 4.65262 15.5615 4.65262 16.3775 4.65262C19.3353 4.74955 21.9871 5.71886 24.3329 7.26972C27.0868 9.11139 29.0247 11.6316 30.0446 14.6364C31.1665 17.835 31.1665 21.0338 29.8407 24.2324C27.9028 28.885 24.7408 32.6653 20.5592 35.6701C19.2332 36.6394 17.8054 37.4148 16.4794 38.2873C16.2754 38.3841 16.0715 38.4811 15.8675 38.578C15.7654 38.578 15.4594 38.5779 15.3575 38.4811C15.2555 38.3841 15.3575 38.1903 15.4594 38.0934C16.1734 37.0271 16.5814 35.864 16.8873 34.7008C16.9894 34.6038 17.0914 34.3131 17.1933 33.9253ZM15.4594 25.1047C18.8253 25.1047 21.5791 22.4876 21.5791 19.289C21.5791 16.0903 18.8253 13.5702 15.5615 13.5702C12.1957 13.5702 9.44183 16.1873 9.44183 19.289C9.44183 22.5846 12.0937 25.1047 15.4594 25.1047Z" fill="#F4D400"/>
</svg>
