<svg width="148" height="12" viewBox="0 0 148 12" fill="none" xmlns="http://www.w3.org/2000/svg">
<path d="M19.7399 1.97156C17.2876 1.97156 15.4925 3.70645 15.4925 6.06896C15.4925 8.43147 17.2866 10.1664 19.7399 10.1664C22.1932 10.1664 23.9873 8.43147 23.9873 6.06896C23.9567 3.70645 22.1922 1.97156 19.7399 1.97156ZM19.6797 8.58149C18.2142 8.58149 17.257 7.56504 17.257 6.06896C17.257 4.57287 18.2142 3.55643 19.6797 3.55643C21.1748 3.55643 22.1024 4.54328 22.1024 6.06896C22.1024 7.56504 21.1452 8.58149 19.6797 8.58149Z" fill="white"/>
<path d="M7.02834 5.88925C7.89579 5.53003 8.67342 4.6932 8.67342 3.46653C8.67342 1.73164 7.29776 0.565186 5.29345 0.565186H0V11.5419H5.41387C7.53758 11.5419 8.88365 10.3459 8.88365 8.52118C8.85304 7.35472 8.0754 6.27807 7.02834 5.88925ZM1.70427 2.03168H5.02403C6.1609 2.03168 6.87832 2.6593 6.87832 3.61655C6.87832 4.5738 6.1609 5.17182 5.02403 5.17182H1.70427V2.03168ZM5.08424 10.0765H1.70427V6.69751H5.08424C6.31091 6.69751 7.08855 7.35574 7.08855 8.40178C7.08855 9.44884 6.31091 10.0765 5.08424 10.0765Z" fill="white"/>
<path d="M30.9525 1.20644C30.9525 0.810478 31.2739 0.489014 31.6699 0.489014H39.8892C40.2841 0.489014 40.6046 0.808437 40.6066 1.20338C40.6086 1.60138 40.2862 1.92489 39.8892 1.92489H31.6699C31.2739 1.92489 30.9525 1.60342 30.9525 1.20644Z" fill="white"/>
<path d="M30.9525 11.0492C30.9525 10.6533 31.2739 10.3318 31.6699 10.3318H39.8892C40.2841 10.3318 40.6046 10.6512 40.6066 11.0462C40.6086 11.4442 40.2862 11.7677 39.8892 11.7677H31.6699C31.2739 11.7666 30.9525 11.4452 30.9525 11.0492Z" fill="white"/>
<path d="M44.6857 6.82227H39.0779C38.6666 6.82227 38.3349 6.48447 38.3431 6.0732C38.3513 5.67316 38.6778 5.35271 39.0779 5.35271L44.6857 5.34863C45.0898 5.34863 45.4184 5.67418 45.4214 6.07933V6.08341C45.4235 6.48958 45.0939 6.82227 44.6857 6.82227Z" fill="white"/>
<path d="M131.039 0.566895H129.304V11.5436H131.039V0.566895Z" fill="white"/>
<path d="M66.736 8.46231C66.736 10.0472 65.5696 11.7525 62.31 11.7525C59.9475 11.7525 58.5412 10.7952 57.7942 9.98799L57.7044 9.89818L58.7515 8.67151L58.8709 8.79091C59.4097 9.35934 60.5762 10.286 62.3702 10.286C64.2541 10.286 64.942 9.41854 64.942 8.58171C64.942 7.41525 63.5959 7.08664 62.0406 6.69782C60.1863 6.2192 58.0922 5.71098 58.0922 3.52706C58.0922 1.70236 59.8271 0.416504 62.2192 0.416504C63.9541 0.416504 65.3594 0.924724 66.4064 1.97178L66.4962 2.06159L65.4492 3.25764L65.3298 3.13824C64.5521 2.331 63.3857 1.88197 62.0998 1.88197C60.7833 1.88197 59.8567 2.5096 59.8567 3.43725C59.8567 4.36491 61.0834 4.69351 62.5182 5.05274C64.4031 5.50075 66.736 6.06918 66.736 8.46231Z" fill="white"/>
<path d="M118.029 0.386963C114.619 0.386963 112.137 2.78009 112.137 6.06923C112.137 9.35838 114.619 11.7515 118.029 11.7515C121.438 11.7515 123.92 9.35838 123.92 6.06923C123.92 2.78009 121.438 0.386963 118.029 0.386963ZM118.029 10.2564C115.576 10.2564 113.931 8.55217 113.931 6.03964C113.931 3.52711 115.576 1.82284 118.029 1.82284C120.481 1.82284 122.126 3.52711 122.126 6.03964C122.126 8.52155 120.451 10.2564 118.029 10.2564Z" fill="white"/>
<path d="M140.998 0.566895H136.901V11.5436H140.998C144.558 11.5436 147.07 9.30053 147.07 6.07057C147.07 2.84062 144.588 0.566895 140.998 0.566895ZM140.998 10.0771H138.636V2.03237H140.998C143.601 2.03237 145.275 3.61724 145.275 6.06955C145.275 8.46268 143.57 10.0771 140.998 10.0771Z" fill="white"/>
<path d="M104.3 7.1462C105.826 6.937 107.202 5.88994 107.202 3.91625C107.202 1.91194 105.676 0.566895 103.433 0.566895H98.6478V11.5436H100.383V7.29622H102.446L105.377 11.5436H107.441L104.3 7.1462ZM100.383 5.83075V2.03237H103.253C104.539 2.03237 105.407 2.81 105.407 3.91625C105.407 5.05311 104.51 5.83075 103.253 5.83075H100.383Z" fill="white"/>
<path d="M71.1926 0.566895H80.2549V2.03237H76.5759V11.5426H74.841V2.03237H71.1926V0.566895Z" fill="white"/>
<path d="M85.3392 0.566895H93.2044V2.03237H87.0741V5.17251H93.085V6.63799H87.0741V10.018H93.2044V11.4834H85.3392V0.566895Z" fill="white"/>
<path d="M47.2043 0.402344C43.7948 0.402344 41.3129 2.79547 41.3129 6.08462C41.3129 9.37376 43.7948 11.7669 47.2043 11.7669C50.6139 11.7669 53.0958 9.37376 53.0958 6.08462C53.0958 2.79547 50.6139 0.402344 47.2043 0.402344ZM47.2043 10.2718C44.752 10.2718 43.1069 8.56755 43.1069 6.05502C43.1069 3.54249 44.752 1.83822 47.2043 1.83822C49.6567 1.83822 51.3017 3.54249 51.3017 6.05502C51.3017 8.53693 49.6271 10.2718 47.2043 10.2718Z" fill="white"/>
</svg>
