<svg width="370" height="350" viewBox="0 0 370 350" fill="none" xmlns="http://www.w3.org/2000/svg">
<circle r="175" transform="matrix(1 0 0 -1 175 175)" fill="#F4D400"/>
<path d="M342.867 33.8976C342.761 22.2442 333.304 12.8577 321.65 12.8577C318.852 12.8577 316.16 13.4244 313.716 14.4162C309.537 5.87984 300.788 0 290.657 0C278.402 0 268.165 8.57181 265.615 20.0835C254.103 20.792 245 30.391 245 42.0798C245 54.2645 254.882 64.1469 267.067 64.1469H337.306C345.949 64.1469 352.962 57.1336 352.962 48.4909C352.962 41.8318 348.783 36.1291 342.867 33.8976Z" fill="#229FFF"/>
<path opacity="0.1" d="M359.94 33.8976C359.834 22.2442 350.377 12.8577 338.723 12.8577C335.925 12.8577 333.233 13.4244 330.789 14.4162C326.609 5.87984 317.86 0 307.73 0C295.474 0 285.238 8.60723 282.688 20.0835C271.176 20.8274 262.037 30.391 262.037 42.1152C262.037 54.2999 271.92 64.1823 284.104 64.1823H354.344C362.986 64.1823 370 57.169 370 48.5264C370.035 41.8319 365.82 36.1291 359.94 33.8976Z" fill="white"/>
<mask id="mask0" mask-type="alpha" maskUnits="userSpaceOnUse" x="0" y="0" width="350" height="350">
<circle r="175" transform="matrix(1 0 0 -1 175 175)" fill="#042356"/>
</mask>
<g mask="url(#mask0)">
<path d="M179.975 61.3486H232.582C240.676 61.3486 247.196 67.8579 247.196 75.9383V335.41C247.196 343.491 240.676 350 232.582 350H179.975V61.3486Z" fill="url(#paint0_linear)"/>
<path d="M185.146 61.3486H71.6131C63.5197 61.3486 57 67.8579 57 75.9383V335.41C57 343.491 63.5197 350 71.6131 350H185.146C193.239 350 199.759 343.491 199.759 335.41V75.9383C199.759 67.8579 193.239 61.3486 185.146 61.3486Z" fill="#020E30"/>
<path d="M199.984 290.294H57V292.988H199.984V290.294Z" fill="black"/>
<path d="M199.984 233.058H57V235.751H199.984V233.058Z" fill="black"/>
<path d="M199.984 175.822H57V178.515H199.984V175.822Z" fill="black"/>
<path d="M199.984 118.585H57V121.279H199.984V118.585Z" fill="black"/>
<path opacity="0.1" d="M128.267 99.9552H80.3811C77.4585 99.9552 74.9855 102.424 74.9855 105.342C74.9855 108.26 77.4585 110.729 80.3811 110.729H128.267C131.19 110.729 133.663 108.26 133.663 105.342C133.663 102.424 131.19 99.9552 128.267 99.9552Z" fill="#229FFF"/>
<path opacity="0.1" d="M128.267 85.8146H80.3811C77.4585 85.8146 74.9855 88.2836 74.9855 91.2015C74.9855 94.1195 77.4585 96.5885 80.3811 96.5885H128.267C131.19 96.5885 133.663 94.1195 133.663 91.2015C133.663 88.2836 131.19 85.8146 128.267 85.8146Z" fill="#229FFF"/>
<path opacity="0.1" d="M128.267 71.6743H80.3811C77.4585 71.6743 74.9855 74.1433 74.9855 77.0613C74.9855 79.9792 77.4585 82.4482 80.3811 82.4482H128.267C131.19 82.4482 133.663 79.9792 133.663 77.0613C133.663 74.1433 131.19 71.6743 128.267 71.6743Z" fill="#229FFF"/>
<path opacity="0.1" d="M138.676 110.976H158.685V99.9777H138.676V110.976Z" fill="#229FFF"/>
<path opacity="0.1" d="M138.676 96.7954H158.685V85.797H138.676V96.7954Z" fill="#229FFF"/>
<path opacity="0.1" d="M138.676 82.6141H158.685V71.6158H138.676V82.6141Z" fill="#229FFF"/>
<path opacity="0.1" d="M161.737 110.976H181.745V99.9777H161.737V110.976Z" fill="#229FFF"/>
<path opacity="0.1" d="M161.737 96.7954H181.745V85.797H161.737V96.7954Z" fill="#229FFF"/>
<path d="M161.737 82.6141H181.745V71.6158H161.737V82.6141Z" fill="#F4D400"/>
<path opacity="0.1" d="M128.267 157.192H80.3811C77.4585 157.192 74.9855 159.661 74.9855 162.579C74.9855 165.497 77.4585 167.966 80.3811 167.966H128.267C131.19 167.966 133.663 165.497 133.663 162.579C133.663 159.661 131.19 157.192 128.267 157.192Z" fill="#229FFF"/>
<path d="M128.267 143.051H80.3811C77.4585 143.051 74.9855 145.52 74.9855 148.438C74.9855 151.356 77.4585 153.825 80.3811 153.825H128.267C131.19 153.825 133.663 151.356 133.663 148.438C133.663 145.52 131.19 143.051 128.267 143.051Z" fill="#F4D400"/>
<path opacity="0.1" d="M128.267 128.91H80.3811C77.4585 128.91 74.9855 131.379 74.9855 134.297C74.9855 137.215 77.4585 139.684 80.3811 139.684H128.267C131.19 139.684 133.663 137.215 133.663 134.297C133.663 131.379 131.19 128.91 128.267 128.91Z" fill="#229FFF"/>
<path opacity="0.1" d="M138.676 168.2H158.685V157.201H138.676V168.2Z" fill="#229FFF"/>
<path opacity="0.1" d="M138.676 154.019H158.685V143.021H138.676V154.019Z" fill="#229FFF"/>
<path opacity="0.1" d="M138.676 139.838H158.685V128.84H138.676V139.838Z" fill="#229FFF"/>
<path opacity="0.1" d="M161.737 168.2H181.745V157.201H161.737V168.2Z" fill="#229FFF"/>
<path opacity="0.1" d="M161.737 154.019H181.745V143.021H161.737V154.019Z" fill="#229FFF"/>
<path d="M161.737 139.838H181.745V128.84H161.737V139.838Z" fill="#F4D400"/>
<path opacity="0.1" d="M128.267 214.428H80.3811C77.4585 214.428 74.9855 216.897 74.9855 219.815C74.9855 222.733 77.4585 225.202 80.3811 225.202H128.267C131.19 225.202 133.663 222.733 133.663 219.815C133.663 216.897 131.19 214.428 128.267 214.428Z" fill="#229FFF"/>
<path opacity="0.1" d="M128.267 200.287H80.3811C77.4585 200.287 74.9855 202.756 74.9855 205.674C74.9855 208.592 77.4585 211.061 80.3811 211.061H128.267C131.19 211.061 133.663 208.592 133.663 205.674C133.663 202.756 131.19 200.287 128.267 200.287Z" fill="#229FFF"/>
<path opacity="0.1" d="M128.267 186.147H80.3811C77.4585 186.147 74.9855 188.616 74.9855 191.534C74.9855 194.452 77.4585 196.921 80.3811 196.921H128.267C131.19 196.921 133.663 194.452 133.663 191.534C133.663 188.616 131.19 186.147 128.267 186.147Z" fill="#229FFF"/>
<path d="M138.676 225.423H158.685V214.425H138.676V225.423Z" fill="#F4D400"/>
<path opacity="0.1" d="M138.676 211.243H158.685V200.244H138.676V211.243Z" fill="#229FFF"/>
<path opacity="0.1" d="M138.676 197.062H158.685V186.063H138.676V197.062Z" fill="#229FFF"/>
<path opacity="0.1" d="M161.737 225.423H181.745V214.425H161.737V225.423Z" fill="#229FFF"/>
<path opacity="0.1" d="M161.737 211.243H181.745V200.244H161.737V211.243Z" fill="#229FFF"/>
<path opacity="0.1" d="M161.737 197.062H181.745V186.063H161.737V197.062Z" fill="#229FFF"/>
<path opacity="0.1" d="M128.267 271.665H80.3811C77.4585 271.665 74.9855 274.134 74.9855 277.052C74.9855 279.969 77.4585 282.438 80.3811 282.438H128.267C131.19 282.438 133.663 279.969 133.663 277.052C133.663 274.134 131.19 271.665 128.267 271.665Z" fill="#229FFF"/>
<path opacity="0.1" d="M128.267 257.524H80.3811C77.4585 257.524 74.9855 259.993 74.9855 262.911C74.9855 265.829 77.4585 268.298 80.3811 268.298H128.267C131.19 268.298 133.663 265.829 133.663 262.911C133.663 259.993 131.19 257.524 128.267 257.524Z" fill="#229FFF"/>
<path opacity="0.1" d="M128.267 243.384H80.3811C77.4585 243.384 74.9855 245.853 74.9855 248.771C74.9855 251.689 77.4585 254.158 80.3811 254.158H128.267C131.19 254.158 133.663 251.689 133.663 248.771C133.663 245.853 131.19 243.384 128.267 243.384Z" fill="#229FFF"/>
<path opacity="0.1" d="M138.676 282.647H158.685V271.649H138.676V282.647Z" fill="#229FFF"/>
<path d="M138.676 268.466H158.685V257.468H138.676V268.466Z" fill="#F4D400"/>
<path opacity="0.1" d="M138.676 254.285H158.685V243.287H138.676V254.285Z" fill="#229FFF"/>
<path opacity="0.1" d="M161.737 282.647H181.745V271.649H161.737V282.647Z" fill="#229FFF"/>
<path opacity="0.1" d="M161.737 268.466H181.745V257.468H161.737V268.466Z" fill="#229FFF"/>
<path opacity="0.1" d="M161.737 254.285H181.745V243.287H161.737V254.285Z" fill="#229FFF"/>
<path opacity="0.1" d="M128.267 328.901H80.3811C77.4585 328.901 74.9855 331.37 74.9855 334.288C74.9855 337.206 77.4585 339.675 80.3811 339.675H128.267C131.19 339.675 133.663 337.206 133.663 334.288C133.663 331.37 131.19 328.901 128.267 328.901Z" fill="#229FFF"/>
<path d="M128.267 314.76H80.3811C77.4585 314.76 74.9855 317.229 74.9855 320.147C74.9855 323.065 77.4585 325.534 80.3811 325.534H128.267C131.19 325.534 133.663 323.065 133.663 320.147C133.663 317.229 131.19 314.76 128.267 314.76Z" fill="#F4D400"/>
<path opacity="0.1" d="M128.267 300.619H80.3811C77.4585 300.619 74.9855 303.088 74.9855 306.006C74.9855 308.924 77.4585 311.393 80.3811 311.393H128.267C131.19 311.393 133.663 308.924 133.663 306.006C133.663 303.088 131.19 300.619 128.267 300.619Z" fill="#229FFF"/>
<path opacity="0.1" d="M138.676 339.87H158.685V328.872H138.676V339.87Z" fill="#229FFF"/>
<path opacity="0.1" d="M138.676 325.69H158.685V314.691H138.676V325.69Z" fill="#229FFF"/>
<path opacity="0.1" d="M138.676 311.509H158.685V300.51H138.676V311.509Z" fill="#229FFF"/>
<path opacity="0.1" d="M161.737 339.87H181.745V328.872H161.737V339.87Z" fill="#229FFF"/>
<path opacity="0.1" d="M161.737 325.69H181.745V314.691H161.737V325.69Z" fill="#229FFF"/>
<path opacity="0.1" d="M161.737 311.509H181.745V300.51H161.737V311.509Z" fill="#229FFF"/>
</g>
<path d="M311.044 99.028H356.907C363.876 99.028 369.721 104.635 369.721 111.812V337.216C369.721 344.169 364.101 350 356.907 350H311.044V99.028Z" fill="url(#paint1_linear)"/>
<path d="M315.54 99.028H216.845C209.876 99.028 204.031 104.635 204.031 111.812V337.216C204.031 344.169 209.651 350 216.845 350H315.54C322.509 350 328.355 344.393 328.355 337.216V111.812C328.355 104.635 322.734 99.028 315.54 99.028Z" fill="#020E30"/>
<path d="M328.355 297.967H204.031V300.209H328.355V297.967Z" fill="black"/>
<path d="M328.355 248.176H204.031V250.419H328.355V248.176Z" fill="black"/>
<path d="M328.355 198.385H204.031V200.628H328.355V198.385Z" fill="black"/>
<path d="M328.355 148.594H204.031V150.837H328.355V148.594Z" fill="black"/>
<path opacity="0.1" d="M266.08 132.446H224.489C221.791 132.446 219.768 134.465 219.768 137.156C219.768 139.847 221.791 141.866 224.489 141.866H266.08C268.778 141.866 270.801 139.847 270.801 137.156C270.801 134.689 268.778 132.446 266.08 132.446Z" fill="#229FFF"/>
<path opacity="0.1" d="M266.08 120.335H224.489C221.791 120.335 219.768 122.354 219.768 125.045C219.768 127.736 221.791 129.755 224.489 129.755H266.08C268.778 129.755 270.801 127.736 270.801 125.045C270.801 122.354 268.778 120.335 266.08 120.335Z" fill="#229FFF"/>
<path opacity="0.1" d="M266.08 107.999H224.489C221.791 107.999 219.768 110.018 219.768 112.709C219.768 115.401 221.791 117.419 224.489 117.419H266.08C268.778 117.419 270.801 115.401 270.801 112.709C270.801 110.018 268.778 107.999 266.08 107.999Z" fill="#229FFF"/>
<path opacity="0.1" d="M275.291 316.293H292.602V306.873H275.291V316.293Z" fill="#229FFF"/>
<path d="M275.291 328.572H292.602V319.152H275.291V328.572Z" fill="#F4D400"/>
<path opacity="0.1" d="M275.291 341.074H292.602V331.654H275.291V341.074Z" fill="#229FFF"/>
<path opacity="0.1" d="M295.451 316.293H312.762V306.873H295.451V316.293Z" fill="#229FFF"/>
<path opacity="0.1" d="M295.451 328.572H312.762V319.152H295.451V328.572Z" fill="#229FFF"/>
<path opacity="0.1" d="M295.451 341.074H312.762V331.654H295.451V341.074Z" fill="#229FFF"/>
<path opacity="0.1" d="M266.08 182.237H224.489C221.791 182.237 219.768 184.255 219.768 186.947C219.768 189.638 221.791 191.657 224.489 191.657H266.08C268.778 191.657 270.801 189.638 270.801 186.947C270.801 184.48 268.778 182.237 266.08 182.237Z" fill="#229FFF"/>
<path opacity="0.1" d="M266.08 169.901H224.489C221.791 169.901 219.768 171.92 219.768 174.611C219.768 177.302 221.791 179.321 224.489 179.321H266.08C268.778 179.321 270.801 177.302 270.801 174.611C270.801 172.144 268.778 169.901 266.08 169.901Z" fill="#229FFF"/>
<path d="M266.08 157.566H224.489C221.791 157.566 219.768 159.584 219.768 162.276C219.768 164.967 221.791 166.986 224.489 166.986H266.08C268.778 166.986 270.801 164.967 270.801 162.276C270.801 159.808 268.778 157.566 266.08 157.566Z" fill="#F4D400"/>
<path opacity="0.1" d="M275.291 266.608H292.602V257.188H275.291V266.608Z" fill="#229FFF"/>
<path opacity="0.1" d="M275.291 278.887H292.602V269.467H275.291V278.887Z" fill="#229FFF"/>
<path opacity="0.1" d="M275.291 291.165H292.602V281.745H275.291V291.165Z" fill="#229FFF"/>
<path opacity="0.1" d="M295.451 266.608H312.762V257.188H295.451V266.608Z" fill="#229FFF"/>
<path opacity="0.1" d="M295.451 278.887H312.762V269.467H295.451V278.887Z" fill="#229FFF"/>
<path d="M295.451 291.165H312.762V281.745H295.451V291.165Z" fill="#F4D400"/>
<path d="M266.08 232.027H224.489C221.791 232.027 219.768 234.046 219.768 236.737C219.768 239.429 221.791 241.447 224.489 241.447H266.08C268.778 241.447 270.801 239.429 270.801 236.737C270.801 234.046 268.778 232.027 266.08 232.027Z" fill="#F4D400"/>
<path opacity="0.1" d="M266.08 219.692H224.489C221.791 219.692 219.768 221.71 219.768 224.402C219.768 227.093 221.791 229.112 224.489 229.112H266.08C268.778 229.112 270.801 227.093 270.801 224.402C270.801 221.935 268.778 219.692 266.08 219.692Z" fill="#229FFF"/>
<path opacity="0.1" d="M266.08 207.356H224.489C221.791 207.356 219.768 209.375 219.768 212.066C219.768 214.758 221.791 216.776 224.489 216.776H266.08C268.778 216.776 270.801 214.758 270.801 212.066C270.801 209.599 268.778 207.356 266.08 207.356Z" fill="#229FFF"/>
<path opacity="0.1" d="M275.291 216.923H292.602V207.503H275.291V216.923Z" fill="#229FFF"/>
<path opacity="0.1" d="M275.291 229.202H292.602V219.782H275.291V229.202Z" fill="#229FFF"/>
<path opacity="0.1" d="M275.291 241.48H292.602V232.06H275.291V241.48Z" fill="#229FFF"/>
<path opacity="0.1" d="M295.451 216.923H312.762V207.503H295.451V216.923Z" fill="#229FFF"/>
<path opacity="0.1" d="M295.451 229.202H312.762V219.782H295.451V229.202Z" fill="#229FFF"/>
<path opacity="0.1" d="M295.451 241.48H312.762V232.06H295.451V241.48Z" fill="#229FFF"/>
<path opacity="0.1" d="M266.08 281.818H224.489C221.791 281.818 219.768 283.837 219.768 286.528C219.768 289.219 221.791 291.238 224.489 291.238H266.08C268.778 291.238 270.801 289.219 270.801 286.528C270.801 283.837 268.778 281.818 266.08 281.818Z" fill="#229FFF"/>
<path d="M266.08 269.483H224.489C221.791 269.483 219.768 271.501 219.768 274.192C219.768 276.884 221.791 278.902 224.489 278.902H266.08C268.778 278.902 270.801 276.884 270.801 274.192C270.801 271.501 268.778 269.483 266.08 269.483Z" fill="#F4D400"/>
<path opacity="0.1" d="M266.08 257.147H224.489C221.791 257.147 219.768 259.166 219.768 261.857C219.768 264.548 221.791 266.567 224.489 266.567H266.08C268.778 266.567 270.801 264.548 270.801 261.857C270.801 259.166 268.778 257.147 266.08 257.147Z" fill="#229FFF"/>
<path opacity="0.1" d="M275.291 167.238H292.602V157.819H275.291V167.238Z" fill="#229FFF"/>
<path opacity="0.1" d="M275.291 179.516H292.602V170.097H275.291V179.516Z" fill="#229FFF"/>
<path opacity="0.1" d="M275.291 191.795H292.602V182.375H275.291V191.795Z" fill="#229FFF"/>
<path d="M295.451 167.238H312.762V157.819H295.451V167.238Z" fill="#F4D400"/>
<path opacity="0.1" d="M295.451 179.516H312.762V170.097H295.451V179.516Z" fill="#229FFF"/>
<path opacity="0.1" d="M295.451 191.795H312.762V182.375H295.451V191.795Z" fill="#229FFF"/>
<path opacity="0.1" d="M266.08 331.385H224.489C221.791 331.385 219.768 333.403 219.768 336.094C219.768 338.786 221.791 340.804 224.489 340.804H266.08C268.778 340.804 270.801 338.786 270.801 336.094C270.801 333.627 268.778 331.385 266.08 331.385Z" fill="#229FFF"/>
<path opacity="0.1" d="M266.08 319.273H224.489C221.791 319.273 219.768 321.292 219.768 323.983C219.768 326.675 221.791 328.693 224.489 328.693H266.08C268.778 328.693 270.801 326.675 270.801 323.983C270.801 321.292 268.778 319.273 266.08 319.273Z" fill="#229FFF"/>
<path opacity="0.1" d="M266.08 306.938H224.489C221.791 306.938 219.768 308.956 219.768 311.648C219.768 314.339 221.791 316.358 224.489 316.358H266.08C268.778 316.358 270.801 314.339 270.801 311.648C270.801 308.956 268.778 306.938 266.08 306.938Z" fill="#229FFF"/>
<path d="M275.291 117.329H292.602V107.909H275.291V117.329Z" fill="#F4D400"/>
<path opacity="0.1" d="M275.291 129.608H292.602V120.188H275.291V129.608Z" fill="#229FFF"/>
<path opacity="0.1" d="M275.291 142.11H292.602V132.69H275.291V142.11Z" fill="#229FFF"/>
<path opacity="0.1" d="M295.451 117.329H312.762V107.909H295.451V117.329Z" fill="#229FFF"/>
<path opacity="0.1" d="M295.451 129.608H312.762V120.188H295.451V129.608Z" fill="#229FFF"/>
<path opacity="0.1" d="M295.451 142.11H312.762V132.69H295.451V142.11Z" fill="#229FFF"/>
<defs>
<linearGradient id="paint0_linear" x1="213.585" y1="61.3486" x2="213.585" y2="350" gradientUnits="userSpaceOnUse">
<stop stop-color="#229FFF"/>
<stop offset="1" stop-color="#020E30"/>
</linearGradient>
<linearGradient id="paint1_linear" x1="340.382" y1="99.028" x2="340.382" y2="350" gradientUnits="userSpaceOnUse">
<stop stop-color="#229FFF"/>
<stop offset="1" stop-color="#229FFF"/>
</linearGradient>
</defs>
</svg>
