<svg width="90" height="60" viewBox="0 0 90 60" fill="none" xmlns="http://www.w3.org/2000/svg">
<path d="M80.287 14.9935C79.7365 15.5386 78.9961 15.8112 78.0661 15.8112H76.249V9.49847H78.0661C78.9961 9.49847 79.7365 9.77735 80.287 10.3351C80.8499 10.8802 81.1315 11.6534 81.1315 12.6548C81.1315 13.6562 80.8499 14.4358 80.287 14.9935Z" fill="#F4D400"/>
<path fill-rule="evenodd" clip-rule="evenodd" d="M0 0H89.9999V60H0V0ZM4.5 24H85.4999V55.5H4.5V24ZM6.88615 12.1225V8.07253H13.8794V6H4.5V19.3099H6.88615V14.2141H13.0901V12.1225H6.88615ZM17.5636 17.9599C18.5548 18.9866 19.9375 19.5 21.7118 19.5C23.4861 19.5 24.8627 18.9866 25.8418 17.9599C26.8328 16.9204 27.3285 15.4373 27.3285 13.5106V6H24.9791V13.4155C24.9791 16.0267 23.8961 17.3324 21.7303 17.3324C19.5521 17.3324 18.463 16.0267 18.463 13.4155V6H16.0769V13.5106C16.0769 15.4373 16.5724 16.9204 17.5636 17.9599ZM30.6703 6H33.0563V17.2183H39.7744V19.3099H30.6703V6ZM44.0443 6H41.6582V19.3099H50.7623V17.2183H44.0443V6ZM69.8301 6V19.3099H65.4983V14.4042H61.497V19.3099H57.1652V6H61.497V10.7155H65.4983V6H69.8301ZM78.2498 6H71.9172V19.3099H78.2498C79.6814 19.3099 80.9417 19.0436 82.0309 18.5113C83.1321 17.9662 83.9826 17.1929 84.5821 16.1915C85.1939 15.1901 85.4999 14.0113 85.4999 12.6549C85.4999 11.2986 85.1939 10.1197 84.5821 9.1183C83.9826 8.11691 83.1321 7.35 82.0309 6.81761C80.9417 6.27253 79.6814 6 78.2498 6Z" fill="#F4D400"/>
<path d="M23.5946 31.7729V47.7259H19.7888V34.7354H16.4999V31.7729H23.5946Z" fill="#F4D400"/>
<path d="M33.499 47.9994C32.1364 47.9994 30.9226 47.6728 29.8576 47.0194C28.7926 46.3661 27.9548 45.4241 27.3439 44.1934C26.7488 42.9476 26.4511 41.4662 26.4511 39.7494C26.4511 38.0325 26.7488 36.5589 27.3439 35.3282C27.9548 34.0824 28.7926 33.1327 29.8576 32.4793C30.9226 31.8262 32.1364 31.4994 33.499 31.4994C34.8614 31.4994 36.0753 31.8262 37.1403 32.4793C38.2051 33.1327 39.0353 34.0824 39.6303 35.3282C40.2413 36.5589 40.5466 38.0325 40.5466 39.7494C40.5466 41.4662 40.2413 42.9476 39.6303 44.1934C39.0353 45.4241 38.2051 46.3661 37.1403 47.0194C36.0753 47.6728 34.8614 47.9994 33.499 47.9994ZM33.499 44.8772C34.5012 44.8772 35.2844 44.4594 35.8482 43.6237C36.4276 42.7882 36.7173 41.4967 36.7173 39.7494C36.7173 38.0023 36.4276 36.7108 35.8482 35.8751C35.2844 35.0396 34.5012 34.6217 33.499 34.6217C32.5122 34.6217 31.7292 35.0396 31.1498 35.8751C30.5858 36.7108 30.304 38.0023 30.304 39.7494C30.304 41.4967 30.5858 42.7882 31.1498 43.6237C31.7292 44.4594 32.5122 44.8772 33.499 44.8772Z" fill="#F4D400"/>
<path d="M53.6486 39.3392C54.4629 39.7342 55.0815 40.2508 55.5043 40.889C55.943 41.5271 56.1622 42.264 56.1622 43.0995C56.1622 44.0872 55.8725 44.9531 55.293 45.6977C54.7134 46.4269 53.8991 46.9967 52.8497 47.4069C51.8004 47.802 50.5867 47.9994 49.2084 47.9994C47.8303 47.9994 46.6164 47.802 45.567 47.4069C44.5335 46.9967 43.727 46.4269 43.1473 45.6977C42.5835 44.9531 42.3018 44.0872 42.3018 43.0995C42.3018 42.264 42.513 41.5271 42.936 40.889C43.3745 40.2508 43.9931 39.7342 44.792 39.3392C44.181 38.9745 43.7113 38.5187 43.3824 37.9719C43.0535 37.4096 42.8889 36.7715 42.8889 36.0575C42.8889 35.1307 43.1553 34.3254 43.6878 33.6418C44.2203 32.958 44.9643 32.4339 45.9195 32.0692C46.8748 31.6895 47.9711 31.4994 49.2084 31.4994C50.4613 31.4994 51.5655 31.6895 52.5208 32.0692C53.492 32.4339 54.2437 32.958 54.7762 33.6418C55.3087 34.3254 55.5748 35.1307 55.5748 36.0575C55.5748 36.7715 55.4105 37.4096 55.0815 37.9719C54.7526 38.5187 54.275 38.9745 53.6486 39.3392ZM49.2084 34.2114C48.441 34.2114 47.8224 34.3937 47.3525 34.7585C46.8984 35.108 46.6713 35.594 46.6713 36.2169C46.6713 36.8248 46.8984 37.3033 47.3525 37.6528C47.8068 38.0023 48.4254 38.177 49.2084 38.177C49.9916 38.177 50.618 38.0023 51.0879 37.6528C51.5576 37.3033 51.7927 36.8248 51.7927 36.2169C51.7927 35.594 51.5576 35.108 51.0879 34.7585C50.618 34.3937 49.9916 34.2114 49.2084 34.2114ZM49.2084 45.2874C50.1639 45.2874 50.9156 45.0823 51.4638 44.6722C52.0275 44.2466 52.3095 43.6845 52.3095 42.9857C52.3095 42.2867 52.0275 41.7322 51.4638 41.322C50.9156 40.9117 50.1639 40.7066 49.2084 40.7066C48.2688 40.7066 47.5248 40.9117 46.9766 41.322C46.4285 41.7322 46.1544 42.2867 46.1544 42.9857C46.1544 43.6997 46.4285 44.2618 46.9766 44.6722C47.5248 45.0823 48.2688 45.2874 49.2084 45.2874Z" fill="#F4D400"/>
<path d="M64.9521 47.9994C63.5897 47.9994 62.3757 47.6728 61.3107 47.0194C60.2457 46.3661 59.4079 45.4241 58.7972 44.1934C58.2021 42.9476 57.9044 41.4662 57.9044 39.7494C57.9044 38.0325 58.2021 36.5589 58.7972 35.3282C59.4079 34.0824 60.2457 33.1327 61.3107 32.4793C62.3757 31.8262 63.5897 31.4994 64.9521 31.4994C66.3147 31.4994 67.5284 31.8262 68.5934 32.4793C69.6584 33.1327 70.4886 34.0824 71.0837 35.3282C71.6944 36.5589 71.9999 38.0325 71.9999 39.7494C71.9999 41.4662 71.6944 42.9476 71.0837 44.1934C70.4886 45.4241 69.6584 46.3661 68.5934 47.0194C67.5284 47.6728 66.3147 47.9994 64.9521 47.9994ZM64.9521 44.8772C65.9545 44.8772 66.7375 44.4594 67.3013 43.6237C67.8809 42.7882 68.1707 41.4967 68.1707 39.7494C68.1707 38.0023 67.8809 36.7108 67.3013 35.8751C66.7375 35.0396 65.9545 34.6217 64.9521 34.6217C63.9655 34.6217 63.1823 35.0396 62.6029 35.8751C62.0391 36.7108 61.7571 38.0023 61.7571 39.7494C61.7571 41.4967 62.0391 42.7882 62.6029 43.6237C63.1823 44.4594 63.9655 44.8772 64.9521 44.8772Z" fill="#F4D400"/>
</svg>
