<svg width="122" height="30" viewBox="0 0 122 30" fill="none" xmlns="http://www.w3.org/2000/svg">
<path d="M65.3146 5.95412C65.3123 6.50436 65.1471 7.04158 64.8397 7.49797C64.5324 7.95436 64.0966 8.30946 63.5877 8.51844C63.0786 8.72741 62.5191 8.78091 61.9797 8.67216C61.4403 8.56341 60.9453 8.29729 60.557 7.90741C60.1688 7.51752 59.9047 7.02134 59.7982 6.48151C59.6917 5.94168 59.7475 5.38239 59.9586 4.87425C60.1697 4.36612 60.5266 3.93191 60.9842 3.62645C61.4419 3.32099 61.9798 3.15796 62.5301 3.15796C62.8965 3.15872 63.2591 3.23165 63.5974 3.37258C63.9356 3.51352 64.2429 3.71969 64.5014 3.97934C64.76 4.23898 64.9649 4.54702 65.1044 4.88586C65.2439 5.22469 65.3154 5.58769 65.3146 5.95412Z" fill="#F4D400"/>
<path d="M72.5217 5.95412C72.5193 6.50436 72.3541 7.04158 72.0467 7.49797C71.7394 7.95436 71.3036 8.30946 70.7947 8.51844C70.2856 8.72741 69.7261 8.78091 69.1868 8.67216C68.6473 8.56341 68.1523 8.29729 67.764 7.90741C67.3758 7.51752 67.1117 7.02134 67.0052 6.48151C66.8987 5.94168 66.9545 5.38239 67.1656 4.87425C67.3767 4.36612 67.7336 3.93191 68.1912 3.62645C68.6489 3.32099 69.1869 3.15796 69.7371 3.15796C70.1036 3.15872 70.4662 3.23165 70.8044 3.37258C71.1427 3.51352 71.4499 3.71969 71.7085 3.97934C71.967 4.23898 72.172 4.54702 72.3115 4.88586C72.451 5.22469 72.5224 5.58769 72.5217 5.95412Z" fill="#F4D400"/>
<path d="M45.8526 15.4334L49.3647 11.1646C49.6189 10.8584 49.4744 10.5118 49.0932 10.5118H46.4591C46.3204 10.5136 46.1839 10.5467 46.0599 10.6088C45.9358 10.6707 45.8274 10.7601 45.7428 10.8701L43.3398 13.9374V11.0491C43.3515 10.9706 43.3446 10.8903 43.3197 10.8149C43.2948 10.7395 43.2526 10.6709 43.1964 10.6148C43.1403 10.5586 43.0718 10.5164 42.9963 10.4915C42.9209 10.4667 42.8407 10.4597 42.7621 10.4714H40.8328C40.754 10.4584 40.6733 10.4644 40.5972 10.4889C40.5212 10.5132 40.4521 10.5554 40.3957 10.612C40.3391 10.6684 40.2969 10.7375 40.2725 10.8135C40.2481 10.8896 40.2421 10.9703 40.2551 11.0491V20.9616C40.2421 21.0403 40.2481 21.1212 40.2725 21.1972C40.2969 21.2732 40.3391 21.3423 40.3957 21.3988C40.4521 21.4552 40.5212 21.4974 40.5972 21.5218C40.6733 21.5463 40.754 21.5522 40.8328 21.5393H42.7737C42.8525 21.5522 42.9332 21.5463 43.0092 21.5218C43.0853 21.4974 43.1544 21.4552 43.2109 21.3988C43.2673 21.3423 43.3095 21.2732 43.334 21.1972C43.3584 21.1212 43.3644 21.0403 43.3513 20.9616V17.1317L46.592 21.1753C46.6632 21.2856 46.7595 21.3776 46.8729 21.4438C46.9863 21.51 47.1136 21.5487 47.2447 21.5565H49.9827C50.0562 21.5562 50.128 21.5349 50.1898 21.4951C50.2516 21.4555 50.3008 21.3989 50.3317 21.3324C50.3626 21.2657 50.3739 21.1917 50.3643 21.1189C50.3546 21.0461 50.3245 20.9774 50.2774 20.9212L45.8526 15.4334Z" fill="#0087E6"/>
<path d="M100.238 10.4647H91.9951C91.8705 10.4647 91.751 10.5142 91.6629 10.6023C91.5748 10.6905 91.5253 10.8099 91.5253 10.9346V13.0752C91.5253 13.1998 91.5748 13.3193 91.6629 13.4074C91.751 13.4956 91.8705 13.5451 91.9951 13.5451H94.5937V21.0866C94.5937 21.2113 94.6434 21.3307 94.7315 21.4189C94.8196 21.507 94.9396 21.5565 95.0643 21.5565H97.1868C97.3115 21.5565 97.4315 21.507 97.5197 21.4189C97.6078 21.3307 97.6575 21.2113 97.6575 21.0866V13.5451H100.227C100.352 13.5451 100.471 13.4956 100.559 13.4074C100.647 13.3193 100.697 13.1998 100.697 13.0752V10.9346C100.697 10.8099 100.647 10.6905 100.559 10.6023C100.471 10.5142 100.352 10.4647 100.227 10.4647" fill="#0087E6"/>
<path d="M75.9071 19.0847H73.2548V17.0083H75.9071C77.5298 17.0083 77.652 19.0847 75.9071 19.0847ZM73.2548 12.9427H75.2556C75.487 12.9427 75.7089 13.0345 75.8726 13.1981C76.0362 13.3618 76.1281 13.5837 76.1281 13.8151C76.1281 14.0465 76.0362 14.2684 75.8726 14.432C75.7089 14.5957 75.487 14.6875 75.2556 14.6875H73.2548V12.9427ZM78.2686 15.5018C80.2287 13.6173 78.9199 10.4648 75.9071 10.4648H70.7305C70.6055 10.4648 70.4857 10.5144 70.3973 10.6028C70.309 10.6912 70.2594 10.8111 70.2594 10.9359V21.0856C70.2594 21.2105 70.309 21.3304 70.3973 21.4187C70.4857 21.507 70.6055 21.5567 70.7305 21.5567H76.4131C80.3567 21.5567 81.4094 17.0083 78.2686 15.5018Z" fill="#0087E6"/>
<path d="M67.8313 10.9359C67.8313 10.8111 67.7817 10.6912 67.6932 10.6028C67.6049 10.5144 67.4851 10.4648 67.3602 10.4648H64.9115C64.7865 10.4648 64.6667 10.5144 64.5783 10.6028C64.49 10.6912 64.4403 10.8111 64.4403 10.9359V21.0856C64.4403 21.2105 64.49 21.3304 64.5783 21.4187C64.6667 21.507 64.7865 21.5567 64.9115 21.5567H67.3602C67.4851 21.5567 67.6049 21.507 67.6932 21.4187C67.7817 21.3304 67.8313 21.2105 67.8313 21.0856V10.9359Z" fill="#0087E6"/>
<path d="M117.137 15.5753H115.477V13.02H117.097C118.188 13.02 118.566 13.531 118.566 14.2686C118.566 14.9016 118.275 15.5578 117.137 15.5578V15.5753ZM117.369 10.4648H112.852C112.727 10.4648 112.607 10.5144 112.519 10.6027C112.431 10.6909 112.381 10.8105 112.381 10.9352V21.0863C112.381 21.211 112.431 21.3307 112.519 21.4189C112.607 21.5071 112.727 21.5567 112.852 21.5567H114.995C115.119 21.5567 115.239 21.5071 115.327 21.4189C115.415 21.3307 115.464 21.211 115.464 21.0863V18.0897H117.207C119.693 18.0897 121.58 16.7831 121.58 14.3093C121.58 11.9863 119.646 10.4823 117.335 10.4823" fill="#0087E6"/>
<path d="M104.341 17.1836L105.558 13.5567L106.775 17.1836H104.341ZM111.375 20.9728L107.62 10.8915C107.584 10.7589 107.501 10.6436 107.388 10.5661C107.274 10.4887 107.137 10.4541 107.001 10.4686H104.144C104.006 10.4526 103.867 10.4865 103.752 10.564C103.638 10.6417 103.554 10.7578 103.518 10.8915L99.7519 20.9728C99.7144 21.0345 99.6947 21.1057 99.6956 21.178C99.6966 21.2503 99.7181 21.321 99.7575 21.3817C99.7969 21.4423 99.8522 21.4906 99.9178 21.5208C99.9844 21.551 100.057 21.5619 100.129 21.5522H102.528C102.629 21.5469 102.727 21.5123 102.809 21.4526C102.891 21.393 102.954 21.3109 102.991 21.2162L103.483 19.7388H107.62L108.107 21.2162C108.143 21.3109 108.207 21.393 108.289 21.4526C108.371 21.5123 108.469 21.5469 108.57 21.5522H110.969C111.041 21.5632 111.115 21.5532 111.182 21.5235C111.248 21.4939 111.306 21.4457 111.346 21.3848C111.385 21.3239 111.408 21.2527 111.409 21.1797C111.41 21.1067 111.39 21.0349 111.352 20.9728" fill="#0087E6"/>
<path d="M62.0882 21.0856V10.9359C62.0882 10.8111 62.0386 10.6912 61.9502 10.6028C61.8619 10.5144 61.7421 10.4648 61.6171 10.4648H59.2905C59.2039 10.4659 59.1188 10.4881 59.0427 10.5297C58.9666 10.5713 58.9019 10.6309 58.8543 10.7033L54.492 16.6477V10.9359C54.492 10.8111 54.4424 10.6912 54.354 10.6028C54.2657 10.5144 54.1459 10.4648 54.0209 10.4648H51.8689C51.7439 10.4648 51.6241 10.5144 51.5357 10.6028C51.4474 10.6912 51.3977 10.8111 51.3977 10.9359V21.0856C51.3977 21.2105 51.4474 21.3304 51.5357 21.4187C51.6241 21.507 51.7439 21.5567 51.8689 21.5567H54.2303C54.316 21.5547 54.4 21.532 54.4749 21.4905C54.5499 21.449 54.6136 21.3898 54.6607 21.3182L59.023 15.3739V21.0856C59.023 21.2105 59.0726 21.3304 59.161 21.4187C59.2494 21.507 59.3692 21.5567 59.4941 21.5567H61.6404C61.7659 21.5567 61.8863 21.5073 61.9756 21.4191C62.0649 21.3308 62.1158 21.211 62.1173 21.0856H62.0882Z" fill="#0087E6"/>
<path d="M90.8064 19.4533L89.5359 18.1132C89.4918 18.0589 89.4361 18.015 89.3729 17.9849C89.3096 17.9547 89.2404 17.9391 89.1704 17.9392C89.0521 17.9416 88.9387 17.987 88.8514 18.0668C88.1717 18.6735 87.2911 19.0063 86.38 19.0009C85.5908 19.0009 84.8338 18.6873 84.2757 18.1292C83.7176 17.5711 83.404 16.8141 83.404 16.0249C83.404 15.2356 83.7176 14.4785 84.2757 13.9205C84.8338 13.3624 85.5908 13.0489 86.38 13.0489C87.2906 13.04 88.1717 13.371 88.8514 13.977C88.9375 14.0588 89.0516 14.1045 89.1704 14.1047C89.2404 14.1047 89.3096 14.0891 89.3729 14.059C89.4361 14.0289 89.4918 13.985 89.5359 13.9306L90.8064 12.5905C90.8892 12.5051 90.9351 12.3905 90.934 12.2715C90.9343 12.209 90.9222 12.147 90.8983 12.0892C90.8744 12.0314 90.8392 11.979 90.7947 11.935C90.2245 11.3528 89.5427 10.8915 88.7902 10.5785C88.0377 10.2655 87.2299 10.1074 86.4149 10.1135C84.883 10.1615 83.4298 10.8038 82.3632 11.9045C81.2965 13.0051 80.7001 14.4776 80.7001 16.0103C80.7001 17.543 81.2965 19.0156 82.3632 20.1162C83.4298 21.2168 84.883 21.8592 86.4149 21.9072C87.2302 21.9182 88.0393 21.7646 88.7939 21.4556C89.5485 21.1466 90.233 20.6885 90.8064 20.1089C90.8514 20.0653 90.8869 20.0129 90.9109 19.955C90.9348 19.8972 90.9466 19.835 90.9456 19.7724C90.9467 19.6534 90.9009 19.5388 90.818 19.4533H90.8064Z" fill="#0087E6"/>
<path d="M15.4654 11.5192L15.4566 11.5191C15.7158 11.5174 15.9721 11.4653 16.2112 11.3655C16.4532 11.2647 16.6729 11.1172 16.8578 10.9314C17.0427 10.7457 17.1892 10.5253 17.2891 10.283C17.3888 10.0406 17.4398 9.78094 17.4393 9.51882V2.17861C17.4653 1.90254 17.4334 1.62406 17.3457 1.36102C17.2579 1.09798 17.1161 0.856171 16.9294 0.651083C16.7428 0.445994 16.5154 0.282145 16.2618 0.170029C16.0082 0.0579126 15.7339 0 15.4566 0C15.1793 0 14.9051 0.0579126 14.6514 0.170029C14.3978 0.282145 14.1704 0.445994 13.9837 0.651083C13.7971 0.856171 13.6553 1.09798 13.5676 1.36102C13.4798 1.62406 13.4479 1.90254 13.4739 2.17861V9.51882C13.4734 9.78094 13.5244 10.0406 13.6242 10.283C13.7239 10.5253 13.8705 10.7457 14.0554 10.9314C14.2403 11.1172 14.4601 11.2647 14.7019 11.3655C14.9412 11.4653 15.1975 11.5174 15.4566 11.5191L15.4478 11.5192H15.4654Z" fill="#0087E6"/>
<path d="M10.8128 14.9161C10.7332 15.1656 10.6052 15.3969 10.436 15.5968C10.2668 15.7966 10.0597 15.9611 9.82669 16.0806C9.59372 16.2002 9.33943 16.2725 9.07842 16.2934C8.8174 16.3143 8.55481 16.2835 8.30576 16.2027L1.36204 13.9336C0.863335 13.7657 0.450879 13.4081 0.214048 12.9381C-0.0227838 12.4682 -0.0649144 11.9239 0.0967856 11.4232C0.258485 10.9225 0.61099 10.5056 1.07791 10.263C1.54484 10.0203 2.08857 9.9714 2.59129 10.1269L9.53504 12.396C10.0383 12.5612 10.4554 12.9194 10.695 13.3919C10.9345 13.8643 10.9768 14.4124 10.8128 14.9161Z" fill="#0087E6"/>
<path d="M20.4951 15.5981C20.3256 15.3979 20.1974 15.1661 20.1179 14.9161C19.955 14.4124 19.9979 13.8648 20.2373 13.3926C20.4767 12.9205 20.8931 12.5622 21.3957 12.396L28.3438 10.1269C28.8464 9.9714 29.3902 10.0203 29.8572 10.263C30.324 10.5056 30.6765 10.9225 30.8383 11.4232C31 11.9239 30.9579 12.4682 30.721 12.9381C30.4842 13.4081 30.0718 13.7657 29.573 13.9336L22.6293 16.2027C22.3799 16.2842 22.117 16.3156 21.8554 16.2949C21.5939 16.2743 21.3391 16.2021 21.1056 16.0826C20.8722 15.963 20.6647 15.7983 20.4951 15.5981Z" fill="#0087E6"/>
<path d="M5.95299 29.601C5.52498 29.2874 5.23842 28.8172 5.15588 28.293C5.07333 27.7688 5.2015 27.2332 5.51241 26.8033L9.80374 20.8862C9.95711 20.6743 10.1507 20.4949 10.3736 20.358C10.5964 20.2211 10.8441 20.1296 11.1024 20.0887C11.3606 20.0478 11.6245 20.0582 11.8787 20.1195C12.133 20.1807 12.3726 20.2915 12.5839 20.4456C13.012 20.7591 13.2985 21.2294 13.3811 21.7536C13.4636 22.2777 13.3354 22.8133 13.0245 23.2433L8.73754 29.1561C8.5838 29.368 8.38976 29.5476 8.16654 29.6845C7.94332 29.8214 7.69528 29.9129 7.43665 29.9539C7.17801 29.9947 6.91383 29.9842 6.65925 29.923C6.40466 29.8617 6.16467 29.7508 5.95299 29.5966V29.601Z" fill="#0087E6"/>
<path d="M25.7749 28.293C25.6923 28.8171 25.4057 29.2874 24.9777 29.601V29.6186C24.7664 29.7726 24.5268 29.8835 24.2726 29.9447C24.0183 30.006 23.7545 30.0164 23.4962 29.9755C23.2379 29.9345 22.9902 29.843 22.7674 29.7061C22.5446 29.5694 22.351 29.3898 22.1976 29.178L17.9063 23.2389C17.7518 23.0271 17.6405 22.787 17.5788 22.5322C17.5171 22.2775 17.5062 22.013 17.5467 21.7541C17.5872 21.495 17.6784 21.2466 17.8149 21.0228C17.9514 20.799 18.1307 20.6044 18.3424 20.4499C18.5542 20.2954 18.7944 20.1841 19.0491 20.1224C19.3038 20.0608 19.5683 20.0499 19.8272 20.0904C20.0862 20.1309 20.3347 20.222 20.5585 20.3585C20.7822 20.4951 20.9769 20.6744 21.1314 20.8861L25.4184 26.8033C25.7292 27.2332 25.8574 27.7688 25.7749 28.293Z" fill="#0087E6"/>
</svg>
